<?xml version="1.0" encoding="UTF-8"?>
<svg width="51px" height="20px" viewBox="0 0 51 20" version="1.1" xmlns="http://www.w3.org/2000/svg" xmlns:xlink="http://www.w3.org/1999/xlink">
    <!-- Generator: Sketch 43.2 (39069) - http://www.bohemiancoding.com/sketch -->
    <title>label--quiet</title>
    <desc>Created with Sketch.</desc>
    <defs>
        <path d="M11.4275998,19.9248001 L8.83559971,19.9248001 L8.83559971,13.6824 L8.7707997,13.6824 C8.64119905,13.8552008 8.47560071,14.0315991 8.2739997,14.2116 C8.07239868,14.3916009 7.82760113,14.5607992 7.53959968,14.7192 C7.25159824,14.8776008 6.92040154,15.0071995 6.54599967,15.108 C6.17159779,15.2088005 5.7396021,15.2592 5.24999964,15.2592 C4.51559596,15.2592 3.83880271,15.1188014 3.21959961,14.838 C2.6003965,14.5571986 2.07120178,14.1720024 1.63199958,13.6824 C1.19279737,13.1927975 0.850800789,12.6168033 0.60599956,11.9543999 C0.361198332,11.2919966 0.238799554,10.5792037 0.238799554,9.81599991 C0.238799554,9.05279608 0.353998404,8.34000319 0.58439956,7.67759987 C0.814800716,7.01519655 1.15319734,6.4392023 1.59959958,5.94959984 C2.04600182,5.45999738 2.58239646,5.07480123 3.20879961,4.79399982 C3.83520275,4.51319841 4.5515956,4.37279981 5.35799964,4.37279981 C6.09240333,4.37279981 6.7763965,4.51679837 7.40999968,4.80479982 C8.04360286,5.09280127 8.54759783,5.55359667 8.92199971,6.18719984 L8.96519971,6.18719984 L8.96519971,4.63199982 L11.4275998,4.63199982 L11.4275998,19.9248001 Z M2.8307996,9.81599991 C2.8307996,10.2192019 2.89919892,10.6079981 3.0359996,10.9823999 C3.17280029,11.3568018 3.37439828,11.6879985 3.64079961,11.9759999 C3.90720095,12.2640014 4.22759775,12.4943991 4.60199963,12.6672 C4.97640151,12.8400008 5.40119727,12.9264 5.87639965,12.9264 C6.35160204,12.9264 6.7763978,12.8400008 7.15079968,12.6672 C7.52520155,12.4943991 7.84559836,12.2640014 8.11199969,11.9759999 C8.37840103,11.6879985 8.57999902,11.3568018 8.7167997,10.9823999 C8.85360039,10.6079981 8.92199971,10.2192019 8.92199971,9.81599991 C8.92199971,9.41279789 8.85360039,9.02400177 8.7167997,8.64959989 C8.57999902,8.27519801 8.37840103,7.94400132 8.11199969,7.65599987 C7.84559836,7.36799843 7.52520155,7.13760073 7.15079968,6.96479986 C6.7763978,6.79199899 6.35160204,6.70559985 5.87639965,6.70559985 C5.40119727,6.70559985 4.97640151,6.79199899 4.60199963,6.96479986 C4.22759775,7.13760073 3.90720095,7.36799843 3.64079961,7.65599987 C3.37439828,7.94400132 3.17280029,8.27519801 3.0359996,8.64959989 C2.89919892,9.02400177 2.8307996,9.41279789 2.8307996,9.81599991 Z M23.826,15 L21.3635999,15 L21.3635999,13.3368 L21.3203999,13.3368 C21.0755987,13.8552026 20.7012024,14.3051981 20.1971999,14.6868 C19.6931974,15.0684019 19.0092042,15.2592 18.1451999,15.2592 C17.4539964,15.2592 16.8672023,15.1476011 16.3847998,14.9244 C15.9023974,14.7011989 15.5100013,14.3988019 15.2075998,14.0172 C14.9051983,13.6355981 14.6892005,13.2000024 14.5595998,12.7104 C14.4299992,12.2207975 14.3651998,11.7096026 14.3651998,11.1767999 L14.3651998,4.63199982 L16.9571998,4.63199982 L16.9571998,9.88079991 C16.9571998,10.1688014 16.9715997,10.4891982 17.0003998,10.8419999 C17.0292,11.1948017 17.1047992,11.5259984 17.2271999,11.8355999 C17.3496005,12.1452015 17.5367986,12.4043989 17.7887999,12.6132 C18.0408011,12.822001 18.3971976,12.9264 18.8579999,12.9264 C19.2900021,12.9264 19.6535984,12.8544007 19.9487999,12.7104 C20.2440014,12.5663992 20.4887989,12.3720012 20.6831999,12.1271999 C20.8776009,11.8823987 21.0179995,11.6016015 21.1043999,11.2847999 C21.1908004,10.9679983 21.2339999,10.6368017 21.2339999,10.2911999 L21.2339999,4.63199982 L23.826,4.63199982 L23.826,15 Z M26.8068,4.63199982 L29.3988001,4.63199982 L29.3988001,15 L26.8068,15 L26.8068,4.63199982 Z M26.4396,1.11119975 C26.4396,0.693597659 26.5943985,0.330001289 26.904,0.0203997355 C27.2136016,-0.289201818 27.6059977,-0.444000273 28.0812,-0.444000273 C28.5564024,-0.444000273 28.9559984,-0.296401746 29.2800001,-0.00120026493 C29.6040017,0.294001216 29.7660001,0.664797515 29.7660001,1.11119975 C29.7660001,1.55760199 29.6040017,1.92839829 29.2800001,2.22359977 C28.9559984,2.51880126 28.5564024,2.66639978 28.0812,2.66639978 C27.6059977,2.66639978 27.2136016,2.51160133 26.904,2.20199977 C26.5943985,1.89239822 26.4396,1.52880185 26.4396,1.11119975 Z M34.4532002,10.7231999 C34.5396006,11.5008038 34.8419976,12.1055978 35.3604002,12.5376 C35.8788028,12.9696021 36.5051965,13.1856 37.2396002,13.1856 C37.8876035,13.1856 38.431198,13.0524013 38.8704002,12.786 C39.3096024,12.5195986 39.6947986,12.184802 40.0260003,11.7815999 L41.8836003,13.1856 C41.2787973,13.9344037 40.602004,14.4671984 39.8532003,14.784 C39.1043965,15.1008016 38.3196043,15.2592 37.4988002,15.2592 C36.7211963,15.2592 35.9868036,15.1296013 35.2956002,14.8704 C34.6043967,14.6111987 34.0068027,14.2440024 33.5028001,13.7688 C32.9987976,13.2935976 32.5992016,12.7212033 32.3040001,12.0515999 C32.0087986,11.3819966 31.8612001,10.636804 31.8612001,9.81599991 C31.8612001,8.99519579 32.0087986,8.25000323 32.3040001,7.58039987 C32.5992016,6.91079651 32.9987976,6.33840222 33.5028001,5.86319984 C34.0068027,5.38799745 34.6043967,5.02080112 35.2956002,4.76159982 C35.9868036,4.50239852 36.7211963,4.37279981 37.4988002,4.37279981 C38.2188038,4.37279981 38.8775972,4.49879855 39.4752002,4.75079982 C40.0728032,5.00280108 40.5839981,5.36639745 41.0088003,5.84159984 C41.4336024,6.31680222 41.7647991,6.90359637 42.0024003,7.60199987 C42.2400015,8.30040337 42.3588003,9.10319536 42.3588003,10.0103999 L42.3588003,10.7231999 L34.4532002,10.7231999 Z M39.7668003,8.77919989 C39.7524002,8.01599606 39.5148026,7.41480206 39.0540002,6.97559986 C38.5931979,6.53639765 37.9524043,6.31679985 37.1316002,6.31679985 C36.3539963,6.31679985 35.7384024,6.53999762 35.2848002,6.98639986 C34.8311979,7.4328021 34.5540007,8.03039613 34.4532002,8.77919989 L39.7668003,8.77919989 Z M43.5684003,6.83519986 L43.5684003,4.63199982 L45.7068004,4.63199982 L45.7068004,1.62959976 L48.2988004,1.62959976 L48.2988004,4.63199982 L51.1500005,4.63199982 L51.1500005,6.83519986 L48.2988004,6.83519986 L48.2988004,11.3711999 C48.2988004,11.8896025 48.3959994,12.2999984 48.5904004,12.6024 C48.7848014,12.9048015 49.1699975,13.056 49.7460004,13.056 C49.9764016,13.056 50.2283991,13.0308002 50.5020004,12.9804 C50.7756018,12.9299997 50.9915997,12.8472005 51.1500005,12.732 L51.1500005,14.9136 C50.8763991,15.0432006 50.5416024,15.1331998 50.1456004,15.1836 C49.7495984,15.2340003 49.4004019,15.2592 49.0980004,15.2592 C48.4067969,15.2592 47.8416026,15.1836008 47.4024004,15.0324 C46.9631982,14.8811992 46.6176016,14.6508015 46.3656004,14.3412 C46.1135991,14.0315984 45.9408008,13.6464023 45.8472004,13.1856 C45.7535999,12.7247977 45.7068004,12.192003 45.7068004,11.5871999 L45.7068004,6.83519986 L43.5684003,6.83519986 Z" id="path-1"></path>
        <filter x="-102.1%" y="-245.5%" width="304.3%" height="610.6%" filterUnits="objectBoundingBox" id="filter-2">
            <feOffset dx="0" dy="2" in="SourceAlpha" result="shadowOffsetOuter1"></feOffset>
            <feGaussianBlur stdDeviation="17" in="shadowOffsetOuter1" result="shadowBlurOuter1"></feGaussianBlur>
            <feColorMatrix values="0 0 0 0 0.0189070032   0 0 0 0 0.0476657778   0 0 0 0 0.100047832  0 0 0 1 0" type="matrix" in="shadowBlurOuter1"></feColorMatrix>
        </filter>
    </defs>
    <g id="Symbols" stroke="none" stroke-width="1" fill="none" fill-rule="evenodd">
        <g id="label--quiet">
            <g id="quiet">
                <use fill="black" fill-opacity="1" filter="url(#filter-2)" xlink:href="#path-1"></use>
                <use fill="#FFFFFF" fill-rule="evenodd" xlink:href="#path-1"></use>
            </g>
        </g>
    </g>
</svg>