<?xml version="1.0" encoding="UTF-8"?>
<svg width="76px" height="22px" viewBox="0 0 76 22" version="1.1" xmlns="http://www.w3.org/2000/svg" xmlns:xlink="http://www.w3.org/1999/xlink">
    <!-- Generator: Sketch 43.2 (39069) - http://www.bohemiancoding.com/sketch -->
    <title>label--feeding</title>
    <desc>Created with Sketch.</desc>
    <defs>
        <path d="M2.08239936,8.83519986 L-0.0560006809,8.83519986 L-0.0560006809,6.63199982 L2.08239936,6.63199982 L2.08239936,5.16319979 C2.08239936,4.44319618 2.13279885,3.79160268 2.23359936,3.20839976 C2.33439987,2.62519683 2.52519796,2.12480183 2.80599937,1.70719973 C3.08680078,1.28959763 3.47919686,0.969200833 3.98319939,0.745999713 C4.48720192,0.522798593 5.14239538,0.411199707 5.94879943,0.411199707 C6.53920239,0.411199707 7.08639693,0.461599204 7.59039945,0.56239971 L7.41759945,2.76559975 C7.23039851,2.72239953 7.05040031,2.68639989 6.87759944,2.65759975 C6.70479857,2.6287996 6.52480037,2.61439975 6.33759943,2.61439975 C5.97759763,2.61439975 5.6896005,2.67199917 5.47359942,2.78719975 C5.25759833,2.90240033 5.08840002,3.05719878 4.96599941,3.25159976 C4.84359879,3.44600073 4.76439958,3.67279847 4.7283994,3.93199977 C4.69239922,4.19120107 4.6743994,4.46479834 4.6743994,4.75279978 L4.6743994,6.63199982 L7.07199944,6.63199982 L7.07199944,8.83519986 L4.6743994,8.83519986 L4.6743994,17 L2.08239936,17 L2.08239936,8.83519986 Z M10.8303995,12.7231999 C10.9167999,13.5008038 11.2191969,14.1055978 11.7375995,14.5376 C12.2560021,14.9696021 12.8823959,15.1856 13.6167996,15.1856 C14.2648028,15.1856 14.8083974,15.0524013 15.2475996,14.786 C15.6868018,14.5195986 16.0719979,14.184802 16.4031996,13.7815999 L18.2607996,15.1856 C17.6559966,15.9344037 16.9792034,16.4671984 16.2303996,16.784 C15.4815958,17.1008016 14.6968037,17.2592 13.8759996,17.2592 C13.0983957,17.2592 12.364003,17.1296013 11.6727995,16.8704 C10.9815961,16.6111987 10.384002,16.2440024 9.87999949,15.7688 C9.37599697,15.2935976 8.97640095,14.7212033 8.68119947,14.0515999 C8.38599799,13.3819966 8.23839947,12.636804 8.23839947,11.8159999 C8.23839947,10.9951958 8.38599799,10.2500032 8.68119947,9.58039987 C8.97640095,8.91079651 9.37599697,8.33840222 9.87999949,7.86319984 C10.384002,7.38799745 10.9815961,7.02080112 11.6727995,6.76159982 C12.364003,6.50239852 13.0983957,6.37279981 13.8759996,6.37279981 C14.5960032,6.37279981 15.2547966,6.49879855 15.8523996,6.75079982 C16.4500026,7.00280108 16.9611975,7.36639745 17.3859996,7.84159984 C17.8108018,8.31680222 18.1419985,8.90359637 18.3795996,9.60199987 C18.6172008,10.3004034 18.7359997,11.1031954 18.7359997,12.0103999 L18.7359997,12.7231999 L10.8303995,12.7231999 Z M16.1439996,10.7791999 C16.1295995,10.0159961 15.8920019,9.41480206 15.4311996,8.97559986 C14.9703973,8.53639765 14.3296037,8.31679985 13.5087996,8.31679985 C12.7311957,8.31679985 12.1156018,8.53999762 11.6619995,8.98639986 C11.2083973,9.4328021 10.9312,10.0303961 10.8303995,10.7791999 L16.1439996,10.7791999 Z M23.2287997,12.7231999 C23.3152002,13.5008038 23.6175971,14.1055978 24.1359997,14.5376 C24.6544023,14.9696021 25.2807961,15.1856 26.0151998,15.1856 C26.663203,15.1856 27.2067976,15.0524013 27.6459998,14.786 C28.085202,14.5195986 28.4703982,14.184802 28.8015998,13.7815999 L30.6591999,15.1856 C30.0543968,15.9344037 29.3776036,16.4671984 28.6287998,16.784 C27.8799961,17.1008016 27.0952039,17.2592 26.2743998,17.2592 C25.4967959,17.2592 24.7624032,17.1296013 24.0711997,16.8704 C23.3799963,16.6111987 22.7824022,16.2440024 22.2783997,15.7688 C21.7743972,15.2935976 21.3748012,14.7212033 21.0795997,14.0515999 C20.7843982,13.3819966 20.6367997,12.636804 20.6367997,11.8159999 C20.6367997,10.9951958 20.7843982,10.2500032 21.0795997,9.58039987 C21.3748012,8.91079651 21.7743972,8.33840222 22.2783997,7.86319984 C22.7824022,7.38799745 23.3799963,7.02080112 24.0711997,6.76159982 C24.7624032,6.50239852 25.4967959,6.37279981 26.2743998,6.37279981 C26.9944034,6.37279981 27.6531968,6.49879855 28.2507998,6.75079982 C28.8484028,7.00280108 29.3595977,7.36639745 29.7843998,7.84159984 C30.209202,8.31680222 30.5403987,8.90359637 30.7779999,9.60199987 C31.0156011,10.3004034 31.1343999,11.1031954 31.1343999,12.0103999 L31.1343999,12.7231999 L23.2287997,12.7231999 Z M28.5423998,10.7791999 C28.5279998,10.0159961 28.2904021,9.41480206 27.8295998,8.97559986 C27.3687975,8.53639765 26.7280039,8.31679985 25.9071998,8.31679985 C25.1295959,8.31679985 24.514002,8.53999762 24.0603997,8.98639986 C23.6067975,9.4328021 23.3296002,10.0303961 23.2287997,10.7791999 L28.5423998,10.7791999 Z M41.7616001,15.4448 L41.7184001,15.4448 C41.3439982,16.0784032 40.8400032,16.5391986 40.2064,16.8272 C39.5727969,17.1152014 38.8888037,17.2592 38.1544,17.2592 C37.3479959,17.2592 36.6316031,17.1188014 36.0052,16.838 C35.3787968,16.5571986 34.8424022,16.1720024 34.3959999,15.6824 C33.9495977,15.1927975 33.6112011,14.6168033 33.3807999,13.9543999 C33.1503988,13.2919966 33.0351999,12.5792037 33.0351999,11.8159999 C33.0351999,11.0527961 33.1575987,10.3400032 33.4023999,9.67759987 C33.6472011,9.01519655 33.9891977,8.4392023 34.4283999,7.94959984 C34.8676021,7.45999738 35.3967968,7.07480123 36.016,6.79399982 C36.6352031,6.51319841 37.3119963,6.37279981 38.0464,6.37279981 C38.5360024,6.37279981 38.9679981,6.42319931 39.3424,6.52399981 C39.7168019,6.62480032 40.0479986,6.75439903 40.336,6.91279982 C40.6240015,7.07120062 40.868799,7.24039893 41.0704,7.42039983 C41.2720011,7.60040073 41.4375994,7.77679897 41.5672001,7.94959984 L41.6320001,7.94959984 L41.6320001,0.670399712 L44.2240001,0.670399712 L44.2240001,17 L41.7616001,17 L41.7616001,15.4448 Z M35.6271999,11.8159999 C35.6271999,12.2192019 35.6955993,12.6079981 35.8324,12.9823999 C35.9692006,13.3568018 36.1707986,13.6879985 36.4372,13.9759999 C36.7036013,14.2640014 37.0239981,14.4943991 37.3984,14.6672 C37.7728019,14.8400008 38.1975976,14.9264 38.6728,14.9264 C39.1480024,14.9264 39.5727981,14.8400008 39.9472,14.6672 C40.3216019,14.4943991 40.6419987,14.2640014 40.9084,13.9759999 C41.1748014,13.6879985 41.3763994,13.3568018 41.5132001,12.9823999 C41.6500007,12.6079981 41.7184001,12.2192019 41.7184001,11.8159999 C41.7184001,11.4127979 41.6500007,11.0240018 41.5132001,10.6495999 C41.3763994,10.275198 41.1748014,9.94400132 40.9084,9.65599987 C40.6419987,9.36799843 40.3216019,9.13760073 39.9472,8.96479986 C39.5727981,8.79199899 39.1480024,8.70559985 38.6728,8.70559985 C38.1975976,8.70559985 37.7728019,8.79199899 37.3984,8.96479986 C37.0239981,9.13760073 36.7036013,9.36799843 36.4372,9.65599987 C36.1707986,9.94400132 35.9692006,10.275198 35.8324,10.6495999 C35.6955993,11.0240018 35.6271999,11.4127979 35.6271999,11.8159999 Z M47.2048002,6.63199982 L49.7968002,6.63199982 L49.7968002,17 L47.2048002,17 L47.2048002,6.63199982 Z M46.8376001,3.11119975 C46.8376001,2.69359766 46.9923986,2.33000129 47.3020002,2.02039974 C47.6116017,1.71079818 48.0039978,1.55599973 48.4792002,1.55599973 C48.9544026,1.55599973 49.3539986,1.70359825 49.6780002,1.99879974 C50.0020018,2.29400122 50.1640002,2.66479751 50.1640002,3.11119975 C50.1640002,3.55760199 50.0020018,3.92839829 49.6780002,4.22359977 C49.3539986,4.51880126 48.9544026,4.66639978 48.4792002,4.66639978 C48.0039978,4.66639978 47.6116017,4.51160133 47.3020002,4.20199977 C46.9923986,3.89239822 46.8376001,3.52880185 46.8376001,3.11119975 Z M52.7776003,6.63199982 L55.2400003,6.63199982 L55.2400003,8.29519985 L55.2832003,8.29519985 C55.5280015,7.77679725 55.9023978,7.32680174 56.4064003,6.94519982 C56.9104028,6.56359791 57.594396,6.37279981 58.4584004,6.37279981 C59.1496038,6.37279981 59.736398,6.48799866 60.2188004,6.71839982 C60.7012028,6.94880097 61.0935989,7.25119796 61.3960004,7.62559983 C61.6984019,8.00000171 61.9143998,8.4319974 62.0440004,8.92159986 C62.1736011,9.41120231 62.2384004,9.92239721 62.2384004,10.4551999 L62.2384004,17 L59.6464004,17 L59.6464004,11.7511999 C59.6464004,11.4631985 59.6320005,11.1428017 59.6032004,10.7899999 C59.5744002,10.4371981 59.498801,10.1060014 59.3764004,9.79639987 C59.2539998,9.48679832 59.0632017,9.22760091 58.8040004,9.01879986 C58.5447991,8.80999881 58.1920026,8.70559985 57.7456003,8.70559985 C57.3135982,8.70559985 56.9500018,8.77759913 56.6548003,8.92159986 C56.3595988,9.06560058 56.1148013,9.25999864 55.9204003,9.50479987 C55.7259993,9.7496011 55.5856007,10.0303983 55.4992003,10.3471999 C55.4127999,10.6640015 55.3696003,10.9951982 55.3696003,11.3407999 L55.3696003,17 L52.7776003,17 L52.7776003,6.63199982 Z M75.8464007,6.63199982 L75.8464007,16.0712 C75.8464007,17.0072047 75.7312018,17.8531962 75.5008007,18.6092 C75.2703995,19.3652038 74.9140031,20.0059974 74.4316006,20.5316001 C73.9491982,21.0572027 73.3408043,21.4639986 72.6064006,21.7520001 C71.8719969,22.0400015 71.0008056,22.1840001 69.9928006,22.1840001 C69.0279957,22.1840001 68.1136048,22.0616013 67.2496005,21.8168001 C66.3855962,21.5719989 65.5864042,21.1256033 64.8520005,20.4776001 L66.4072005,18.3608 C66.9256031,18.8360024 67.4655977,19.2031987 68.0272005,19.4624 C68.5888033,19.7216013 69.2367969,19.8512001 69.9712006,19.8512001 C70.5904037,19.8512001 71.1123985,19.7648009 71.5372006,19.592 C71.9620027,19.4191992 72.3003993,19.1816016 72.5524006,18.8792 C72.8044019,18.5767985 72.9844001,18.2132021 73.0924006,17.7884 C73.2004012,17.3635979 73.2544006,16.8920026 73.2544006,16.3736 L73.2544006,15.6176 L73.2112006,15.6176 C72.8367987,16.1216025 72.3400037,16.4995987 71.7208006,16.7516 C71.1015975,17.0036013 70.4680038,17.1296 69.8200006,17.1296 C69.0423967,17.1296 68.3368037,16.9892014 67.7032005,16.7084 C67.0695973,16.4275986 66.5260028,16.0496024 66.0724005,15.5744 C65.6187982,15.0991976 65.2696017,14.5376032 65.0248005,13.8895999 C64.7799992,13.2415967 64.6576005,12.5504036 64.6576005,11.8159999 C64.6576005,11.0527961 64.7727993,10.3400032 65.0032005,9.67759987 C65.2336016,9.01519655 65.5719982,8.4392023 66.0184005,7.94959984 C66.4648027,7.45999738 67.0011974,7.07480123 67.6276005,6.79399982 C68.2540037,6.51319841 68.9703965,6.37279981 69.7768006,6.37279981 C70.5112042,6.37279981 71.1951974,6.51679837 71.8288006,6.80479982 C72.4624038,7.09280127 72.9663987,7.55359667 73.3408006,8.18719984 L73.3840006,8.18719984 L73.3840006,6.63199982 L75.8464007,6.63199982 Z M70.3168006,8.70559985 C69.8559982,8.70559985 69.4384024,8.7811991 69.0640005,8.93239986 C68.6895987,9.08360062 68.3692019,9.29239853 68.1028005,9.55879987 C67.8363992,9.82520121 67.6276013,10.149198 67.4764005,10.5307999 C67.3251998,10.9124018 67.2496005,11.3335976 67.2496005,11.7943999 C67.2496005,12.212002 67.3251998,12.6007981 67.4764005,12.9607999 C67.6276013,13.3208017 67.8399992,13.6375986 68.1136005,13.9111999 C68.3872019,14.1848013 68.7111987,14.4007992 69.0856005,14.5592 C69.4600024,14.7176008 69.8631984,14.7968 70.2952006,14.7968 C70.7704029,14.7968 71.1987987,14.7176008 71.5804006,14.5592 C71.9620025,14.4007992 72.2859993,14.1884013 72.5524006,13.9219999 C72.8188019,13.6555986 73.0239999,13.3352018 73.1680006,12.9607999 C73.3120013,12.5863981 73.3840006,12.1832021 73.3840006,11.7511999 C73.3840006,10.8439954 73.1104033,10.1096027 72.5632006,9.54799987 C72.0159979,8.98639705 71.2672053,8.70559985 70.3168006,8.70559985 Z" id="path-1"></path>
        <filter x="-68.5%" y="-229.6%" width="237.0%" height="577.7%" filterUnits="objectBoundingBox" id="filter-2">
            <feOffset dx="0" dy="2" in="SourceAlpha" result="shadowOffsetOuter1"></feOffset>
            <feGaussianBlur stdDeviation="17" in="shadowOffsetOuter1" result="shadowBlurOuter1"></feGaussianBlur>
            <feColorMatrix values="0 0 0 0 0.0189070032   0 0 0 0 0.0476657778   0 0 0 0 0.100047832  0 0 0 1 0" type="matrix" in="shadowBlurOuter1"></feColorMatrix>
        </filter>
    </defs>
    <g id="Symbols" stroke="none" stroke-width="1" fill="none" fill-rule="evenodd">
        <g id="label--feeding">
            <g id="feeding">
                <use fill="black" fill-opacity="1" filter="url(#filter-2)" xlink:href="#path-1"></use>
                <use fill="#FFFFFF" fill-rule="evenodd" xlink:href="#path-1"></use>
            </g>
        </g>
    </g>
</svg>