<?xml version="1.0" encoding="utf-8"?>
<!-- Generator: Adobe Illustrator 19.2.1, SVG Export Plug-In . SVG Version: 6.00 Build 0)  -->
<svg version="1.1" id="Layer_1" xmlns="http://www.w3.org/2000/svg" xmlns:xlink="http://www.w3.org/1999/xlink" x="0px" y="0px"
	 viewBox="0 0 59.6 22" style="enable-background:new 0 0 59.6 22;" xml:space="preserve">
<style type="text/css">
	.st0{filter:url(#filter-2);}
	.st1{fill:#FFFFFF;}
</style>
<filter  filterUnits="objectBoundingBox" height="577.7%" id="filter-2" width="237.0%" x="-68.5%" y="-229.6%">
	<feOffset  dx="0" dy="2" in="SourceAlpha" result="shadowOffsetOuter1"></feOffset>
	<feGaussianBlur  in="shadowOffsetOuter1" result="shadowBlurOuter1" stdDeviation="17"></feGaussianBlur>
	
		<feColorMatrix  in="shadowBlurOuter1" type="matrix" values="0 0 0 0 0.0189070032   0 0 0 0 0.0476657778   0 0 0 0 0.100047832  0 0 0 1 0">
		</feColorMatrix>
</filter>
<title>label--crying</title>
<desc>Created with Sketch.</desc>
<g id="Symbols">
	<g id="label--crying">
		<g id="crying">
			<g class="st0">
				<path id="path-1_1_" d="M1.6,8.8h-1.7V6.6h1.7V5.2c0-0.7,0-1.4,0.1-2S2,2.1,2.2,1.7s0.5-0.7,0.9-1C3.5,0.5,4,0.4,4.7,0.4
					c0.5,0,0.9,0.1,1.3,0.2L5.8,2.8c-0.1,0-0.3-0.1-0.4-0.1c-0.1,0-0.3,0-0.4,0c-0.3,0-0.5,0.1-0.7,0.2S4,3.1,3.9,3.3
					C3.8,3.4,3.7,3.7,3.7,3.9c0,0.3,0,0.5,0,0.8v1.9h1.9v2.2H3.7V17h-2V8.8z M8.5,12.7c0.1,0.8,0.3,1.4,0.7,1.8
					c0.4,0.4,0.9,0.6,1.5,0.6c0.5,0,0.9-0.1,1.3-0.4c0.3-0.3,0.6-0.6,0.9-1l1.5,1.4c-0.5,0.7-1,1.3-1.6,1.6s-1.2,0.5-1.9,0.5
					c-0.6,0-1.2-0.1-1.7-0.4c-0.5-0.3-1-0.6-1.4-1.1c-0.4-0.5-0.7-1-0.9-1.7c-0.2-0.7-0.3-1.4-0.3-2.2c0-0.8,0.1-1.6,0.3-2.2
					C7,8.9,7.4,8.3,7.8,7.9C8.1,7.4,8.6,7,9.2,6.8c0.5-0.3,1.1-0.4,1.7-0.4c0.6,0,1.1,0.1,1.6,0.4c0.5,0.3,0.9,0.6,1.2,1.1
					c0.3,0.5,0.6,1.1,0.8,1.8c0.2,0.7,0.3,1.5,0.3,2.4v0.7H8.5z M12.7,10.8c0-0.8-0.2-1.4-0.6-1.8c-0.4-0.4-0.9-0.7-1.5-0.7
					C10,8.3,9.5,8.5,9.2,9c-0.4,0.4-0.6,1-0.7,1.8H12.7z M18.2,12.7c0.1,0.8,0.3,1.4,0.7,1.8c0.4,0.4,0.9,0.6,1.5,0.6
					c0.5,0,0.9-0.1,1.3-0.4c0.3-0.3,0.6-0.6,0.9-1l1.5,1.4c-0.5,0.7-1,1.3-1.6,1.6c-0.6,0.3-1.2,0.5-1.9,0.5c-0.6,0-1.2-0.1-1.7-0.4
					c-0.5-0.3-1-0.6-1.4-1.1c-0.4-0.5-0.7-1-0.9-1.7c-0.2-0.7-0.3-1.4-0.3-2.2c0-0.8,0.1-1.6,0.3-2.2c0.2-0.7,0.5-1.2,0.9-1.7
					c0.4-0.5,0.9-0.8,1.4-1.1c0.5-0.3,1.1-0.4,1.7-0.4c0.6,0,1.1,0.1,1.6,0.4s0.9,0.6,1.2,1.1c0.3,0.5,0.6,1.1,0.8,1.8
					c0.2,0.7,0.3,1.5,0.3,2.4v0.7H18.2z M22.4,10.8c0-0.8-0.2-1.4-0.6-1.8c-0.4-0.4-0.9-0.7-1.5-0.7c-0.6,0-1.1,0.2-1.5,0.7
					c-0.4,0.4-0.6,1-0.7,1.8H22.4z M32.8,15.4L32.8,15.4c-0.3,0.6-0.7,1.1-1.2,1.4s-1,0.4-1.6,0.4c-0.6,0-1.2-0.1-1.7-0.4
					c-0.5-0.3-0.9-0.7-1.3-1.2c-0.4-0.5-0.6-1.1-0.8-1.7C26,13.3,26,12.6,26,11.8s0.1-1.5,0.3-2.1s0.5-1.2,0.8-1.7
					c0.3-0.5,0.8-0.9,1.2-1.2c0.5-0.3,1-0.4,1.6-0.4c0.4,0,0.7,0.1,1,0.2c0.3,0.1,0.6,0.2,0.8,0.4s0.4,0.3,0.6,0.5
					c0.2,0.2,0.3,0.4,0.4,0.5h0.1V0.7h2V17h-1.9V15.4z M28,11.8c0,0.4,0.1,0.8,0.2,1.2c0.1,0.4,0.3,0.7,0.5,1
					c0.2,0.3,0.5,0.5,0.8,0.7s0.6,0.3,1,0.3c0.4,0,0.7-0.1,1-0.3s0.5-0.4,0.8-0.7c0.2-0.3,0.4-0.6,0.5-1s0.2-0.8,0.2-1.2
					s-0.1-0.8-0.2-1.2s-0.3-0.7-0.5-1c-0.2-0.3-0.5-0.5-0.8-0.7s-0.6-0.3-1-0.3c-0.4,0-0.7,0.1-1,0.3s-0.5,0.4-0.8,0.7
					c-0.2,0.3-0.4,0.6-0.5,1C28,11,28,11.4,28,11.8z M37.1,6.6h2V17h-2V6.6z M36.8,3.1c0-0.4,0.1-0.8,0.4-1.1s0.6-0.5,0.9-0.5
					S38.8,1.7,39,2s0.4,0.7,0.4,1.1S39.3,3.9,39,4.2s-0.6,0.4-0.9,0.4s-0.7-0.2-0.9-0.5S36.8,3.5,36.8,3.1z M41.5,6.6h1.9v1.7h0
					c0.2-0.5,0.5-1,0.9-1.3c0.4-0.4,0.9-0.6,1.6-0.6c0.5,0,1,0.1,1.4,0.3c0.4,0.2,0.7,0.5,0.9,0.9c0.2,0.4,0.4,0.8,0.5,1.3
					c0.1,0.5,0.2,1,0.2,1.5V17h-2v-5.2c0-0.3,0-0.6,0-1c0-0.4-0.1-0.7-0.2-1c-0.1-0.3-0.2-0.6-0.4-0.8s-0.5-0.3-0.8-0.3
					c-0.3,0-0.6,0.1-0.9,0.2c-0.2,0.1-0.4,0.3-0.6,0.6s-0.3,0.5-0.3,0.8c-0.1,0.3-0.1,0.6-0.1,1V17h-2V6.6z M59.6,6.6v9.4
					c0,0.9-0.1,1.8-0.3,2.5c-0.2,0.8-0.5,1.4-0.8,1.9c-0.4,0.5-0.9,0.9-1.4,1.2c-0.6,0.3-1.3,0.4-2.1,0.4c-0.8,0-1.5-0.1-2.2-0.4
					c-0.7-0.2-1.3-0.7-1.9-1.3l1.2-2.1c0.4,0.5,0.8,0.8,1.3,1.1c0.4,0.3,1,0.4,1.5,0.4c0.5,0,0.9-0.1,1.2-0.3
					c0.3-0.2,0.6-0.4,0.8-0.7c0.2-0.3,0.3-0.7,0.4-1.1c0.1-0.4,0.1-0.9,0.1-1.4v-0.8h0c-0.3,0.5-0.7,0.9-1.2,1.1
					c-0.5,0.3-1,0.4-1.5,0.4c-0.6,0-1.2-0.1-1.7-0.4c-0.5-0.3-0.9-0.7-1.3-1.1c-0.4-0.5-0.6-1-0.8-1.7c-0.2-0.6-0.3-1.3-0.3-2.1
					c0-0.8,0.1-1.5,0.3-2.1c0.2-0.7,0.4-1.2,0.8-1.7s0.8-0.9,1.3-1.2c0.5-0.3,1.1-0.4,1.7-0.4c0.6,0,1.1,0.1,1.6,0.4
					c0.5,0.3,0.9,0.7,1.2,1.4h0V6.6H59.6z M55.3,8.7c-0.4,0-0.7,0.1-1,0.2c-0.3,0.2-0.5,0.4-0.8,0.6c-0.2,0.3-0.4,0.6-0.5,1
					s-0.2,0.8-0.2,1.3c0,0.4,0.1,0.8,0.2,1.2c0.1,0.4,0.3,0.7,0.5,1c0.2,0.3,0.5,0.5,0.8,0.6c0.3,0.2,0.6,0.2,1,0.2
					c0.4,0,0.7-0.1,1-0.2c0.3-0.2,0.6-0.4,0.8-0.6c0.2-0.3,0.4-0.6,0.5-1c0.1-0.4,0.2-0.8,0.2-1.2c0-0.9-0.2-1.6-0.6-2.2
					C56.6,9,56,8.7,55.3,8.7z"/>
			</g>
			<g>
				<path class="st1" d="M9.6,15.9c-0.5,0.3-1.7,0.6-3.2,0.6c-3.4,0-5.5-2.3-5.5-5.7c0-3.4,2.3-5.9,6-5.9C8,5,9.1,5.3,9.7,5.5
					L9.2,7.1C8.7,6.8,8,6.6,6.9,6.6c-2.6,0-3.9,1.9-3.9,4.2c0,2.6,1.7,4.2,3.9,4.2c1.1,0,1.9-0.3,2.5-0.6L9.6,15.9z"/>
				<path class="st1" d="M12,8.7c0-1.3,0-2.4-0.1-3.5h1.8l0.1,2.2h0.1c0.5-1.5,1.7-2.4,3.1-2.4c0.2,0,0.4,0,0.6,0.1v1.9
					c-0.2,0-0.4-0.1-0.7-0.1c-1.4,0-2.4,1.1-2.7,2.6c0,0.3-0.1,0.6-0.1,0.9v5.9h-2V8.7z"/>
				<path class="st1" d="M20.8,5.2l2.4,6.6c0.3,0.7,0.5,1.6,0.7,2.3h0c0.2-0.7,0.4-1.5,0.7-2.3l2.2-6.5h2.1l-3,7.9
					c-1.4,3.8-2.4,5.8-3.8,7c-1,0.9-2,1.2-2.5,1.3l-0.5-1.7c0.5-0.2,1.2-0.5,1.8-1c0.6-0.4,1.2-1.2,1.7-2.3c0.1-0.2,0.2-0.4,0.2-0.5
					s0-0.3-0.1-0.5L18.6,5.2H20.8z"/>
				<path class="st1" d="M33.2,2.1c0,0.7-0.5,1.2-1.3,1.2c-0.7,0-1.2-0.6-1.2-1.2c0-0.7,0.5-1.3,1.3-1.3C32.7,0.8,33.2,1.4,33.2,2.1
					z M30.9,16.3V5.2h2v11.1H30.9z"/>
				<path class="st1" d="M36.3,8.2c0-1.1,0-2.1-0.1-3H38L38.1,7h0C38.7,6,40,4.9,41.8,4.9c1.5,0,3.9,0.9,3.9,4.7v6.6h-2V9.9
					c0-1.8-0.7-3.3-2.6-3.3c-1.3,0-2.4,0.9-2.7,2.1c-0.1,0.3-0.1,0.6-0.1,0.9v6.7h-2V8.2z"/>
				<path class="st1" d="M58.6,5.2c0,0.8-0.1,1.7-0.1,3.1v6.5c0,2.6-0.5,4.1-1.6,5.1c-1.1,1-2.6,1.3-4,1.3c-1.3,0-2.8-0.3-3.7-0.9
					l0.5-1.5c0.7,0.5,1.9,0.9,3.3,0.9c2.1,0,3.6-1.1,3.6-3.9v-1.2h0c-0.6,1-1.8,1.9-3.5,1.9c-2.8,0-4.7-2.3-4.7-5.4
					c0-3.8,2.5-5.9,5-5.9c1.9,0,3,1,3.5,1.9h0l0.1-1.7H58.6z M56.6,9.6c0-0.3,0-0.6-0.1-0.9c-0.4-1.2-1.4-2.1-2.8-2.1
					c-1.9,0-3.3,1.6-3.3,4.2c0,2.2,1.1,4,3.3,4c1.2,0,2.4-0.8,2.8-2.1c0.1-0.3,0.2-0.7,0.2-1.1V9.6z"/>
			</g>
		</g>
	</g>
</g>
</svg>
