<?xml version="1.0" encoding="UTF-8"?>
<svg width="375px" height="667px" viewBox="0 0 375 667" version="1.1" xmlns="http://www.w3.org/2000/svg" xmlns:xlink="http://www.w3.org/1999/xlink">
    <!-- Generator: Sketch 43.2 (39069) - http://www.bohemiancoding.com/sketch -->
    <title>screen--recent-colors</title>
    <desc>Created with Sketch.</desc>
    <defs>
        <linearGradient x1="50%" y1="0%" x2="67.0043894%" y2="100%" id="linearGradient-1">
            <stop stop-color="#101B46" offset="0%"></stop>
            <stop stop-color="#163B72" offset="100%"></stop>
        </linearGradient>
        <filter x="-20.3%" y="-21.7%" width="140.6%" height="143.4%" filterUnits="objectBoundingBox" id="filter-2">
            <feGaussianBlur stdDeviation="2.95758929" in="SourceGraphic"></feGaussianBlur>
        </filter>
        <filter x="-20.3%" y="-21.7%" width="140.6%" height="143.4%" filterUnits="objectBoundingBox" id="filter-3">
            <feGaussianBlur stdDeviation="2.95758929" in="SourceGraphic"></feGaussianBlur>
        </filter>
        <filter x="-20.3%" y="-21.7%" width="140.6%" height="143.4%" filterUnits="objectBoundingBox" id="filter-4">
            <feGaussianBlur stdDeviation="2.95758929" in="SourceGraphic"></feGaussianBlur>
        </filter>
        <filter x="-20.3%" y="-21.7%" width="140.6%" height="143.4%" filterUnits="objectBoundingBox" id="filter-5">
            <feGaussianBlur stdDeviation="2.95758929" in="SourceGraphic"></feGaussianBlur>
        </filter>
        <filter x="-20.3%" y="-21.7%" width="140.6%" height="143.4%" filterUnits="objectBoundingBox" id="filter-6">
            <feGaussianBlur stdDeviation="2.95758929" in="SourceGraphic"></feGaussianBlur>
        </filter>
        <filter x="-20.3%" y="-21.7%" width="140.6%" height="143.4%" filterUnits="objectBoundingBox" id="filter-7">
            <feGaussianBlur stdDeviation="2.95758929" in="SourceGraphic"></feGaussianBlur>
        </filter>
        <filter x="-20.3%" y="-21.7%" width="140.6%" height="143.4%" filterUnits="objectBoundingBox" id="filter-8">
            <feGaussianBlur stdDeviation="2.95758929" in="SourceGraphic"></feGaussianBlur>
        </filter>
        <filter x="-29.5%" y="-31.5%" width="159.1%" height="163.1%" filterUnits="objectBoundingBox" id="filter-9">
            <feGaussianBlur stdDeviation="4.296875" in="SourceGraphic"></feGaussianBlur>
        </filter>
    </defs>
    <g id="Page-1" stroke="none" stroke-width="1" fill="none" fill-rule="evenodd">
        <g id="screen--recent-colors">
            <rect id="Rectangle-3" fill="url(#linearGradient-1)" x="0" y="0" width="375" height="667"></rect>
            <g id="Group-Copy" transform="translate(48.000000, 432.000000)">
                <path d="M4.22769903,22.2469742 C4.06540231,21.264756 3.98095238,20.2560178 3.98095238,19.2274112 C3.98095238,9.14474539 12.0952583,0.971129791 22.1047619,0.971129791 C32.1142655,0.971129791 40.2285714,9.14474539 40.2285714,19.2274112 C40.2285714,20.624926 40.0726831,21.9857651 39.777467,23.2932469 C39.7836987,23.3962259 39.7748866,23.5002226 39.7504021,23.6051684 C39.6343114,24.1027595 39.5319017,24.593332 39.4415878,25.0764697 C40.8761805,25.1048571 44.3203908,24.4667756 43.7721259,26.1541615 C43.2720515,27.6932324 40.8171949,29.0824587 38.864624,29.9484642 C38.4150901,37.8553221 40.1955689,42.6707121 33.9782039,41.7099279 C26.2343306,40.5132487 5.56432002,43.1137073 4.50325832,39.9765889 C3.6903626,37.5731943 5.39470969,34.2283237 5.26214962,29.0481305 C5.23053881,29.0519475 5.20357265,29.0454316 5.18199634,29.0277318 C3.27583237,27.4640399 0.174009418,24.49588 0.174009418,22.2790781 C0.174009418,20.6226352 2.50182827,21.5714723 4.22769903,22.2469742 Z" id="Combined-Shape" fill="#B58EFF" filter="url(#filter-2)"></path>
                <path d="M4.22769903,21.4027531 C4.06540231,20.4205349 3.98095238,19.4117967 3.98095238,18.3831901 C3.98095238,8.30052428 12.0952583,0.126908685 22.1047619,0.126908685 C32.1142655,0.126908685 40.2285714,8.30052428 40.2285714,18.3831901 C40.2285714,19.7807049 40.0726831,21.141544 39.777467,22.4490258 C39.7836987,22.5520048 39.7748866,22.6560015 39.7504021,22.7609473 C39.6343114,23.2585384 39.5319017,23.7491109 39.4415878,24.2322486 C40.8761805,24.260636 44.3203908,23.6225545 43.7721259,25.3099403 C43.2720515,26.8490113 40.8171949,28.2382376 38.864624,29.1042431 C38.4150901,37.011101 40.1955689,41.826491 33.9782039,40.8657067 C26.2343306,39.6690276 5.56432002,42.2694862 4.50325832,39.1323678 C3.6903626,36.7289732 5.39470969,33.3841025 5.26214962,28.2039094 C5.23053881,28.2077264 5.20357265,28.2012105 5.18199634,28.1835107 C3.27583237,26.6198188 0.174009418,23.6516589 0.174009418,21.434857 C0.174009418,19.7784141 2.50182827,20.7272512 4.22769903,21.4027531 Z" id="Combined-Shape-Copy" fill="#CCB1FF"></path>
                <ellipse id="Oval-4" fill="#896FB8" transform="translate(14.949545, 18.811931) rotate(1.000000) translate(-14.949545, -18.811931) " cx="14.9495453" cy="18.8119313" rx="1.09172932" ry="1.69751986"></ellipse>
                <ellipse id="Oval-4-Copy" fill="#896FB8" transform="translate(30.495184, 18.847489) scale(-1, 1) rotate(-8.000000) translate(-30.495184, -18.847489) " cx="30.4951843" cy="18.8474889" rx="1.09172932" ry="1.69751986"></ellipse>
                <path d="M31.0976158,25.1462738 C26.906914,23.2000865 22.4772138,28.6908483 15.3029982,25.1462738 C8.52308142,25.1462738 10.4644495,34.1735751 15.3029982,36.0253545 C20.1415468,37.8771339 32.6206441,38.0962505 31.0976158,34.7995683 C29.5745874,31.5028861 34.8042228,26.8676446 31.0976158,25.1462738 Z" id="Path-9" fill="#AC95D6"></path>
            </g>
            <g id="Group-Copy-5" transform="translate(48.000000, 506.000000)">
                <path d="M4.22769903,22.2469742 C4.06540231,21.264756 3.98095238,20.2560178 3.98095238,19.2274112 C3.98095238,9.14474539 12.0952583,0.971129791 22.1047619,0.971129791 C32.1142655,0.971129791 40.2285714,9.14474539 40.2285714,19.2274112 C40.2285714,20.624926 40.0726831,21.9857651 39.777467,23.2932469 C39.7836987,23.3962259 39.7748866,23.5002226 39.7504021,23.6051684 C39.6343114,24.1027595 39.5319017,24.593332 39.4415878,25.0764697 C40.8761805,25.1048571 44.3203908,24.4667756 43.7721259,26.1541615 C43.2720515,27.6932324 40.8171949,29.0824587 38.864624,29.9484642 C38.4150901,37.8553221 40.1955689,42.6707121 33.9782039,41.7099279 C26.2343306,40.5132487 5.56432002,43.1137073 4.50325832,39.9765889 C3.6903626,37.5731943 5.39470969,34.2283237 5.26214962,29.0481305 C5.23053881,29.0519475 5.20357265,29.0454316 5.18199634,29.0277318 C3.27583237,27.4640399 0.174009418,24.49588 0.174009418,22.2790781 C0.174009418,20.6226352 2.50182827,21.5714723 4.22769903,22.2469742 Z" id="Combined-Shape" fill="#FFB0DF" filter="url(#filter-3)"></path>
                <path d="M4.22769903,21.4027531 C4.06540231,20.4205349 3.98095238,19.4117967 3.98095238,18.3831901 C3.98095238,8.30052428 12.0952583,0.126908685 22.1047619,0.126908685 C32.1142655,0.126908685 40.2285714,8.30052428 40.2285714,18.3831901 C40.2285714,19.7807049 40.0726831,21.141544 39.777467,22.4490258 C39.7836987,22.5520048 39.7748866,22.6560015 39.7504021,22.7609473 C39.6343114,23.2585384 39.5319017,23.7491109 39.4415878,24.2322486 C40.8761805,24.260636 44.3203908,23.6225545 43.7721259,25.3099403 C43.2720515,26.8490113 40.8171949,28.2382376 38.864624,29.1042431 C38.4150901,37.011101 40.1955689,41.826491 33.9782039,40.8657067 C26.2343306,39.6690276 5.56432002,42.2694862 4.50325832,39.1323678 C3.6903626,36.7289732 5.39470969,33.3841025 5.26214962,28.2039094 C5.23053881,28.2077264 5.20357265,28.2012105 5.18199634,28.1835107 C3.27583237,26.6198188 0.174009418,23.6516589 0.174009418,21.434857 C0.174009418,19.7784141 2.50182827,20.7272512 4.22769903,21.4027531 Z" id="Combined-Shape-Copy" fill="#FFB1E0"></path>
                <ellipse id="Oval-4" fill="#B4779C" transform="translate(14.949545, 18.811931) rotate(1.000000) translate(-14.949545, -18.811931) " cx="14.9495453" cy="18.8119313" rx="1.09172932" ry="1.69751986"></ellipse>
                <ellipse id="Oval-4-Copy" fill="#B4779C" transform="translate(30.495184, 18.847489) scale(-1, 1) rotate(-8.000000) translate(-30.495184, -18.847489) " cx="30.4951843" cy="18.8474889" rx="1.09172932" ry="1.69751986"></ellipse>
                <path d="M31.0976158,25.1462738 C26.906914,23.2000865 22.4772138,28.6908483 15.3029982,25.1462738 C8.52308142,25.1462738 10.4644495,34.1735751 15.3029982,36.0253545 C20.1415468,37.8771339 32.6206441,38.0962505 31.0976158,34.7995683 C29.5745874,31.5028861 34.8042228,26.8676446 31.0976158,25.1462738 Z" id="Path-9" fill="#B4779C"></path>
            </g>
            <g id="Group-Copy-2" transform="translate(125.000000, 432.000000)">
                <path d="M4.22769903,22.2469742 C4.06540231,21.264756 3.98095238,20.2560178 3.98095238,19.2274112 C3.98095238,9.14474539 12.0952583,0.971129791 22.1047619,0.971129791 C32.1142655,0.971129791 40.2285714,9.14474539 40.2285714,19.2274112 C40.2285714,20.624926 40.0726831,21.9857651 39.777467,23.2932469 C39.7836987,23.3962259 39.7748866,23.5002226 39.7504021,23.6051684 C39.6343114,24.1027595 39.5319017,24.593332 39.4415878,25.0764697 C40.8761805,25.1048571 44.3203908,24.4667756 43.7721259,26.1541615 C43.2720515,27.6932324 40.8171949,29.0824587 38.864624,29.9484642 C38.4150901,37.8553221 40.1955689,42.6707121 33.9782039,41.7099279 C26.2343306,40.5132487 5.56432002,43.1137073 4.50325832,39.9765889 C3.6903626,37.5731943 5.39470969,34.2283237 5.26214962,29.0481305 C5.23053881,29.0519475 5.20357265,29.0454316 5.18199634,29.0277318 C3.27583237,27.4640399 0.174009418,24.49588 0.174009418,22.2790781 C0.174009418,20.6226352 2.50182827,21.5714723 4.22769903,22.2469742 Z" id="Combined-Shape" fill="#8AA2BC" filter="url(#filter-4)"></path>
                <path d="M4.22769903,21.4027531 C4.06540231,20.4205349 3.98095238,19.4117967 3.98095238,18.3831901 C3.98095238,8.30052428 12.0952583,0.126908685 22.1047619,0.126908685 C32.1142655,0.126908685 40.2285714,8.30052428 40.2285714,18.3831901 C40.2285714,19.7807049 40.0726831,21.141544 39.777467,22.4490258 C39.7836987,22.5520048 39.7748866,22.6560015 39.7504021,22.7609473 C39.6343114,23.2585384 39.5319017,23.7491109 39.4415878,24.2322486 C40.8761805,24.260636 44.3203908,23.6225545 43.7721259,25.3099403 C43.2720515,26.8490113 40.8171949,28.2382376 38.864624,29.1042431 C38.4150901,37.011101 40.1955689,41.826491 33.9782039,40.8657067 C26.2343306,39.6690276 5.56432002,42.2694862 4.50325832,39.1323678 C3.6903626,36.7289732 5.39470969,33.3841025 5.26214962,28.2039094 C5.23053881,28.2077264 5.20357265,28.2012105 5.18199634,28.1835107 C3.27583237,26.6198188 0.174009418,23.6516589 0.174009418,21.434857 C0.174009418,19.7784141 2.50182827,20.7272512 4.22769903,21.4027531 Z" id="Combined-Shape-Copy" fill="#B1D7FF"></path>
                <ellipse id="Oval-4" fill-opacity="0.465070199" fill="#4A4A4A" transform="translate(14.949545, 18.811931) rotate(1.000000) translate(-14.949545, -18.811931) " cx="14.9495453" cy="18.8119313" rx="1.09172932" ry="1.69751986"></ellipse>
                <ellipse id="Oval-4-Copy" fill-opacity="0.465070199" fill="#4A4A4A" transform="translate(30.495184, 18.847489) scale(-1, 1) rotate(-8.000000) translate(-30.495184, -18.847489) " cx="30.4951843" cy="18.8474889" rx="1.09172932" ry="1.69751986"></ellipse>
                <path d="M31.0976158,25.1462738 C26.906914,23.2000865 22.4772138,28.6908483 15.3029982,25.1462738 C8.52308142,25.1462738 10.4644495,34.1735751 15.3029982,36.0253545 C20.1415468,37.8771339 32.6206441,38.0962505 31.0976158,34.7995683 C29.5745874,31.5028861 34.8042228,26.8676446 31.0976158,25.1462738 Z" id="Path-9" fill-opacity="0.373924366" fill="#4A4A4A"></path>
            </g>
            <g id="Group-Copy-3" transform="translate(202.000000, 432.000000)">
                <path d="M4.22769903,22.2469742 C4.06540231,21.264756 3.98095238,20.2560178 3.98095238,19.2274112 C3.98095238,9.14474539 12.0952583,0.971129791 22.1047619,0.971129791 C32.1142655,0.971129791 40.2285714,9.14474539 40.2285714,19.2274112 C40.2285714,20.624926 40.0726831,21.9857651 39.777467,23.2932469 C39.7836987,23.3962259 39.7748866,23.5002226 39.7504021,23.6051684 C39.6343114,24.1027595 39.5319017,24.593332 39.4415878,25.0764697 C40.8761805,25.1048571 44.3203908,24.4667756 43.7721259,26.1541615 C43.2720515,27.6932324 40.8171949,29.0824587 38.864624,29.9484642 C38.4150901,37.8553221 40.1955689,42.6707121 33.9782039,41.7099279 C26.2343306,40.5132487 5.56432002,43.1137073 4.50325832,39.9765889 C3.6903626,37.5731943 5.39470969,34.2283237 5.26214962,29.0481305 C5.23053881,29.0519475 5.20357265,29.0454316 5.18199634,29.0277318 C3.27583237,27.4640399 0.174009418,24.49588 0.174009418,22.2790781 C0.174009418,20.6226352 2.50182827,21.5714723 4.22769903,22.2469742 Z" id="Combined-Shape" fill="#43FFD4" filter="url(#filter-5)"></path>
                <path d="M4.22769903,21.4027531 C4.06540231,20.4205349 3.98095238,19.4117967 3.98095238,18.3831901 C3.98095238,8.30052428 12.0952583,0.126908685 22.1047619,0.126908685 C32.1142655,0.126908685 40.2285714,8.30052428 40.2285714,18.3831901 C40.2285714,19.7807049 40.0726831,21.141544 39.777467,22.4490258 C39.7836987,22.5520048 39.7748866,22.6560015 39.7504021,22.7609473 C39.6343114,23.2585384 39.5319017,23.7491109 39.4415878,24.2322486 C40.8761805,24.260636 44.3203908,23.6225545 43.7721259,25.3099403 C43.2720515,26.8490113 40.8171949,28.2382376 38.864624,29.1042431 C38.4150901,37.011101 40.1955689,41.826491 33.9782039,40.8657067 C26.2343306,39.6690276 5.56432002,42.2694862 4.50325832,39.1323678 C3.6903626,36.7289732 5.39470969,33.3841025 5.26214962,28.2039094 C5.23053881,28.2077264 5.20357265,28.2012105 5.18199634,28.1835107 C3.27583237,26.6198188 0.174009418,23.6516589 0.174009418,21.434857 C0.174009418,19.7784141 2.50182827,20.7272512 4.22769903,21.4027531 Z" id="Combined-Shape-Copy" fill="#7BEDD4"></path>
                <ellipse id="Oval-4" fill-opacity="0.426800272" fill="#4A4A4A" transform="translate(14.949545, 18.811931) rotate(1.000000) translate(-14.949545, -18.811931) " cx="14.9495453" cy="18.8119313" rx="1.09172932" ry="1.69751986"></ellipse>
                <ellipse id="Oval-4-Copy" fill-opacity="0.426800272" fill="#4A4A4A" transform="translate(30.495184, 18.847489) scale(-1, 1) rotate(-8.000000) translate(-30.495184, -18.847489) " cx="30.4951843" cy="18.8474889" rx="1.09172932" ry="1.69751986"></ellipse>
                <path d="M31.0976158,25.1462738 C26.906914,23.2000865 22.4772138,28.6908483 15.3029982,25.1462738 C8.52308142,25.1462738 10.4644495,34.1735751 15.3029982,36.0253545 C20.1415468,37.8771339 32.6206441,38.0962505 31.0976158,34.7995683 C29.5745874,31.5028861 34.8042228,26.8676446 31.0976158,25.1462738 Z" id="Path-9" fill-opacity="0.303866621" fill="#4A4A4A"></path>
            </g>
            <g id="Group-Copy-7" transform="translate(202.000000, 506.000000)">
                <path d="M4.22769903,22.2469742 C4.06540231,21.264756 3.98095238,20.2560178 3.98095238,19.2274112 C3.98095238,9.14474539 12.0952583,0.971129791 22.1047619,0.971129791 C32.1142655,0.971129791 40.2285714,9.14474539 40.2285714,19.2274112 C40.2285714,20.624926 40.0726831,21.9857651 39.777467,23.2932469 C39.7836987,23.3962259 39.7748866,23.5002226 39.7504021,23.6051684 C39.6343114,24.1027595 39.5319017,24.593332 39.4415878,25.0764697 C40.8761805,25.1048571 44.3203908,24.4667756 43.7721259,26.1541615 C43.2720515,27.6932324 40.8171949,29.0824587 38.864624,29.9484642 C38.4150901,37.8553221 40.1955689,42.6707121 33.9782039,41.7099279 C26.2343306,40.5132487 5.56432002,43.1137073 4.50325832,39.9765889 C3.6903626,37.5731943 5.39470969,34.2283237 5.26214962,29.0481305 C5.23053881,29.0519475 5.20357265,29.0454316 5.18199634,29.0277318 C3.27583237,27.4640399 0.174009418,24.49588 0.174009418,22.2790781 C0.174009418,20.6226352 2.50182827,21.5714723 4.22769903,22.2469742 Z" id="Combined-Shape" fill="#F99AFC" filter="url(#filter-6)"></path>
                <path d="M4.22769903,21.4027531 C4.06540231,20.4205349 3.98095238,19.4117967 3.98095238,18.3831901 C3.98095238,8.30052428 12.0952583,0.126908685 22.1047619,0.126908685 C32.1142655,0.126908685 40.2285714,8.30052428 40.2285714,18.3831901 C40.2285714,19.7807049 40.0726831,21.141544 39.777467,22.4490258 C39.7836987,22.5520048 39.7748866,22.6560015 39.7504021,22.7609473 C39.6343114,23.2585384 39.5319017,23.7491109 39.4415878,24.2322486 C40.8761805,24.260636 44.3203908,23.6225545 43.7721259,25.3099403 C43.2720515,26.8490113 40.8171949,28.2382376 38.864624,29.1042431 C38.4150901,37.011101 40.1955689,41.826491 33.9782039,40.8657067 C26.2343306,39.6690276 5.56432002,42.2694862 4.50325832,39.1323678 C3.6903626,36.7289732 5.39470969,33.3841025 5.26214962,28.2039094 C5.23053881,28.2077264 5.20357265,28.2012105 5.18199634,28.1835107 C3.27583237,26.6198188 0.174009418,23.6516589 0.174009418,21.434857 C0.174009418,19.7784141 2.50182827,20.7272512 4.22769903,21.4027531 Z" id="Combined-Shape-Copy" fill="#F99AFC"></path>
                <ellipse id="Oval-4" fill="#AA69AD" transform="translate(14.949545, 18.811931) rotate(1.000000) translate(-14.949545, -18.811931) " cx="14.9495453" cy="18.8119313" rx="1.09172932" ry="1.69751986"></ellipse>
                <ellipse id="Oval-4-Copy" fill="#AA69AD" transform="translate(30.495184, 18.847489) scale(-1, 1) rotate(-8.000000) translate(-30.495184, -18.847489) " cx="30.4951843" cy="18.8474889" rx="1.09172932" ry="1.69751986"></ellipse>
                <path d="M31.0976158,25.1462738 C26.906914,23.2000865 22.4772138,28.6908483 15.3029982,25.1462738 C8.52308142,25.1462738 10.4644495,34.1735751 15.3029982,36.0253545 C20.1415468,37.8771339 32.6206441,38.0962505 31.0976158,34.7995683 C29.5745874,31.5028861 34.8042228,26.8676446 31.0976158,25.1462738 Z" id="Path-9" fill="#AA69AD"></path>
            </g>
            <g id="Group-Copy-9" transform="translate(125.000000, 506.000000)">
                <path d="M4.22769903,22.2469742 C4.06540231,21.264756 3.98095238,20.2560178 3.98095238,19.2274112 C3.98095238,9.14474539 12.0952583,0.971129791 22.1047619,0.971129791 C32.1142655,0.971129791 40.2285714,9.14474539 40.2285714,19.2274112 C40.2285714,20.624926 40.0726831,21.9857651 39.777467,23.2932469 C39.7836987,23.3962259 39.7748866,23.5002226 39.7504021,23.6051684 C39.6343114,24.1027595 39.5319017,24.593332 39.4415878,25.0764697 C40.8761805,25.1048571 44.3203908,24.4667756 43.7721259,26.1541615 C43.2720515,27.6932324 40.8171949,29.0824587 38.864624,29.9484642 C38.4150901,37.8553221 40.1955689,42.6707121 33.9782039,41.7099279 C26.2343306,40.5132487 5.56432002,43.1137073 4.50325832,39.9765889 C3.6903626,37.5731943 5.39470969,34.2283237 5.26214962,29.0481305 C5.23053881,29.0519475 5.20357265,29.0454316 5.18199634,29.0277318 C3.27583237,27.4640399 0.174009418,24.49588 0.174009418,22.2790781 C0.174009418,20.6226352 2.50182827,21.5714723 4.22769903,22.2469742 Z" id="Combined-Shape" fill="#FFB0B0" filter="url(#filter-7)"></path>
                <path d="M4.22769903,21.4027531 C4.06540231,20.4205349 3.98095238,19.4117967 3.98095238,18.3831901 C3.98095238,8.30052428 12.0952583,0.126908685 22.1047619,0.126908685 C32.1142655,0.126908685 40.2285714,8.30052428 40.2285714,18.3831901 C40.2285714,19.7807049 40.0726831,21.141544 39.777467,22.4490258 C39.7836987,22.5520048 39.7748866,22.6560015 39.7504021,22.7609473 C39.6343114,23.2585384 39.5319017,23.7491109 39.4415878,24.2322486 C40.8761805,24.260636 44.3203908,23.6225545 43.7721259,25.3099403 C43.2720515,26.8490113 40.8171949,28.2382376 38.864624,29.1042431 C38.4150901,37.011101 40.1955689,41.826491 33.9782039,40.8657067 C26.2343306,39.6690276 5.56432002,42.2694862 4.50325832,39.1323678 C3.6903626,36.7289732 5.39470969,33.3841025 5.26214962,28.2039094 C5.23053881,28.2077264 5.20357265,28.2012105 5.18199634,28.1835107 C3.27583237,26.6198188 0.174009418,23.6516589 0.174009418,21.434857 C0.174009418,19.7784141 2.50182827,20.7272512 4.22769903,21.4027531 Z" id="Combined-Shape-Copy" fill="#FFB1B1"></path>
                <ellipse id="Oval-4" fill="#BD8484" transform="translate(14.949545, 18.811931) rotate(1.000000) translate(-14.949545, -18.811931) " cx="14.9495453" cy="18.8119313" rx="1.09172932" ry="1.69751986"></ellipse>
                <ellipse id="Oval-4-Copy" fill="#BD8484" transform="translate(30.495184, 18.847489) scale(-1, 1) rotate(-8.000000) translate(-30.495184, -18.847489) " cx="30.4951843" cy="18.8474889" rx="1.09172932" ry="1.69751986"></ellipse>
                <path d="M31.0976158,25.1462738 C26.906914,23.2000865 22.4772138,28.6908483 15.3029982,25.1462738 C8.52308142,25.1462738 10.4644495,34.1735751 15.3029982,36.0253545 C20.1415468,37.8771339 32.6206441,38.0962505 31.0976158,34.7995683 C29.5745874,31.5028861 34.8042228,26.8676446 31.0976158,25.1462738 Z" id="Path-9" fill="#BD8484"></path>
            </g>
            <g id="Group-Copy-4" transform="translate(279.000000, 432.000000)">
                <path d="M4.22769903,22.2469742 C4.06540231,21.264756 3.98095238,20.2560178 3.98095238,19.2274112 C3.98095238,9.14474539 12.0952583,0.971129791 22.1047619,0.971129791 C32.1142655,0.971129791 40.2285714,9.14474539 40.2285714,19.2274112 C40.2285714,20.624926 40.0726831,21.9857651 39.777467,23.2932469 C39.7836987,23.3962259 39.7748866,23.5002226 39.7504021,23.6051684 C39.6343114,24.1027595 39.5319017,24.593332 39.4415878,25.0764697 C40.8761805,25.1048571 44.3203908,24.4667756 43.7721259,26.1541615 C43.2720515,27.6932324 40.8171949,29.0824587 38.864624,29.9484642 C38.4150901,37.8553221 40.1955689,42.6707121 33.9782039,41.7099279 C26.2343306,40.5132487 5.56432002,43.1137073 4.50325832,39.9765889 C3.6903626,37.5731943 5.39470969,34.2283237 5.26214962,29.0481305 C5.23053881,29.0519475 5.20357265,29.0454316 5.18199634,29.0277318 C3.27583237,27.4640399 0.174009418,24.49588 0.174009418,22.2790781 C0.174009418,20.6226352 2.50182827,21.5714723 4.22769903,22.2469742 Z" id="Combined-Shape" fill="#FFDFAB" filter="url(#filter-8)"></path>
                <path d="M4.22769903,21.4027531 C4.06540231,20.4205349 3.98095238,19.4117967 3.98095238,18.3831901 C3.98095238,8.30052428 12.0952583,0.126908685 22.1047619,0.126908685 C32.1142655,0.126908685 40.2285714,8.30052428 40.2285714,18.3831901 C40.2285714,19.7807049 40.0726831,21.141544 39.777467,22.4490258 C39.7836987,22.5520048 39.7748866,22.6560015 39.7504021,22.7609473 C39.6343114,23.2585384 39.5319017,23.7491109 39.4415878,24.2322486 C40.8761805,24.260636 44.3203908,23.6225545 43.7721259,25.3099403 C43.2720515,26.8490113 40.8171949,28.2382376 38.864624,29.1042431 C38.4150901,37.011101 40.1955689,41.826491 33.9782039,40.8657067 C26.2343306,39.6690276 5.56432002,42.2694862 4.50325832,39.1323678 C3.6903626,36.7289732 5.39470969,33.3841025 5.26214962,28.2039094 C5.23053881,28.2077264 5.20357265,28.2012105 5.18199634,28.1835107 C3.27583237,26.6198188 0.174009418,23.6516589 0.174009418,21.434857 C0.174009418,19.7784141 2.50182827,20.7272512 4.22769903,21.4027531 Z" id="Combined-Shape-Copy" fill="#FFE0AC"></path>
                <ellipse id="Oval-4" fill="#CAB38E" transform="translate(14.949545, 18.811931) rotate(1.000000) translate(-14.949545, -18.811931) " cx="14.9495453" cy="18.8119313" rx="1.09172932" ry="1.69751986"></ellipse>
                <ellipse id="Oval-4-Copy" fill="#CAB38E" transform="translate(30.495184, 18.847489) scale(-1, 1) rotate(-8.000000) translate(-30.495184, -18.847489) " cx="30.4951843" cy="18.8474889" rx="1.09172932" ry="1.69751986"></ellipse>
                <path d="M31.0976158,25.1462738 C26.906914,23.2000865 22.4772138,28.6908483 15.3029982,25.1462738 C8.52308142,25.1462738 10.4644495,34.1735751 15.3029982,36.0253545 C20.1415468,37.8771339 32.6206441,38.0962505 31.0976158,34.7995683 C29.5745874,31.5028861 34.8042228,26.8676446 31.0976158,25.1462738 Z" id="Path-9" fill-opacity="0.289232337" fill="#4A4A4A"></path>
            </g>
            <g id="Group-Copy-8" transform="translate(279.000000, 506.000000)">
                <path d="M4.22769903,22.2469742 C4.06540231,21.264756 3.98095238,20.2560178 3.98095238,19.2274112 C3.98095238,9.14474539 12.0952583,0.971129791 22.1047619,0.971129791 C32.1142655,0.971129791 40.2285714,9.14474539 40.2285714,19.2274112 C40.2285714,20.624926 40.0726831,21.9857651 39.777467,23.2932469 C39.7836987,23.3962259 39.7748866,23.5002226 39.7504021,23.6051684 C39.6343114,24.1027595 39.5319017,24.593332 39.4415878,25.0764697 C40.8761805,25.1048571 44.3203908,24.4667756 43.7721259,26.1541615 C43.2720515,27.6932324 40.8171949,29.0824587 38.864624,29.9484642 C38.4150901,37.8553221 40.1955689,42.6707121 33.9782039,41.7099279 C26.2343306,40.5132487 5.56432002,43.1137073 4.50325832,39.9765889 C3.6903626,37.5731943 5.39470969,34.2283237 5.26214962,29.0481305 C5.23053881,29.0519475 5.20357265,29.0454316 5.18199634,29.0277318 C3.27583237,27.4640399 0.174009418,24.49588 0.174009418,22.2790781 C0.174009418,20.6226352 2.50182827,21.5714723 4.22769903,22.2469742 Z" id="Combined-Shape" fill="#E3E171" filter="url(#filter-9)"></path>
                <path d="M4.22769903,21.4027531 C4.06540231,20.4205349 3.98095238,19.4117967 3.98095238,18.3831901 C3.98095238,8.30052428 12.0952583,0.126908685 22.1047619,0.126908685 C32.1142655,0.126908685 40.2285714,8.30052428 40.2285714,18.3831901 C40.2285714,19.7807049 40.0726831,21.141544 39.777467,22.4490258 C39.7836987,22.5520048 39.7748866,22.6560015 39.7504021,22.7609473 C39.6343114,23.2585384 39.5319017,23.7491109 39.4415878,24.2322486 C40.8761805,24.260636 44.3203908,23.6225545 43.7721259,25.3099403 C43.2720515,26.8490113 40.8171949,28.2382376 38.864624,29.1042431 C38.4150901,37.011101 40.1955689,41.826491 33.9782039,40.8657067 C26.2343306,39.6690276 5.56432002,42.2694862 4.50325832,39.1323678 C3.6903626,36.7289732 5.39470969,33.3841025 5.26214962,28.2039094 C5.23053881,28.2077264 5.20357265,28.2012105 5.18199634,28.1835107 C3.27583237,26.6198188 0.174009418,23.6516589 0.174009418,21.434857 C0.174009418,19.7784141 2.50182827,20.7272512 4.22769903,21.4027531 Z" id="Combined-Shape-Copy" fill="#FFFFB1"></path>
                <ellipse id="Oval-4" fill-opacity="0.233837183" fill="#4A4A4A" transform="translate(14.949545, 18.811931) rotate(1.000000) translate(-14.949545, -18.811931) " cx="14.9495453" cy="18.8119313" rx="1.09172932" ry="1.69751986"></ellipse>
                <ellipse id="Oval-4-Copy" fill-opacity="0.233837183" fill="#4A4A4A" transform="translate(30.495184, 18.847489) scale(-1, 1) rotate(-8.000000) translate(-30.495184, -18.847489) " cx="30.4951843" cy="18.8474889" rx="1.09172932" ry="1.69751986"></ellipse>
                <path d="M31.0976158,25.1462738 C26.906914,23.2000865 22.4772138,28.6908483 15.3029982,25.1462738 C8.52308142,25.1462738 10.4644495,34.1735751 15.3029982,36.0253545 C20.1415468,37.8771339 32.6206441,38.0962505 31.0976158,34.7995683 C29.5745874,31.5028861 34.8042228,26.8676446 31.0976158,25.1462738 Z" id="Path-9" fill-opacity="0.233837183" fill="#4A4A4A"></path>
            </g>
            <rect id="Rectangle-2" fill="#334E86" x="38" y="358" width="111" height="35" rx="17.5"></rect>
            <text id="recent" font-family="Avenir-Heavy, Avenir" font-size="18" font-weight="600" fill="#FFFFFF">
                <tspan x="67.162" y="381">recent</tspan>
            </text>
        </g>
    </g>
</svg>