<?xml version="1.0" encoding="UTF-8"?>
<svg width="375px" height="1028px" viewBox="0 0 375 1028" version="1.1" xmlns="http://www.w3.org/2000/svg" xmlns:xlink="http://www.w3.org/1999/xlink">
    <!-- Generator: Sketch 43.2 (39069) - http://www.bohemiancoding.com/sketch -->
    <title>screen--color-picker</title>
    <desc>Created with Sketch.</desc>
    <defs>
        <linearGradient x1="50%" y1="0%" x2="67.0043894%" y2="100%" id="linearGradient-1">
            <stop stop-color="#101B46" offset="0%"></stop>
            <stop stop-color="#163B72" offset="100%"></stop>
        </linearGradient>
    </defs>
    <g id="Page-1" stroke="none" stroke-width="1" fill="none" fill-rule="evenodd">
        <g id="screen--color-picker">
            <rect id="Rectangle-3" fill="url(#linearGradient-1)" x="0" y="0" width="375" height="1028"></rect>
            <path d="M118.912656,829.09194 C118.912656,829.431715 118.915154,829.736509 118.920151,830.00633 C118.925147,830.276151 118.932642,830.525982 118.942636,830.75583 C118.952629,830.985678 118.965121,831.200532 118.980111,831.4004 C118.995101,831.600268 119.017586,831.800132 119.047566,832 L118.208126,832 C118.148165,831.660225 118.118186,831.285479 118.118186,830.87575 L118.088206,830.87575 C117.828378,831.325452 117.506096,831.655229 117.121351,831.86509 C116.736606,832.074951 116.249435,832.17988 115.659826,832.17988 C115.360024,832.17988 115.065224,832.142405 114.775416,832.067455 C114.485608,831.992505 114.225784,831.872586 113.995936,831.707695 C113.766088,831.542804 113.578715,831.330448 113.433811,831.07062 C113.288907,830.810792 113.216456,830.496005 113.216456,830.12625 C113.216456,829.596601 113.351364,829.176885 113.621186,828.86709 C113.891007,828.557295 114.223282,828.324952 114.618021,828.170055 C115.012759,828.015158 115.432475,827.915225 115.877181,827.870255 C116.321886,827.825285 116.714121,827.8028 117.053896,827.8028 L118.103196,827.8028 L118.103196,827.38308 C118.103196,826.783477 117.918321,826.353768 117.548566,826.09394 C117.178811,825.834112 116.714125,825.7042 116.154496,825.7042 C115.355025,825.7042 114.650502,825.964024 114.040906,826.48368 L113.516256,825.86909 C113.846037,825.549302 114.25576,825.306966 114.745436,825.142075 C115.235112,824.977184 115.704794,824.89474 116.154496,824.89474 C116.99394,824.89474 117.663487,825.092106 118.163156,825.486845 C118.662825,825.881584 118.912656,826.518652 118.912656,827.39807 L118.912656,829.09194 Z M117.113856,828.52232 C116.734107,828.52232 116.366856,828.547303 116.012091,828.59727 C115.657326,828.647237 115.337542,828.732179 115.052731,828.8521 C114.767919,828.972021 114.540573,829.131912 114.370686,829.33178 C114.200798,829.531648 114.115856,829.781479 114.115856,830.08128 C114.115856,830.291141 114.163324,830.478514 114.258261,830.643405 C114.353198,830.808296 114.475615,830.943204 114.625516,831.048135 C114.775417,831.153066 114.942803,831.233011 115.127681,831.287975 C115.312558,831.342939 115.499932,831.37042 115.689806,831.37042 C116.169488,831.37042 116.564221,831.300467 116.874016,831.16056 C117.183811,831.020653 117.431143,830.838276 117.616021,830.613425 C117.800898,830.388574 117.928312,830.133746 117.998266,829.848935 C118.068219,829.564124 118.103196,829.276818 118.103196,828.98701 L118.103196,828.52232 L117.113856,828.52232 Z M127.967016,830.78581 L127.937036,830.78581 C127.797128,831.025651 127.622247,831.233011 127.412386,831.407895 C127.202525,831.582779 126.975179,831.727681 126.730341,831.842605 C126.485503,831.957529 126.228177,832.042471 125.958356,832.097435 C125.688534,832.152399 125.423714,832.17988 125.163886,832.17988 C124.634236,832.17988 124.144568,832.089941 123.694866,831.91006 C123.245163,831.730179 122.860424,831.47785 122.540636,831.153065 C122.220847,830.82828 121.971017,830.443541 121.791136,829.998835 C121.611255,829.554129 121.521316,829.066959 121.521316,828.53731 C121.521316,828.007661 121.611255,827.520491 121.791136,827.075785 C121.971017,826.63108 122.220847,826.24634 122.540636,825.921555 C122.860424,825.59677 123.245163,825.344441 123.694866,825.16456 C124.144568,824.984679 124.634236,824.89474 125.163886,824.89474 C125.423714,824.89474 125.688534,824.922221 125.958356,824.977185 C126.228177,825.032149 126.485503,825.117091 126.730341,825.232015 C126.975179,825.346939 127.202525,825.491841 127.412386,825.666725 C127.622247,825.841609 127.797128,826.048969 127.937036,826.28881 L127.967016,826.28881 L127.967016,820.66756 L128.866416,820.66756 L128.866416,832 L127.967016,832 L127.967016,830.78581 Z M128.056956,828.53731 C128.056956,828.147568 127.982006,827.780317 127.832106,827.435545 C127.682205,827.090773 127.477344,826.790976 127.217516,826.536145 C126.957688,826.281314 126.652894,826.078951 126.303126,825.92905 C125.953357,825.779149 125.573614,825.7042 125.163886,825.7042 C124.744164,825.7042 124.364421,825.779149 124.024646,825.92905 C123.684871,826.078951 123.395067,826.281314 123.155226,826.536145 C122.915385,826.790976 122.733008,827.090773 122.608091,827.435545 C122.483173,827.780317 122.420716,828.147568 122.420716,828.53731 C122.420716,828.927052 122.483173,829.294303 122.608091,829.639075 C122.733008,829.983847 122.915385,830.283644 123.155226,830.538475 C123.395067,830.793306 123.684871,830.995669 124.024646,831.14557 C124.364421,831.295471 124.744164,831.37042 125.163886,831.37042 C125.573614,831.37042 125.953357,831.295471 126.303126,831.14557 C126.652894,830.995669 126.957688,830.793306 127.217516,830.538475 C127.477344,830.283644 127.682205,829.983847 127.832106,829.639075 C127.982006,829.294303 128.056956,828.927052 128.056956,828.53731 Z M132.734236,833.21419 C132.734236,833.573952 132.706754,833.898732 132.651791,834.18854 C132.596827,834.478348 132.494396,834.728179 132.344496,834.93804 C132.194595,835.147901 131.992232,835.310291 131.737401,835.425215 C131.482569,835.540139 131.155291,835.5976 130.755556,835.5976 C130.515714,835.5976 130.275877,835.55263 130.036036,835.46269 L130.170946,834.66822 C130.380807,834.748167 130.570678,834.78814 130.740566,834.78814 C130.980407,834.78814 131.172777,834.745669 131.317681,834.660725 C131.462585,834.575781 131.57251,834.465856 131.647461,834.330945 C131.722411,834.196034 131.772377,834.038641 131.797361,833.85876 C131.822344,833.678879 131.834836,833.489008 131.834836,833.28914 L131.834836,825.07462 L132.734236,825.07462 L132.734236,833.21419 Z M131.609986,822.33145 C131.609986,822.141576 131.674942,821.981684 131.804856,821.85177 C131.93477,821.721856 132.094661,821.6569 132.284536,821.6569 C132.47441,821.6569 132.634302,821.721856 132.764216,821.85177 C132.89413,821.981684 132.959086,822.141576 132.959086,822.33145 C132.959086,822.521324 132.89413,822.681216 132.764216,822.81113 C132.634302,822.941044 132.47441,823.006 132.284536,823.006 C132.094661,823.006 131.93477,822.941044 131.804856,822.81113 C131.674942,822.681216 131.609986,822.521324 131.609986,822.33145 Z M141.743626,830.0513 C141.743626,830.181214 141.748622,830.338607 141.758616,830.523485 C141.768609,830.708363 141.776104,830.895736 141.781101,831.08561 C141.786097,831.275484 141.793592,831.452864 141.803586,831.617755 C141.813579,831.782646 141.818576,831.91006 141.818576,832 L140.919176,832 C140.909182,831.740172 140.901687,831.490341 140.896691,831.2505 C140.891694,831.010659 140.879202,830.855764 140.859216,830.78581 L140.814246,830.78581 C140.634365,831.165559 140.334568,831.492837 139.914846,831.767655 C139.495123,832.042473 139.005455,832.17988 138.445826,832.17988 C137.906183,832.17988 137.463982,832.094938 137.119211,831.92505 C136.774439,831.755162 136.504622,831.532813 136.309751,831.257995 C136.11488,830.983177 135.982469,830.665892 135.912516,830.30613 C135.842562,829.946368 135.807586,829.576619 135.807586,829.19687 L135.807586,825.07462 L136.706986,825.07462 L136.706986,829.1519 C136.706986,829.431715 136.731969,829.70403 136.781936,829.968855 C136.831903,830.23368 136.919343,830.471019 137.044261,830.68088 C137.169178,830.890741 137.344059,831.058128 137.568911,831.183045 C137.793762,831.307962 138.086064,831.37042 138.445826,831.37042 C138.775607,831.37042 139.087896,831.312959 139.382701,831.198035 C139.677505,831.083111 139.932333,830.90823 140.147191,830.673385 C140.362048,830.438541 140.531933,830.14374 140.656851,829.788975 C140.781768,829.43421 140.844226,829.016992 140.844226,828.53731 L140.844226,825.07462 L141.743626,825.07462 L141.743626,830.0513 Z M144.831965,830.23118 C145.02184,830.600935 145.30165,830.883244 145.671405,831.078115 C146.041161,831.272986 146.430897,831.37042 146.840625,831.37042 C147.0305,831.37042 147.220371,831.34044 147.410245,831.28048 C147.60012,831.22052 147.770005,831.135577 147.919905,831.02565 C148.069806,830.915723 148.192223,830.783312 148.28716,830.628415 C148.382098,830.473518 148.429565,830.296138 148.429565,830.09627 C148.429565,829.776482 148.327135,829.536644 148.12227,829.37675 C147.917406,829.216856 147.665077,829.09194 147.365275,829.002 C147.065474,828.91206 146.735697,828.834612 146.375935,828.769655 C146.016174,828.704698 145.686397,828.604766 145.386595,828.469855 C145.086794,828.334944 144.834465,828.147571 144.6296,827.90773 C144.424736,827.667889 144.322306,827.328119 144.322306,826.88841 C144.322306,826.548635 144.392258,826.253835 144.532166,826.004 C144.672073,825.754166 144.854449,825.546806 145.0793,825.381915 C145.304152,825.217024 145.556481,825.094607 145.836295,825.01466 C146.11611,824.934713 146.400917,824.89474 146.690725,824.89474 C147.260348,824.89474 147.752515,824.999669 148.16724,825.20953 C148.581966,825.419391 148.904248,825.749168 149.134095,826.19887 L148.324635,826.67855 C148.154748,826.358762 147.942392,826.116426 147.68756,825.951535 C147.432729,825.786644 147.100454,825.7042 146.690725,825.7042 C146.530831,825.7042 146.363445,825.729183 146.18856,825.77915 C146.013676,825.829117 145.856283,825.89907 145.716375,825.98901 C145.576468,826.078951 145.459048,826.193873 145.36411,826.33378 C145.269173,826.473687 145.221705,826.633579 145.221705,826.81346 C145.221705,827.123255 145.324136,827.353099 145.529,827.503 C145.733865,827.652901 145.986194,827.770321 146.285995,827.855265 C146.585797,827.940209 146.915574,828.01266 147.275335,828.07262 C147.635097,828.13258 147.964874,828.230014 148.264675,828.364925 C148.564477,828.499836 148.816806,828.694704 149.02167,828.949535 C149.226535,829.204366 149.328965,829.566621 149.328965,830.03631 C149.328965,830.396072 149.261511,830.70836 149.1266,830.973185 C148.99169,831.23801 148.806815,831.460359 148.57197,831.64024 C148.337126,831.820121 148.069807,831.95503 147.770005,832.04497 C147.470204,832.13491 147.155417,832.17988 146.825635,832.17988 C146.226032,832.17988 145.678903,832.064958 145.18423,831.83511 C144.689558,831.605262 144.307317,831.250502 144.037496,830.77082 L144.831965,830.23118 Z M155.190455,825.88408 L153.211775,825.88408 L153.211775,830.39607 C153.211775,830.705865 153.296718,830.945702 153.466605,831.11559 C153.636493,831.285478 153.871334,831.37042 154.171135,831.37042 C154.341023,831.37042 154.513406,831.347935 154.68829,831.302965 C154.863175,831.257995 155.030561,831.200534 155.190455,831.13058 L155.265405,831.94004 C155.095518,832 154.90065,832.054963 154.680795,832.10493 C154.460941,832.154897 154.266073,832.17988 154.096185,832.17988 C153.776397,832.17988 153.501583,832.132412 153.271735,832.037475 C153.041888,831.942538 152.857013,831.815124 152.717105,831.65523 C152.577198,831.495336 152.474767,831.307963 152.40981,831.093105 C152.344853,830.878247 152.312375,830.645905 152.312375,830.39607 L152.312375,825.88408 L150.813375,825.88408 L150.813375,825.07462 L152.312375,825.07462 L152.312375,823.08095 L153.211775,823.08095 L153.211775,825.07462 L155.190455,825.07462 L155.190455,825.88408 Z M161.696915,820.66756 L162.596315,820.66756 L162.596315,826.28881 L162.626295,826.28881 C162.766203,826.048969 162.941084,825.841609 163.150945,825.666725 C163.360806,825.491841 163.588152,825.346939 163.83299,825.232015 C164.077828,825.117091 164.335154,825.032149 164.604975,824.977185 C164.874797,824.922221 165.139617,824.89474 165.399445,824.89474 C165.929095,824.89474 166.416265,824.984679 166.86097,825.16456 C167.305676,825.344441 167.690415,825.59677 168.0152,825.921555 C168.339985,826.24634 168.592314,826.63108 168.772195,827.075785 C168.952076,827.520491 169.042015,828.007661 169.042015,828.53731 C169.042015,829.066959 168.952076,829.554129 168.772195,829.998835 C168.592314,830.443541 168.339985,830.82828 168.0152,831.153065 C167.690415,831.47785 167.305676,831.730179 166.86097,831.91006 C166.416265,832.089941 165.929095,832.17988 165.399445,832.17988 C165.139617,832.17988 164.874797,832.152399 164.604975,832.097435 C164.335154,832.042471 164.077828,831.957529 163.83299,831.842605 C163.588152,831.727681 163.360806,831.582779 163.150945,831.407895 C162.941084,831.233011 162.766203,831.025651 162.626295,830.78581 L162.596315,830.78581 L162.596315,832 L161.696915,832 L161.696915,820.66756 Z M162.506375,828.53731 C162.506375,828.927052 162.581325,829.294303 162.731225,829.639075 C162.881126,829.983847 163.085987,830.283644 163.345815,830.538475 C163.605643,830.793306 163.910437,830.995669 164.260205,831.14557 C164.609974,831.295471 164.989717,831.37042 165.399445,831.37042 C165.819167,831.37042 166.19891,831.295471 166.538685,831.14557 C166.87846,830.995669 167.168264,830.793306 167.408105,830.538475 C167.647946,830.283644 167.830323,829.983847 167.95524,829.639075 C168.080158,829.294303 168.142615,828.927052 168.142615,828.53731 C168.142615,828.147568 168.080158,827.780317 167.95524,827.435545 C167.830323,827.090773 167.647946,826.790976 167.408105,826.536145 C167.168264,826.281314 166.87846,826.078951 166.538685,825.92905 C166.19891,825.779149 165.819167,825.7042 165.399445,825.7042 C164.989717,825.7042 164.609974,825.779149 164.260205,825.92905 C163.910437,826.078951 163.605643,826.281314 163.345815,826.536145 C163.085987,826.790976 162.881126,827.090773 162.731225,827.435545 C162.581325,827.780317 162.506375,828.147568 162.506375,828.53731 Z M171.650675,827.02332 C171.650675,826.893406 171.645679,826.736013 171.635685,826.551135 C171.625692,826.366257 171.618197,826.178884 171.6132,825.98901 C171.608204,825.799136 171.600709,825.621756 171.590715,825.456865 C171.580722,825.291974 171.575725,825.164561 171.575725,825.07462 L172.475125,825.07462 C172.485119,825.334448 172.492614,825.584279 172.49761,825.82412 C172.502607,826.063961 172.515098,826.218856 172.535085,826.28881 C172.764933,825.879081 173.059733,825.544308 173.419495,825.28448 C173.779257,825.024652 174.218959,824.89474 174.738615,824.89474 C174.828556,824.89474 174.915996,824.902235 175.00094,824.917225 C175.085884,824.932215 175.173325,824.949703 175.263265,824.96969 L175.158335,825.8541 C175.038415,825.814127 174.923492,825.79414 174.813565,825.79414 C174.423823,825.79414 174.086552,825.856598 173.80174,825.981515 C173.516929,826.106432 173.282088,826.278816 173.09721,826.49867 C172.912333,826.718525 172.774926,826.97585 172.684985,827.270655 C172.595045,827.56546 172.550075,827.882745 172.550075,828.22252 L172.550075,832 L171.650675,832 L171.650675,827.02332 Z M177.392245,825.07462 L178.291645,825.07462 L178.291645,832 L177.392245,832 L177.392245,825.07462 Z M177.167395,822.33145 C177.167395,822.141576 177.232351,821.981684 177.362265,821.85177 C177.492179,821.721856 177.652071,821.6569 177.841945,821.6569 C178.031819,821.6569 178.191711,821.721856 178.321625,821.85177 C178.451539,821.981684 178.516495,822.141576 178.516495,822.33145 C178.516495,822.521324 178.451539,822.681216 178.321625,822.81113 C178.191711,822.941044 178.031819,823.006 177.841945,823.006 C177.652071,823.006 177.492179,822.941044 177.362265,822.81113 C177.232351,822.681216 177.167395,822.521324 177.167395,822.33145 Z M188.395305,831.5503 C188.395305,832.409731 188.27039,833.104261 188.020555,833.63391 C187.77072,834.163559 187.458432,834.573282 187.08368,834.86309 C186.708928,835.152898 186.306701,835.347766 185.876985,835.4477 C185.44727,835.547634 185.057533,835.5976 184.707765,835.5976 C184.357997,835.5976 184.015728,835.565122 183.68095,835.500165 C183.346172,835.435208 183.028887,835.340272 182.729085,835.215355 C182.429284,835.090438 182.156968,834.938041 181.91213,834.75816 C181.667292,834.578279 181.454936,834.373418 181.275055,834.14357 L181.979585,833.48401 C182.299373,833.933712 182.699103,834.263489 183.178785,834.47335 C183.658467,834.683211 184.168122,834.78814 184.707765,834.78814 C185.167461,834.78814 185.554698,834.728181 185.86949,834.60826 C186.184282,834.488339 186.444106,834.330946 186.64897,834.136075 C186.853834,833.941204 187.013726,833.726349 187.12865,833.491505 C187.243574,833.25666 187.328516,833.021819 187.38348,832.786975 C187.438444,832.55213 187.470922,832.329781 187.480915,832.11992 C187.490908,831.910059 187.495905,831.740174 187.495905,831.61026 L187.495905,830.6509 L187.465925,830.6509 C187.206097,831.070622 186.853836,831.400399 186.40913,831.64024 C185.964425,831.880081 185.442278,832 184.842675,832 C184.333013,832 183.853337,831.907563 183.403635,831.722685 C182.953933,831.537807 182.561698,831.28298 182.22692,830.958195 C181.892142,830.63341 181.627321,830.256166 181.43245,829.82645 C181.237579,829.396735 181.140145,828.937046 181.140145,828.44737 C181.140145,827.957694 181.237579,827.498006 181.43245,827.06829 C181.627321,826.638575 181.892142,826.263828 182.22692,825.94404 C182.561698,825.624252 182.953933,825.369424 183.403635,825.17955 C183.853337,824.989676 184.333013,824.89474 184.842675,824.89474 C185.442278,824.89474 185.964425,825.014659 186.40913,825.2545 C186.853836,825.494341 187.206097,825.824118 187.465925,826.24384 L187.495905,826.24384 L187.495905,825.07462 L188.395305,825.07462 L188.395305,831.5503 Z M187.525885,828.44737 C187.525885,828.067621 187.453434,827.710363 187.30853,827.375585 C187.163626,827.040807 186.968758,826.751003 186.72392,826.506165 C186.479082,826.261327 186.189278,826.066459 185.8545,825.921555 C185.519722,825.776651 185.162464,825.7042 184.782715,825.7042 C184.402967,825.7042 184.045708,825.776651 183.71093,825.921555 C183.376152,826.066459 183.086348,826.261327 182.84151,826.506165 C182.596672,826.751003 182.401804,827.040807 182.2569,827.375585 C182.111996,827.710363 182.039545,828.067621 182.039545,828.44737 C182.039545,828.827119 182.111996,829.184377 182.2569,829.519155 C182.401804,829.853933 182.596672,830.143737 182.84151,830.388575 C183.086348,830.633413 183.376152,830.828281 183.71093,830.973185 C184.045708,831.118089 184.402967,831.19054 184.782715,831.19054 C185.162464,831.19054 185.519722,831.118089 185.8545,830.973185 C186.189278,830.828281 186.479082,830.633413 186.72392,830.388575 C186.968758,830.143737 187.163626,829.853933 187.30853,829.519155 C187.453434,829.184377 187.525885,828.827119 187.525885,828.44737 Z M191.198835,820.66756 L192.098235,820.66756 L192.098235,826.28881 L192.128215,826.28881 C192.308096,825.909062 192.607893,825.581783 193.027615,825.306965 C193.447337,825.032147 193.937006,824.89474 194.496635,824.89474 C195.036278,824.89474 195.47598,824.979683 195.815755,825.14957 C196.15553,825.319458 196.422849,825.541807 196.61772,825.816625 C196.812591,826.091443 196.9475,826.408728 197.02245,826.76849 C197.0974,827.128252 197.134875,827.498002 197.134875,827.87775 L197.134875,832 L196.235475,832 L196.235475,827.92272 C196.235475,827.642905 196.210492,827.37059 196.160525,827.105765 C196.110558,826.84094 196.023117,826.603601 195.8982,826.39374 C195.773283,826.183879 195.598401,826.016492 195.37355,825.891575 C195.148699,825.766658 194.856397,825.7042 194.496635,825.7042 C194.166853,825.7042 193.854565,825.761661 193.55976,825.876585 C193.264955,825.991509 193.010128,826.166391 192.79527,826.401235 C192.580412,826.63608 192.410527,826.93088 192.28561,827.285645 C192.160693,827.64041 192.098235,828.057628 192.098235,828.53731 L192.098235,832 L191.198835,832 L191.198835,820.66756 Z M203.521015,825.88408 L201.542335,825.88408 L201.542335,830.39607 C201.542335,830.705865 201.627277,830.945702 201.797165,831.11559 C201.967052,831.285478 202.201893,831.37042 202.501695,831.37042 C202.671582,831.37042 202.843966,831.347935 203.01885,831.302965 C203.193734,831.257995 203.361121,831.200534 203.521015,831.13058 L203.595965,831.94004 C203.426077,832 203.231209,832.054963 203.011355,832.10493 C202.7915,832.154897 202.596632,832.17988 202.426745,832.17988 C202.106957,832.17988 201.832143,832.132412 201.602295,832.037475 C201.372447,831.942538 201.187572,831.815124 201.047665,831.65523 C200.907758,831.495336 200.805327,831.307963 200.74037,831.093105 C200.675413,830.878247 200.642935,830.645905 200.642935,830.39607 L200.642935,825.88408 L199.143935,825.88408 L199.143935,825.07462 L200.642935,825.07462 L200.642935,823.08095 L201.542335,823.08095 L201.542335,825.07462 L203.521015,825.07462 L203.521015,825.88408 Z M205.724945,827.02332 C205.724945,826.893406 205.719948,826.736013 205.709955,826.551135 C205.699961,826.366257 205.692467,826.178884 205.68747,825.98901 C205.682473,825.799136 205.674978,825.621756 205.664985,825.456865 C205.654991,825.291974 205.649995,825.164561 205.649995,825.07462 L206.549395,825.07462 C206.559388,825.334448 206.566883,825.584279 206.57188,825.82412 C206.576877,826.063961 206.589368,826.218856 206.609355,826.28881 L206.654325,826.28881 C206.834206,825.909062 207.134003,825.581783 207.553725,825.306965 C207.973447,825.032147 208.463115,824.89474 209.022745,824.89474 C209.562388,824.89474 210.00209,824.979683 210.341865,825.14957 C210.68164,825.319458 210.948959,825.541807 211.14383,825.816625 C211.338701,826.091443 211.473609,826.408728 211.54856,826.76849 C211.62351,827.128252 211.660985,827.498002 211.660985,827.87775 L211.660985,832 L210.761585,832 L210.761585,827.92272 C210.761585,827.642905 210.736602,827.37059 210.686635,827.105765 C210.636668,826.84094 210.549227,826.603601 210.42431,826.39374 C210.299393,826.183879 210.124511,826.016492 209.89966,825.891575 C209.674809,825.766658 209.382507,825.7042 209.022745,825.7042 C208.692963,825.7042 208.380675,825.761661 208.08587,825.876585 C207.791065,825.991509 207.536238,826.166391 207.32138,826.401235 C207.106522,826.63608 206.936637,826.93088 206.81172,827.285645 C206.686803,827.64041 206.624345,828.057628 206.624345,828.53731 L206.624345,832 L205.724945,832 L205.724945,827.02332 Z M220.775305,830.69587 C220.425536,831.225519 219.993329,831.605262 219.47867,831.83511 C218.96401,832.064958 218.396894,832.17988 217.777305,832.17988 C217.247655,832.17988 216.76798,832.089941 216.338265,831.91006 C215.908549,831.730179 215.5388,831.47785 215.229005,831.153065 C214.91921,830.82828 214.681871,830.443541 214.51698,829.998835 C214.352089,829.554129 214.269645,829.061963 214.269645,828.52232 C214.269645,828.002664 214.354587,827.522989 214.524475,827.08328 C214.694362,826.643571 214.9342,826.26133 215.243995,825.936545 C215.55379,825.61176 215.918543,825.356933 216.338265,825.172055 C216.757987,824.987178 217.222672,824.89474 217.732335,824.89474 C218.261984,824.89474 218.729168,824.987178 219.1339,825.172055 C219.538632,825.356933 219.878402,825.601767 220.15322,825.906565 C220.428038,826.211363 220.635397,826.558628 220.775305,826.94837 C220.915212,827.338112 220.985165,827.732845 220.985165,828.13258 L220.985165,828.76216 L215.169045,828.76216 C215.169045,828.952034 215.206519,829.19437 215.28147,829.489175 C215.35642,829.78398 215.493827,830.071285 215.693695,830.3511 C215.893562,830.630915 216.160881,830.870752 216.49566,831.07062 C216.830438,831.270488 217.262645,831.37042 217.792295,831.37042 C218.25199,831.37042 218.696689,831.260494 219.126405,831.04064 C219.55612,830.820786 219.885897,830.520989 220.115745,830.14124 L220.775305,830.69587 Z M220.085765,827.9527 C220.085765,827.642905 220.023307,827.353101 219.89839,827.08328 C219.773472,826.813459 219.603587,826.576119 219.38873,826.371255 C219.173872,826.166391 218.919045,826.004001 218.62424,825.88408 C218.329435,825.764159 218.017146,825.7042 217.687365,825.7042 C217.197689,825.7042 216.790465,825.804132 216.46568,826.004 C216.140895,826.203868 215.883569,826.433712 215.693695,826.69354 C215.50382,826.953368 215.368912,827.205697 215.288965,827.450535 C215.209018,827.695373 215.169045,827.86276 215.169045,827.9527 L220.085765,827.9527 Z M223.608815,830.23118 C223.798689,830.600935 224.078499,830.883244 224.448255,831.078115 C224.81801,831.272986 225.207746,831.37042 225.617475,831.37042 C225.807349,831.37042 225.99722,831.34044 226.187095,831.28048 C226.376969,831.22052 226.546854,831.135577 226.696755,831.02565 C226.846655,830.915723 226.969072,830.783312 227.06401,830.628415 C227.158947,830.473518 227.206415,830.296138 227.206415,830.09627 C227.206415,829.776482 227.103984,829.536644 226.89912,829.37675 C226.694255,829.216856 226.441926,829.09194 226.142125,829.002 C225.842323,828.91206 225.512546,828.834612 225.152785,828.769655 C224.793023,828.704698 224.463246,828.604766 224.163445,828.469855 C223.863643,828.334944 223.611314,828.147571 223.40645,827.90773 C223.201585,827.667889 223.099155,827.328119 223.099155,826.88841 C223.099155,826.548635 223.169107,826.253835 223.309015,826.004 C223.448922,825.754166 223.631299,825.546806 223.85615,825.381915 C224.081001,825.217024 224.33333,825.094607 224.613145,825.01466 C224.892959,824.934713 225.177767,824.89474 225.467575,824.89474 C226.037197,824.89474 226.529364,824.999669 226.94409,825.20953 C227.358815,825.419391 227.681097,825.749168 227.910945,826.19887 L227.101485,826.67855 C226.931597,826.358762 226.719241,826.116426 226.46441,825.951535 C226.209578,825.786644 225.877303,825.7042 225.467575,825.7042 C225.30768,825.7042 225.140294,825.729183 224.96541,825.77915 C224.790525,825.829117 224.633132,825.89907 224.493225,825.98901 C224.353317,826.078951 224.235897,826.193873 224.14096,826.33378 C224.046023,826.473687 223.998555,826.633579 223.998555,826.81346 C223.998555,827.123255 224.100985,827.353099 224.30585,827.503 C224.510714,827.652901 224.763043,827.770321 225.062845,827.855265 C225.362646,827.940209 225.692423,828.01266 226.052185,828.07262 C226.411946,828.13258 226.741723,828.230014 227.041525,828.364925 C227.341326,828.499836 227.593655,828.694704 227.79852,828.949535 C228.003384,829.204366 228.105815,829.566621 228.105815,830.03631 C228.105815,830.396072 228.03836,830.70836 227.90345,830.973185 C227.768539,831.23801 227.583664,831.460359 227.34882,831.64024 C227.113975,831.820121 226.846656,831.95503 226.546855,832.04497 C226.247053,832.13491 225.932266,832.17988 225.602485,832.17988 C225.002882,832.17988 224.455752,832.064958 223.96108,831.83511 C223.466407,831.605262 223.084166,831.250502 222.814345,830.77082 L223.608815,830.23118 Z M230.594555,830.23118 C230.784429,830.600935 231.064239,830.883244 231.433995,831.078115 C231.80375,831.272986 232.193486,831.37042 232.603215,831.37042 C232.793089,831.37042 232.98296,831.34044 233.172835,831.28048 C233.362709,831.22052 233.532594,831.135577 233.682495,831.02565 C233.832395,830.915723 233.954812,830.783312 234.04975,830.628415 C234.144687,830.473518 234.192155,830.296138 234.192155,830.09627 C234.192155,829.776482 234.089724,829.536644 233.88486,829.37675 C233.679995,829.216856 233.427666,829.09194 233.127865,829.002 C232.828063,828.91206 232.498286,828.834612 232.138525,828.769655 C231.778763,828.704698 231.448986,828.604766 231.149185,828.469855 C230.849383,828.334944 230.597054,828.147571 230.39219,827.90773 C230.187325,827.667889 230.084895,827.328119 230.084895,826.88841 C230.084895,826.548635 230.154847,826.253835 230.294755,826.004 C230.434662,825.754166 230.617038,825.546806 230.84189,825.381915 C231.066741,825.217024 231.31907,825.094607 231.598885,825.01466 C231.878699,824.934713 232.163506,824.89474 232.453315,824.89474 C233.022937,824.89474 233.515104,824.999669 233.92983,825.20953 C234.344555,825.419391 234.666837,825.749168 234.896685,826.19887 L234.087225,826.67855 C233.917337,826.358762 233.704981,826.116426 233.45015,825.951535 C233.195318,825.786644 232.863043,825.7042 232.453315,825.7042 C232.29342,825.7042 232.126034,825.729183 231.95115,825.77915 C231.776265,825.829117 231.618872,825.89907 231.478965,825.98901 C231.339057,826.078951 231.221637,826.193873 231.1267,826.33378 C231.031762,826.473687 230.984295,826.633579 230.984295,826.81346 C230.984295,827.123255 231.086725,827.353099 231.29159,827.503 C231.496454,827.652901 231.748783,827.770321 232.048585,827.855265 C232.348386,827.940209 232.678163,828.01266 233.037925,828.07262 C233.397686,828.13258 233.727463,828.230014 234.027265,828.364925 C234.327066,828.499836 234.579395,828.694704 234.78426,828.949535 C234.989124,829.204366 235.091555,829.566621 235.091555,830.03631 C235.091555,830.396072 235.0241,830.70836 234.88919,830.973185 C234.754279,831.23801 234.569404,831.460359 234.33456,831.64024 C234.099715,831.820121 233.832396,831.95503 233.532595,832.04497 C233.232793,832.13491 232.918006,832.17988 232.588225,832.17988 C231.988622,832.17988 231.441492,832.064958 230.94682,831.83511 C230.452147,831.605262 230.069906,831.250502 229.800085,830.77082 L230.594555,830.23118 Z M242.212604,820.66756 L243.112004,820.66756 L243.112004,832 L242.212604,832 L242.212604,820.66756 Z M252.376224,830.69587 C252.026456,831.225519 251.594249,831.605262 251.079589,831.83511 C250.56493,832.064958 249.997814,832.17988 249.378224,832.17988 C248.848575,832.17988 248.3689,832.089941 247.939184,831.91006 C247.509469,831.730179 247.139719,831.47785 246.829924,831.153065 C246.52013,830.82828 246.28279,830.443541 246.117899,829.998835 C245.953009,829.554129 245.870564,829.061963 245.870564,828.52232 C245.870564,828.002664 245.955507,827.522989 246.125394,827.08328 C246.295282,826.643571 246.53512,826.26133 246.844914,825.936545 C247.154709,825.61176 247.519462,825.356933 247.939184,825.172055 C248.358907,824.987178 248.823592,824.89474 249.333254,824.89474 C249.862904,824.89474 250.330087,824.987178 250.734819,825.172055 C251.139551,825.356933 251.479321,825.601767 251.754139,825.906565 C252.028957,826.211363 252.236317,826.558628 252.376224,826.94837 C252.516132,827.338112 252.586084,827.732845 252.586084,828.13258 L252.586084,828.76216 L246.769964,828.76216 C246.769964,828.952034 246.807439,829.19437 246.882389,829.489175 C246.95734,829.78398 247.094747,830.071285 247.294614,830.3511 C247.494482,830.630915 247.761801,830.870752 248.096579,831.07062 C248.431358,831.270488 248.863565,831.37042 249.393214,831.37042 C249.85291,831.37042 250.297609,831.260494 250.727324,831.04064 C251.15704,830.820786 251.486817,830.520989 251.716664,830.14124 L252.376224,830.69587 Z M251.686684,827.9527 C251.686684,827.642905 251.624227,827.353101 251.499309,827.08328 C251.374392,826.813459 251.204507,826.576119 250.989649,826.371255 C250.774792,826.166391 250.519964,826.004001 250.225159,825.88408 C249.930355,825.764159 249.618066,825.7042 249.288284,825.7042 C248.798609,825.7042 248.391384,825.804132 248.066599,826.004 C247.741814,826.203868 247.484489,826.433712 247.294614,826.69354 C247.10474,826.953368 246.969831,827.205697 246.889884,827.450535 C246.809937,827.695373 246.769964,827.86276 246.769964,827.9527 L251.686684,827.9527 Z M254.220394,825.07462 L255.239714,825.07462 L257.548174,831.02565 L259.796674,825.07462 L260.711064,825.07462 L257.982884,832 L257.053504,832 L254.220394,825.07462 Z M268.851034,830.69587 C268.501266,831.225519 268.069058,831.605262 267.554399,831.83511 C267.03974,832.064958 266.472624,832.17988 265.853034,832.17988 C265.323385,832.17988 264.84371,832.089941 264.413994,831.91006 C263.984279,831.730179 263.614529,831.47785 263.304734,831.153065 C262.994939,830.82828 262.7576,830.443541 262.592709,829.998835 C262.427818,829.554129 262.345374,829.061963 262.345374,828.52232 C262.345374,828.002664 262.430317,827.522989 262.600204,827.08328 C262.770092,826.643571 263.009929,826.26133 263.319724,825.936545 C263.629519,825.61176 263.994272,825.356933 264.413994,825.172055 C264.833716,824.987178 265.298402,824.89474 265.808064,824.89474 C266.337714,824.89474 266.804897,824.987178 267.209629,825.172055 C267.614361,825.356933 267.954131,825.601767 268.228949,825.906565 C268.503767,826.211363 268.711127,826.558628 268.851034,826.94837 C268.990942,827.338112 269.060894,827.732845 269.060894,828.13258 L269.060894,828.76216 L263.244774,828.76216 C263.244774,828.952034 263.282249,829.19437 263.357199,829.489175 C263.43215,829.78398 263.569557,830.071285 263.769424,830.3511 C263.969292,830.630915 264.236611,830.870752 264.571389,831.07062 C264.906168,831.270488 265.338375,831.37042 265.868024,831.37042 C266.32772,831.37042 266.772419,831.260494 267.202134,831.04064 C267.63185,830.820786 267.961626,830.520989 268.191474,830.14124 L268.851034,830.69587 Z M268.161494,827.9527 C268.161494,827.642905 268.099036,827.353101 267.974119,827.08328 C267.849202,826.813459 267.679317,826.576119 267.464459,826.371255 C267.249601,826.166391 266.994774,826.004001 266.699969,825.88408 C266.405164,825.764159 266.092876,825.7042 265.763094,825.7042 C265.273418,825.7042 264.866194,825.804132 264.541409,826.004 C264.216624,826.203868 263.959299,826.433712 263.769424,826.69354 C263.57955,826.953368 263.444641,827.205697 263.364694,827.450535 C263.284747,827.695373 263.244774,827.86276 263.244774,827.9527 L268.161494,827.9527 Z M271.819454,820.66756 L272.718854,820.66756 L272.718854,832 L271.819454,832 L271.819454,820.66756 Z M169.43965,848.53731 C169.43965,848.007661 169.529589,847.520491 169.70947,847.075785 C169.889351,846.63108 170.139182,846.24634 170.45897,845.921555 C170.778758,845.59677 171.163498,845.344441 171.6132,845.16456 C172.062902,844.984679 172.552571,844.89474 173.08222,844.89474 C173.61187,844.89474 174.09904,844.984679 174.543745,845.16456 C174.988451,845.344441 175.37319,845.59677 175.697975,845.921555 C176.02276,846.24634 176.275089,846.63108 176.45497,847.075785 C176.634851,847.520491 176.72479,848.007661 176.72479,848.53731 C176.72479,849.066959 176.634851,849.554129 176.45497,849.998835 C176.275089,850.443541 176.02276,850.82828 175.697975,851.153065 C175.37319,851.47785 174.988451,851.730179 174.543745,851.91006 C174.09904,852.089941 173.61187,852.17988 173.08222,852.17988 C172.552571,852.17988 172.062902,852.089941 171.6132,851.91006 C171.163498,851.730179 170.778758,851.47785 170.45897,851.153065 C170.139182,850.82828 169.889351,850.443541 169.70947,849.998835 C169.529589,849.554129 169.43965,849.066959 169.43965,848.53731 Z M170.33905,848.53731 C170.33905,848.927052 170.401508,849.294303 170.526425,849.639075 C170.651343,849.983847 170.833719,850.283644 171.07356,850.538475 C171.313401,850.793306 171.603205,850.995669 171.94298,851.14557 C172.282755,851.295471 172.662498,851.37042 173.08222,851.37042 C173.501942,851.37042 173.881685,851.295471 174.22146,851.14557 C174.561235,850.995669 174.851039,850.793306 175.09088,850.538475 C175.330721,850.283644 175.513098,849.983847 175.638015,849.639075 C175.762932,849.294303 175.82539,848.927052 175.82539,848.53731 C175.82539,848.147568 175.762932,847.780317 175.638015,847.435545 C175.513098,847.090773 175.330721,846.790976 175.09088,846.536145 C174.851039,846.281314 174.561235,846.078951 174.22146,845.92905 C173.881685,845.779149 173.501942,845.7042 173.08222,845.7042 C172.662498,845.7042 172.282755,845.779149 171.94298,845.92905 C171.603205,846.078951 171.313401,846.281314 171.07356,846.536145 C170.833719,846.790976 170.651343,847.090773 170.526425,847.435545 C170.401508,847.780317 170.33905,848.147568 170.33905,848.53731 Z M179.84311,845.88408 L178.40407,845.88408 L178.40407,845.07462 L179.84311,845.07462 L179.84311,842.81113 C179.84311,842.361428 179.910564,841.98918 180.045475,841.694375 C180.180386,841.39957 180.347772,841.162231 180.54764,840.98235 C180.747508,840.802469 180.969857,840.675056 181.214695,840.600105 C181.459533,840.525155 181.691876,840.48768 181.91173,840.48768 C182.331452,840.48768 182.676219,840.54764 182.94604,840.66756 L182.76616,841.44704 C182.566292,841.347106 182.296475,841.29714 181.9567,841.29714 C181.147236,841.29714 180.74251,841.911724 180.74251,843.14091 L180.74251,845.07462 L182.36143,845.07462 L182.36143,845.88408 L180.74251,845.88408 L180.74251,852 L179.84311,852 L179.84311,845.88408 Z M189.01779,840.66756 L189.91719,840.66756 L189.91719,852 L189.01779,852 L189.01779,840.66756 Z M198.92658,850.0513 C198.92658,850.181214 198.931577,850.338607 198.94157,850.523485 C198.951563,850.708363 198.959058,850.895736 198.964055,851.08561 C198.969052,851.275484 198.976547,851.452864 198.98654,851.617755 C198.996533,851.782646 199.00153,851.91006 199.00153,852 L198.10213,852 C198.092137,851.740172 198.084642,851.490341 198.079645,851.2505 C198.074648,851.010659 198.062157,850.855764 198.04217,850.78581 L197.9972,850.78581 C197.817319,851.165559 197.517522,851.492837 197.0978,851.767655 C196.678078,852.042473 196.188409,852.17988 195.62878,852.17988 C195.089137,852.17988 194.646937,852.094938 194.302165,851.92505 C193.957393,851.755162 193.687576,851.532813 193.492705,851.257995 C193.297834,850.983177 193.165424,850.665892 193.09547,850.30613 C193.025516,849.946368 192.99054,849.576619 192.99054,849.19687 L192.99054,845.07462 L193.88994,845.07462 L193.88994,849.1519 C193.88994,849.431715 193.914923,849.70403 193.96489,849.968855 C194.014857,850.23368 194.102298,850.471019 194.227215,850.68088 C194.352132,850.890741 194.527014,851.058128 194.751865,851.183045 C194.976716,851.307962 195.269018,851.37042 195.62878,851.37042 C195.958562,851.37042 196.27085,851.312959 196.565655,851.198035 C196.86046,851.083111 197.115287,850.90823 197.330145,850.673385 C197.545003,850.438541 197.714888,850.14374 197.839805,849.788975 C197.964722,849.43421 198.02718,849.016992 198.02718,848.53731 L198.02718,845.07462 L198.92658,845.07462 L198.92658,850.0513 Z M201.99993,847.02332 C201.99993,846.893406 201.994933,846.736013 201.98494,846.551135 C201.974947,846.366257 201.967452,846.178884 201.962455,845.98901 C201.957458,845.799136 201.949963,845.621756 201.93997,845.456865 C201.929977,845.291974 201.92498,845.164561 201.92498,845.07462 L202.82438,845.07462 C202.834373,845.334448 202.841868,845.584279 202.846865,845.82412 C202.851862,846.063961 202.864353,846.218856 202.88434,846.28881 L202.92931,846.28881 C203.109191,845.909062 203.408988,845.581783 203.82871,845.306965 C204.248432,845.032147 204.7381,844.89474 205.29773,844.89474 C205.757425,844.89474 206.177141,845.012161 206.55689,845.247005 C206.936638,845.48185 207.211452,845.864091 207.38134,846.39374 C207.601194,845.874084 207.928473,845.494341 208.363185,845.2545 C208.797897,845.014659 209.255087,844.89474 209.73477,844.89474 C210.274412,844.89474 210.714115,844.979683 211.05389,845.14957 C211.393665,845.319458 211.660984,845.541807 211.855855,845.816625 C212.050726,846.091443 212.185634,846.408728 212.260585,846.76849 C212.335535,847.128252 212.37301,847.498002 212.37301,847.87775 L212.37301,852 L211.47361,852 L211.47361,847.92272 C211.47361,847.642905 211.448627,847.37059 211.39866,847.105765 C211.348693,846.84094 211.261252,846.603601 211.136335,846.39374 C211.011417,846.183879 210.836536,846.016492 210.611685,845.891575 C210.386834,845.766658 210.094532,845.7042 209.73477,845.7042 C209.315048,845.7042 208.970281,845.781648 208.70046,845.936545 C208.430638,846.091443 208.218282,846.288809 208.063385,846.52865 C207.908487,846.768491 207.798562,847.028315 207.733605,847.30813 C207.668648,847.587945 207.63617,847.852765 207.63617,848.1026 L207.63617,852 L206.73677,852 L206.73677,847.83278 C206.73677,847.193204 206.619349,846.678552 206.384505,846.28881 C206.14966,845.899068 205.787406,845.7042 205.29773,845.7042 C204.967948,845.7042 204.65566,845.761661 204.360855,845.876585 C204.06605,845.991509 203.811223,846.166391 203.596365,846.401235 C203.381507,846.63608 203.211622,846.93088 203.086705,847.285645 C202.961788,847.64041 202.89933,848.057628 202.89933,848.53731 L202.89933,852 L201.99993,852 L201.99993,847.02332 Z M215.52131,845.07462 L216.42071,845.07462 L216.42071,852 L215.52131,852 L215.52131,845.07462 Z M215.29646,842.33145 C215.29646,842.141576 215.361416,841.981684 215.49133,841.85177 C215.621244,841.721856 215.781135,841.6569 215.97101,841.6569 C216.160884,841.6569 216.320776,841.721856 216.45069,841.85177 C216.580604,841.981684 216.64556,842.141576 216.64556,842.33145 C216.64556,842.521324 216.580604,842.681216 216.45069,842.81113 C216.320776,842.941044 216.160884,843.006 215.97101,843.006 C215.781135,843.006 215.621244,842.941044 215.49133,842.81113 C215.361416,842.681216 215.29646,842.521324 215.29646,842.33145 Z" id="adjust-brightness-le" fill="#FFFFFF"></path>
            <g id="brightness-icons" transform="translate(52.000000, 764.000000)" fill-rule="nonzero" fill="#FFFFFF">
                <g id="less-bright" transform="translate(0.000000, 5.000000)">
                    <path d="M8.5,5.5 C6.85,5.5 5.5,6.85 5.5,8.5 C5.5,10.15 6.85,11.5 8.5,11.5 C10.15,11.5 11.5,10.15 11.5,8.5 C11.5,6.85 10.15,5.5 8.5,5.5 Z" id="Shape"></path>
                    <path d="M8.5,4.275 C8.925,4.275 9.25,3.95 9.25,3.525 L9.25,0.95 C9.25,0.525 8.925,0.2 8.5,0.2 C8.075,0.2 7.75,0.525 7.75,0.95 L7.75,3.5 C7.75,3.925 8.075,4.275 8.5,4.275 Z" id="Shape"></path>
                    <path d="M8.5,12.725 C8.075,12.725 7.75,13.05 7.75,13.475 L7.75,16.025 C7.75,16.45 8.075,16.775 8.5,16.775 C8.925,16.775 9.25,16.45 9.25,16.025 L9.25,13.475 C9.25,13.075 8.925,12.725 8.5,12.725 Z" id="Shape"></path>
                    <path d="M16.05,7.75 L13.475,7.75 C13.05,7.75 12.725,8.075 12.725,8.5 C12.725,8.925 13.05,9.25 13.475,9.25 L16.025,9.25 C16.45,9.25 16.775,8.925 16.775,8.5 C16.775,8.075 16.45,7.75 16.05,7.75 Z" id="Shape"></path>
                    <path d="M4.275,8.5 C4.275,8.075 3.95,7.75 3.525,7.75 L0.95,7.75 C0.525,7.75 0.2,8.075 0.2,8.5 C0.2,8.925 0.525,9.25 0.95,9.25 L3.5,9.25 C3.925,9.25 4.275,8.925 4.275,8.5 Z" id="Shape"></path>
                    <path d="M12.025,5.725 C12.225,5.725 12.4,5.65 12.55,5.5 L14.35,3.7 C14.65,3.4 14.65,2.925 14.35,2.65 C14.05,2.35 13.575,2.35 13.3,2.65 L11.5,4.45 C11.2,4.75 11.2,5.225 11.5,5.5 C11.65,5.65 11.825,5.725 12.025,5.725 Z" id="Shape"></path>
                    <path d="M4.45,11.5 L2.65,13.3 C2.35,13.6 2.35,14.075 2.65,14.35 C2.8,14.5 3,14.575 3.175,14.575 C3.35,14.575 3.55,14.5 3.7,14.35 L5.5,12.55 C5.8,12.25 5.8,11.775 5.5,11.5 C5.225,11.2 4.75,11.2 4.45,11.5 Z" id="Shape"></path>
                    <path d="M12.55,11.5 C12.25,11.2 11.775,11.2 11.5,11.5 C11.2,11.8 11.2,12.275 11.5,12.55 L13.3,14.35 C13.45,14.5 13.65,14.575 13.825,14.575 C14,14.575 14.2,14.5 14.35,14.35 C14.65,14.05 14.65,13.575 14.35,13.3 L12.55,11.5 Z" id="Shape"></path>
                    <path d="M4.45,5.5 C4.6,5.65 4.8,5.725 4.975,5.725 C5.15,5.725 5.35,5.65 5.5,5.5 C5.8,5.2 5.8,4.725 5.5,4.45 L3.7,2.65 C3.4,2.35 2.925,2.35 2.65,2.65 C2.35,2.95 2.35,3.425 2.65,3.7 L4.45,5.5 Z" id="Shape"></path>
                </g>
                <g id="more-bright" transform="translate(248.000000, 0.000000)">
                    <path d="M13,8.41176471 C10.4764706,8.41176471 8.41176471,10.4764706 8.41176471,13 C8.41176471,15.5235294 10.4764706,17.5882353 13,17.5882353 C15.5235294,17.5882353 17.5882353,15.5235294 17.5882353,13 C17.5882353,10.4764706 15.5235294,8.41176471 13,8.41176471 Z" id="Shape"></path>
                    <path d="M13,6.53823529 C13.65,6.53823529 14.1470588,6.04117647 14.1470588,5.39117647 L14.1470588,1.45294118 C14.1470588,0.802941176 13.65,0.305882353 13,0.305882353 C12.35,0.305882353 11.8529412,0.802941176 11.8529412,1.45294118 L11.8529412,5.35294118 C11.8529412,6.00294118 12.35,6.53823529 13,6.53823529 Z" id="Shape"></path>
                    <path d="M13,19.4617647 C12.35,19.4617647 11.8529412,19.9588235 11.8529412,20.6088235 L11.8529412,24.5088235 C11.8529412,25.1588235 12.35,25.6558824 13,25.6558824 C13.65,25.6558824 14.1470588,25.1588235 14.1470588,24.5088235 L14.1470588,20.6088235 C14.1470588,19.9970588 13.65,19.4617647 13,19.4617647 Z" id="Shape"></path>
                    <path d="M24.5470588,11.8529412 L20.6088235,11.8529412 C19.9588235,11.8529412 19.4617647,12.35 19.4617647,13 C19.4617647,13.65 19.9588235,14.1470588 20.6088235,14.1470588 L24.5088235,14.1470588 C25.1588235,14.1470588 25.6558824,13.65 25.6558824,13 C25.6558824,12.35 25.1588235,11.8529412 24.5470588,11.8529412 Z" id="Shape"></path>
                    <path d="M6.53823529,13 C6.53823529,12.35 6.04117647,11.8529412 5.39117647,11.8529412 L1.45294118,11.8529412 C0.802941176,11.8529412 0.305882353,12.35 0.305882353,13 C0.305882353,13.65 0.802941176,14.1470588 1.45294118,14.1470588 L5.35294118,14.1470588 C6.00294118,14.1470588 6.53823529,13.65 6.53823529,13 Z" id="Shape"></path>
                    <path d="M18.3911765,8.75588235 C18.6970588,8.75588235 18.9647059,8.64117647 19.1941176,8.41176471 L21.9470588,5.65882353 C22.4058824,5.2 22.4058824,4.47352941 21.9470588,4.05294118 C21.4882353,3.59411765 20.7617647,3.59411765 20.3411765,4.05294118 L17.5882353,6.80588235 C17.1294118,7.26470588 17.1294118,7.99117647 17.5882353,8.41176471 C17.8176471,8.64117647 18.0852941,8.75588235 18.3911765,8.75588235 Z" id="Shape"></path>
                    <path d="M6.80588235,17.5882353 L4.05294118,20.3411765 C3.59411765,20.8 3.59411765,21.5264706 4.05294118,21.9470588 C4.28235294,22.1764706 4.58823529,22.2911765 4.85588235,22.2911765 C5.12352941,22.2911765 5.42941176,22.1764706 5.65882353,21.9470588 L8.41176471,19.1941176 C8.87058824,18.7352941 8.87058824,18.0088235 8.41176471,17.5882353 C7.99117647,17.1294118 7.26470588,17.1294118 6.80588235,17.5882353 Z" id="Shape"></path>
                    <path d="M19.1941176,17.5882353 C18.7352941,17.1294118 18.0088235,17.1294118 17.5882353,17.5882353 C17.1294118,18.0470588 17.1294118,18.7735294 17.5882353,19.1941176 L20.3411765,21.9470588 C20.5705882,22.1764706 20.8764706,22.2911765 21.1441176,22.2911765 C21.4117647,22.2911765 21.7176471,22.1764706 21.9470588,21.9470588 C22.4058824,21.4882353 22.4058824,20.7617647 21.9470588,20.3411765 L19.1941176,17.5882353 Z" id="Shape"></path>
                    <path d="M6.80588235,8.41176471 C7.03529412,8.64117647 7.34117647,8.75588235 7.60882353,8.75588235 C7.87647059,8.75588235 8.18235294,8.64117647 8.41176471,8.41176471 C8.87058824,7.95294118 8.87058824,7.22647059 8.41176471,6.80588235 L5.65882353,4.05294118 C5.2,3.59411765 4.47352941,3.59411765 4.05294118,4.05294118 C3.59411765,4.51176471 3.59411765,5.23823529 4.05294118,5.65882353 L6.80588235,8.41176471 Z" id="Shape"></path>
                </g>
            </g>
            <g id="Group" transform="translate(225.000000, 358.000000)">
                <rect id="Rectangle-2" fill="#334E86" x="0" y="0" width="111" height="35" rx="17.5"></rect>
                <path d="M31.376,14.36 L33.428,14.36 L33.428,15.656 L33.464,15.656 C33.7760016,15.1279974 34.1959974,14.7440012 34.724,14.504 C35.2520026,14.2639988 35.8219969,14.144 36.434,14.144 C37.0940033,14.144 37.6879974,14.2609988 38.216,14.495 C38.7440026,14.7290012 39.1939981,15.049998 39.566,15.458 C39.9380019,15.866002 40.219999,16.3459972 40.412,16.898 C40.604001,17.4500028 40.7,18.0439968 40.7,18.68 C40.7,19.3160032 40.598001,19.9099972 40.394,20.462 C40.189999,21.0140028 39.9050018,21.493998 39.539,21.902 C39.1729982,22.310002 38.7320026,22.6309988 38.216,22.865 C37.6999974,23.0990012 37.1360031,23.216 36.524,23.216 C36.115998,23.216 35.7560016,23.1740004 35.444,23.09 C35.1319984,23.0059996 34.8560012,22.8980007 34.616,22.766 C34.3759988,22.6339993 34.1720008,22.4930008 34.004,22.343 C33.8359992,22.1929992 33.6980005,22.0460007 33.59,21.902 L33.536,21.902 L33.536,27.104 L31.376,27.104 L31.376,14.36 Z M38.54,18.68 C38.54,18.3439983 38.4830006,18.0200016 38.369,17.708 C38.2549994,17.3959984 38.0870011,17.1200012 37.865,16.88 C37.6429989,16.6399988 37.3760016,16.4480007 37.064,16.304 C36.7519984,16.1599993 36.398002,16.088 36.002,16.088 C35.605998,16.088 35.2520016,16.1599993 34.94,16.304 C34.6279984,16.4480007 34.3610011,16.6399988 34.139,16.88 C33.9169989,17.1200012 33.7490006,17.3959984 33.635,17.708 C33.5209994,18.0200016 33.464,18.3439983 33.464,18.68 C33.464,19.0160017 33.5209994,19.3399984 33.635,19.652 C33.7490006,19.9640016 33.9169989,20.2399988 34.139,20.48 C34.3610011,20.7200012 34.6279984,20.9119993 34.94,21.056 C35.2520016,21.2000007 35.605998,21.272 36.002,21.272 C36.398002,21.272 36.7519984,21.2000007 37.064,21.056 C37.3760016,20.9119993 37.6429989,20.7200012 37.865,20.48 C38.0870011,20.2399988 38.2549994,19.9640016 38.369,19.652 C38.4830006,19.3399984 38.54,19.0160017 38.54,18.68 Z M42.752,14.36 L44.912,14.36 L44.912,23 L42.752,23 L42.752,14.36 Z M42.446,11.426 C42.446,11.0779983 42.5749987,10.7750013 42.833,10.517 C43.0910013,10.2589987 43.417998,10.13 43.814,10.13 C44.210002,10.13 44.5429987,10.2529988 44.813,10.499 C45.0830014,10.7450012 45.218,11.0539981 45.218,11.426 C45.218,11.7980019 45.0830014,12.1069988 44.813,12.353 C44.5429987,12.5990012 44.210002,12.722 43.814,12.722 C43.417998,12.722 43.0910013,12.5930013 42.833,12.335 C42.5749987,12.0769987 42.446,11.7740017 42.446,11.426 Z M53.3,16.952 C53.0479987,16.6879987 52.7840014,16.4780008 52.508,16.322 C52.2319986,16.1659992 51.9500014,16.088 51.662,16.088 C51.265998,16.088 50.9120016,16.1599993 50.6,16.304 C50.2879984,16.4480007 50.0210011,16.6399988 49.799,16.88 C49.5769989,17.1200012 49.4090006,17.3959984 49.295,17.708 C49.1809994,18.0200016 49.124,18.3439983 49.124,18.68 C49.124,19.0160017 49.1809994,19.3399984 49.295,19.652 C49.4090006,19.9640016 49.5769989,20.2399988 49.799,20.48 C50.0210011,20.7200012 50.2879984,20.9119993 50.6,21.056 C50.9120016,21.2000007 51.265998,21.272 51.662,21.272 C51.9980017,21.272 52.3099986,21.2030007 52.598,21.065 C52.8860014,20.9269993 53.131999,20.7260013 53.336,20.462 L54.776,22.01 C54.5599989,22.2260011 54.3110014,22.4119992 54.029,22.568 C53.7469986,22.7240008 53.4620014,22.8499995 53.174,22.946 C52.8859986,23.0420005 52.6100013,23.1109998 52.346,23.153 C52.0819987,23.1950002 51.854001,23.216 51.662,23.216 C51.0139968,23.216 50.4020029,23.1080011 49.826,22.892 C49.2499971,22.6759989 48.7520021,22.370002 48.332,21.974 C47.9119979,21.577998 47.5790012,21.1010028 47.333,20.543 C47.0869988,19.9849972 46.964,19.3640034 46.964,18.68 C46.964,17.9959966 47.0869988,17.3750028 47.333,16.817 C47.5790012,16.2589972 47.9119979,15.782002 48.332,15.386 C48.7520021,14.989998 49.2499971,14.6840011 49.826,14.468 C50.4020029,14.2519989 51.0139968,14.144 51.662,14.144 C52.2140028,14.144 52.7689972,14.2489989 53.327,14.459 C53.8850028,14.669001 54.3739979,15.0019977 54.794,15.458 L53.3,16.952 Z M56.072,9.392 L58.232,9.392 L58.232,17.942 L61.562,14.36 L64.334,14.36 L60.626,18.284 L64.568,23 L61.706,23 L58.268,18.59 L58.232,18.59 L58.232,23 L56.072,23 L56.072,9.392 Z M67.466,19.436 C67.5380004,20.0840032 67.7899978,20.5879982 68.222,20.948 C68.6540022,21.3080018 69.1759969,21.488 69.788,21.488 C70.3280027,21.488 70.7809982,21.3770011 71.147,21.155 C71.5130018,20.9329989 71.8339986,20.6540017 72.11,20.318 L73.658,21.488 C73.1539975,22.1120031 72.5900031,22.5559987 71.966,22.82 C71.3419969,23.0840013 70.6880034,23.216 70.004,23.216 C69.3559968,23.216 68.7440029,23.1080011 68.168,22.892 C67.5919971,22.6759989 67.0940021,22.370002 66.674,21.974 C66.2539979,21.577998 65.9210012,21.1010028 65.675,20.543 C65.4289988,19.9849972 65.306,19.3640034 65.306,18.68 C65.306,17.9959966 65.4289988,17.3750028 65.675,16.817 C65.9210012,16.2589972 66.2539979,15.782002 66.674,15.386 C67.0940021,14.989998 67.5919971,14.6840011 68.168,14.468 C68.7440029,14.2519989 69.3559968,14.144 70.004,14.144 C70.604003,14.144 71.1529975,14.2489989 71.651,14.459 C72.1490025,14.669001 72.5749982,14.971998 72.929,15.368 C73.2830018,15.764002 73.558999,16.2529971 73.757,16.835 C73.955001,17.4170029 74.054,18.0859962 74.054,18.842 L74.054,19.436 L67.466,19.436 Z M71.894,17.816 C71.8819999,17.1799968 71.6840019,16.6790018 71.3,16.313 C70.9159981,15.9469982 70.3820034,15.764 69.698,15.764 C69.0499968,15.764 68.5370019,15.9499981 68.159,16.322 C67.7809981,16.6940019 67.5500004,17.1919969 67.466,17.816 L71.894,17.816 Z M76.07,14.36 L78.23,14.36 L78.23,15.728 L78.266,15.728 C78.5060012,15.2239975 78.8479978,14.8340014 79.292,14.558 C79.7360022,14.2819986 80.2459971,14.144 80.822,14.144 C80.9540007,14.144 81.0829994,14.1559999 81.209,14.18 C81.3350006,14.2040001 81.4639993,14.2339998 81.596,14.27 L81.596,16.358 C81.4159991,16.3099998 81.2390009,16.2710001 81.065,16.241 C80.8909991,16.2109999 80.7200008,16.196 80.552,16.196 C80.0479975,16.196 79.6430015,16.2889991 79.337,16.475 C79.0309985,16.6610009 78.7970008,16.8739988 78.635,17.114 C78.4729992,17.3540012 78.3650003,17.5939988 78.311,17.834 C78.2569997,18.0740012 78.23,18.2539994 78.23,18.374 L78.23,23 L76.07,23 L76.07,14.36 Z" id="picker" fill="#FFFFFF"></path>
            </g>
        </g>
    </g>
</svg>