<?xml version="1.0" encoding="UTF-8"?>
<svg width="375px" height="700px" viewBox="0 0 375 700" version="1.1" xmlns="http://www.w3.org/2000/svg" xmlns:xlink="http://www.w3.org/1999/xlink" style="background: #FFFFFF;">
    <!-- Generator: Sketch 43.2 (39069) - http://www.bohemiancoding.com/sketch -->
    <title>screen--activity</title>
    <desc>Created with Sketch.</desc>
    <defs>
        <linearGradient x1="50%" y1="0%" x2="67.0043894%" y2="100%" id="linearGradient-1">
            <stop stop-color="#101B46" offset="0%"></stop>
            <stop stop-color="#163B72" offset="100%"></stop>
        </linearGradient>
        <linearGradient x1="52.0428419%" y1="110.15067%" x2="52.0428419%" y2="3.4346318%" id="linearGradient-2">
            <stop stop-color="#142C5D" stop-opacity="0" offset="0%"></stop>
            <stop stop-color="#FC79F7" offset="100%"></stop>
        </linearGradient>
    </defs>
    <g id="Page-1" stroke="none" stroke-width="1" fill="none" fill-rule="evenodd">
        <g id="screen--activity">
            <text id="back" font-family="Avenir-Light, Avenir" font-size="14.9899998" font-weight="300" letter-spacing="0.600000024" fill="#FFFFFF">
                <tspan x="55.6204602" y="38">back</tspan>
            </text>
            <rect id="Rectangle-3" fill="url(#linearGradient-1)" x="0" y="0" width="375" height="700"></rect>
            <g id="icon--tear" transform="translate(67.000000, 92.000000)" fill-rule="nonzero" fill="#77AEFC">
                <g id="Group">
                    <path d="M6.07142857,16.7638889 C9.20054945,16.7638889 11.7225275,14.2138889 11.7225275,11.05 C11.7225275,5.76111111 6.72527473,0.613888889 6.49175824,0.425 C6.25824176,0.188888889 5.88461538,0.188888889 5.6510989,0.425 C5.41758242,0.661111111 0.42032967,5.76111111 0.42032967,11.05 C0.42032967,14.2138889 2.94230769,16.7638889 6.07142857,16.7638889 Z M6.07142857,1.7 C7.23901099,3.02222222 10.5549451,7.08333333 10.5549451,11.05 C10.5549451,13.5527778 8.5467033,15.5833333 6.07142857,15.5833333 C3.59615385,15.5833333 1.58791209,13.5527778 1.58791209,11.05 C1.58791209,7.08333333 4.90384615,3.02222222 6.07142857,1.7 Z" id="Shape"></path>
                    <path d="M6.07142857,14.4027778 C6.39835165,14.4027778 6.63186813,14.1194444 6.63186813,13.8361111 C6.63186813,13.5527778 6.39835165,13.2222222 6.07142857,13.2222222 C4.90384615,13.2222222 3.92307692,12.2305556 3.92307692,11.05 C3.92307692,10.7194444 3.64285714,10.4833333 3.36263736,10.4833333 C3.08241758,10.4833333 2.8021978,10.7666667 2.8021978,11.05 C2.75549451,12.8916667 4.25,14.4027778 6.07142857,14.4027778 Z" id="Shape"></path>
                </g>
            </g>
            <g id="icon--tear-copy" transform="translate(228.000000, 203.000000)" fill-rule="nonzero" fill="#77AEFC">
                <g id="Group">
                    <path d="M6.07142857,16.7638889 C9.20054945,16.7638889 11.7225275,14.2138889 11.7225275,11.05 C11.7225275,5.76111111 6.72527473,0.613888889 6.49175824,0.425 C6.25824176,0.188888889 5.88461538,0.188888889 5.6510989,0.425 C5.41758242,0.661111111 0.42032967,5.76111111 0.42032967,11.05 C0.42032967,14.2138889 2.94230769,16.7638889 6.07142857,16.7638889 Z M6.07142857,1.7 C7.23901099,3.02222222 10.5549451,7.08333333 10.5549451,11.05 C10.5549451,13.5527778 8.5467033,15.5833333 6.07142857,15.5833333 C3.59615385,15.5833333 1.58791209,13.5527778 1.58791209,11.05 C1.58791209,7.08333333 4.90384615,3.02222222 6.07142857,1.7 Z" id="Shape"></path>
                    <path d="M6.07142857,14.4027778 C6.39835165,14.4027778 6.63186813,14.1194444 6.63186813,13.8361111 C6.63186813,13.5527778 6.39835165,13.2222222 6.07142857,13.2222222 C4.90384615,13.2222222 3.92307692,12.2305556 3.92307692,11.05 C3.92307692,10.7194444 3.64285714,10.4833333 3.36263736,10.4833333 C3.08241758,10.4833333 2.8021978,10.7666667 2.8021978,11.05 C2.75549451,12.8916667 4.25,14.4027778 6.07142857,14.4027778 Z" id="Shape"></path>
                </g>
            </g>
            <g id="icon--bottle" transform="translate(313.000000, 146.000000)" fill-rule="nonzero" fill="#77AEFC">
                <path d="M15.8734692,3.36598704 C16.092773,3.08651143 16.2121221,2.74388027 16.2121221,2.38284947 C16.2121221,1.9571713 16.0465253,1.55635749 15.745169,1.25549851 C15.169308,0.679639468 14.259769,0.637867336 13.6351758,1.12719832 C12.4907306,0.664099271 11.2864866,0.837994524 10.3508711,1.59057709 C9.88861116,1.42898969 9.34025838,1.52350541 8.98404503,1.88009171 C8.70214511,2.16199163 8.58292045,2.54182608 8.61468467,2.91099996 C8.04103235,2.92218895 7.47064349,3.14236301 7.03418039,3.57882611 L1.462073,9.15143085 C0.56596078,10.0475431 0.56596078,11.5055903 1.462073,12.4017025 L4.59896306,15.5385926 C5.03309514,15.9727227 5.60994874,16.2124153 6.22409887,16.2124153 C6.83824899,16.2124153 7.41510264,15.9727227 7.84923467,15.5385926 L13.4218394,9.96648519 C13.85852,9.52980455 14.0785698,8.95944675 14.0896655,8.3858566 C14.1270553,8.38905788 14.1641033,8.39654829 14.2015863,8.39654829 C14.5342717,8.39654829 14.8669571,8.27023723 15.1205738,8.01711785 C15.4913949,7.64629674 15.5878998,7.10577617 15.4159937,6.64351632 C16.1642892,5.70867778 16.3358845,4.50810123 15.8734692,3.36598704 Z M13.5113512,2.19139378 C13.734136,2.30875368 14.0146062,2.23714426 14.1642898,2.03524549 C14.1792085,2.01485668 14.1926352,1.99397061 14.2110349,1.97557098 C14.4353116,1.75129427 14.7998234,1.75029971 15.0250946,1.97557098 C15.2493714,2.20034494 15.2493714,2.56535404 15.0275811,2.78764163 C15.006695,2.80803044 14.9828252,2.82394364 14.9604473,2.8403541 C14.9604473,2.8408514 14.9559717,2.84383509 14.9559717,2.8443324 C14.7545702,2.99401596 14.6924093,3.2680214 14.8092718,3.48981167 C15.2324014,4.29429867 15.2085938,5.13455926 14.7632106,5.82128235 L11.1795698,2.23764152 C11.8663239,1.79256915 12.7072372,1.76919665 13.5113512,2.19139378 Z M12.701767,9.24641276 L7.12916235,14.8185202 C6.64579879,15.3028783 5.80239904,15.3028783 5.31903554,14.8185202 L2.18214547,11.6816301 C1.68336602,11.1823533 1.68336602,10.37078 2.18214547,9.87150328 L7.75425281,4.29889858 C8.00389119,4.0492602 8.33160372,3.92444101 8.6598135,3.92444101 C8.98737061,3.92444101 9.31492772,4.04919802 9.56450393,4.29858775 L12.7036629,7.43811966 C13.2002978,7.93761402 13.1998316,8.7478509 12.701767,9.24641276 Z M14.4009987,7.29654812 C14.2906008,7.40694598 14.1125719,7.40694598 14.0021741,7.29654812 L14.0026714,7.29654812 L13.4218395,6.71571622 L10.2849494,3.57882616 L9.70411751,2.99799426 C9.59471421,2.88809371 9.59471421,2.71006474 9.70461481,2.59966688 C9.81003976,2.49424194 9.99552807,2.49374463 10.1019476,2.60016419 L14.4014649,6.90017886 C14.5100601,7.01020371 14.5099669,7.18758001 14.4009987,7.29654812 Z" id="Shape" transform="translate(8.501055, 8.500886) scale(-1, 1) translate(-8.501055, -8.500886) "></path>
            </g>
            <path d="M28.5,409.5 L346.501572,409.5" id="Line" stroke-opacity="0.173856431" stroke="#FFFFFF" stroke-linecap="square"></path>
            <text id="2:30a" font-family="Avenir-Light, Avenir" font-size="14.9899998" font-weight="300" letter-spacing="0.600000024" fill="#FFFFFF">
                <tspan x="49" y="496">2:30a</tspan>
            </text>
            <text id="2:30a" font-family="Avenir-Light, Avenir" font-size="12" font-weight="300" letter-spacing="0.480320275" fill="#FBDBFF">
                <tspan x="58" y="127">2:30a</tspan>
            </text>
            <text id="4:00a" font-family="Avenir-Light, Avenir" font-size="12" font-weight="300" letter-spacing="0.480320275" fill="#FBDBFF">
                <tspan x="219" y="238">4:00a</tspan>
            </text>
            <text id="5:00a" font-family="Avenir-Light, Avenir" font-size="12" font-weight="300" letter-spacing="0.480320275" fill="#FBDBFF">
                <tspan x="306" y="181">5:00a</tspan>
            </text>
            <text id="4h-58m" font-family="Avenir-Light, Avenir" font-size="14.9899998" font-weight="300" letter-spacing="0.600000024" fill="#FFFFFF">
                <tspan x="54" y="637">4h 58m</tspan>
            </text>
            <text id="1h" font-family="Avenir-Light, Avenir" font-size="14.9899998" font-weight="300" letter-spacing="0.600000024" fill="#FFFFFF">
                <tspan x="152" y="637">1h </tspan>
            </text>
            <text id="avg" font-family="Avenir-Light, Avenir" font-size="12" font-weight="300" letter-spacing="0.480320275" fill="#50E3C2">
                <tspan x="197" y="637">avg</tspan>
            </text>
            <text id="4:00a" font-family="Avenir-Light, Avenir" font-size="14.9899998" font-weight="300" letter-spacing="0.600000024" fill="#FFFFFF">
                <tspan x="49" y="526">4:00a</tspan>
            </text>
            <text id="5:00a" font-family="Avenir-Light, Avenir" font-size="14.9899998" font-weight="300" letter-spacing="0.600000024" fill="#FFFFFF">
                <tspan x="228" y="499">5:00a</tspan>
            </text>
            <text id="crying" font-family="Avenir-Heavy, Avenir" font-size="18" font-weight="600" fill="#FFFFFF">
                <tspan x="49" y="467">crying</tspan>
            </text>
            <text id="May-8th" font-family="Avenir-Heavy, Avenir" font-size="18" font-weight="600" fill="#FFFFFF">
                <tspan x="280" y="47">May 8th</tspan>
            </text>
            <text id="5:55a" font-family="Avenir-Heavy, Avenir" font-size="18" font-weight="600" fill="#FFFFFF">
                <tspan x="300" y="75">5:55a</tspan>
            </text>
            <text id="avg-sleep-time" font-family="Avenir-Heavy, Avenir" font-size="18" font-weight="600" fill="#FFFFFF">
                <tspan x="54" y="608">avg sleep time</tspan>
            </text>
            <circle id="Oval" fill="#FC79F7" cx="140" cy="461" r="19"></circle>
            <circle id="Oval-Copy" fill="#FC79F7" cx="332" cy="464" r="19"></circle>
            <text id="2x" font-family="Avenir-Heavy, Avenir" font-size="18" font-weight="600" fill="#FFFFFF">
                <tspan x="129.339" y="467">2x</tspan>
            </text>
            <text id="1x" font-family="Avenir-Heavy, Avenir" font-size="18" font-weight="600" fill="#FFFFFF">
                <tspan x="321.339" y="470">1x</tspan>
            </text>
            <text id="feeding" font-family="Avenir-Heavy, Avenir" font-size="18" font-weight="600" fill="#FFFFFF">
                <tspan x="228" y="470">feeding</tspan>
            </text>
            <path d="M0.408765364,266.366505 C46.1965352,266.366505 65.9375334,157.542908 65.9375334,157.542908 C69.7001474,141.410609 75.6541689,141.443116 79.995433,157.437529 C79.995433,157.437529 97.8337929,266.366505 173.33971,266.366505 C201.763503,266.366505 204.201361,256.692147 233.685083,256.692147 C249.300096,256.692147 255.754076,266.810237 270.877411,266.366505 C295.723365,265.637503 309.833782,210.453788 309.833782,210.453788 C315.082062,194.757053 323.72228,194.726473 329.796145,210.143695 C329.796145,210.143695 345.605497,266.366505 375,266.366505 C375,311.798286 375,340 375,340 L2.84217094e-14,340 C2.84217094e-14,340 0.408765364,314.972671 0.408765364,266.366505 Z" id="Path-11-Copy" fill="url(#linearGradient-2)"></path>
            <text id="activity" font-family="Avenir-Heavy, Avenir" font-size="25.9200001" font-weight="600" letter-spacing="1.03749144" fill="#FFFFFF">
                <tspan x="24" y="385">activity</tspan>
            </text>
            <text id="check---simple-line-icons" font-family="simple-line-icons" font-size="12" font-weight="normal" fill="#50E3C2">
                <tspan x="96" y="496"></tspan>
            </text>
            <text id="check---simple-line-icons-copy-2" font-family="simple-line-icons" font-size="12" font-weight="normal" fill="#50E3C2">
                <tspan x="275" y="499"></tspan>
            </text>
            <text id="check---simple-line-icons-copy" font-family="simple-line-icons" font-size="12" font-weight="normal" fill="#50E3C2">
                <tspan x="96" y="526"></tspan>
            </text>
            <text id="arrow-down-circle---simple-line-icons" font-family="simple-line-icons" font-size="12" font-weight="normal" fill="#50E3C2">
                <tspan x="177" y="638"></tspan>
            </text>
            <path d="M18.5,144.339426 L18.5,306.584869" id="Line" stroke-opacity="0.0801913496" stroke="#FFFFFF" opacity="0.319010417" stroke-linecap="square"></path>
            <path d="M86.5,144.339426 L86.5,306.584869" id="Line-Copy" stroke-opacity="0.0801913496" stroke="#FFFFFF" opacity="0.319010417" stroke-linecap="square"></path>
            <path d="M154.5,144.339426 L154.5,306.584869" id="Line-Copy-2" stroke-opacity="0.0801913496" stroke="#FFFFFF" opacity="0.319010417" stroke-linecap="square"></path>
            <path d="M222.5,144.339426 L222.5,306.584869" id="Line-Copy-3" stroke-opacity="0.0801913496" stroke="#FFFFFF" opacity="0.319010417" stroke-linecap="square"></path>
            <path d="M290.5,144.339426 L290.5,306.584869" id="Line-Copy-4" stroke-opacity="0.0801913496" stroke="#FFFFFF" opacity="0.319010417" stroke-linecap="square"></path>
            <path d="M358.5,144.339426 L358.5,306.584869" id="Line-Copy-5" stroke-opacity="0.0801913496" stroke="#FFFFFF" opacity="0.319010417" stroke-linecap="square"></path>
            <g id="particles" opacity="0.399999976" transform="translate(246.000000, 199.000000)" fill="#FFFFFF">
                <ellipse id="Oval-7" cx="128.418919" cy="28" rx="1" ry="1"></ellipse>
                <ellipse id="Oval-7-Copy" opacity="0.279891304" cx="100.817568" cy="0.875" rx="1" ry="1"></ellipse>
                <ellipse id="Oval-7-Copy-7" opacity="0.279891304" cx="116.506757" cy="94.2083333" rx="1" ry="1"></ellipse>
                <ellipse id="Oval-7-Copy-2" opacity="0.497339221" cx="99.0743243" cy="15.4583333" rx="1" ry="1"></ellipse>
                <ellipse id="Oval-7-Copy-5" opacity="0.441576087" transform="translate(88.701199, 65.711669) scale(-1, -1) rotate(-276.000000) translate(-88.701199, -65.711669) " cx="88.7011993" cy="65.7116691" rx="1" ry="1"></ellipse>
                <ellipse id="Oval-7-Copy-6" transform="translate(24.201199, 17.295002) scale(-1, -1) rotate(-276.000000) translate(-24.201199, -17.295002) " cx="24.2011993" cy="17.2950024" rx="1" ry="1"></ellipse>
                <ellipse id="Oval-7-Copy-4" opacity="0.279891304" transform="translate(0.860364, 95.861011) scale(-1, -1) rotate(-276.000000) translate(-0.860364, -95.861011) " cx="0.860363688" cy="95.8610109" rx="1" ry="1"></ellipse>
                <ellipse id="Oval-7-Copy-3" opacity="0.497339221" transform="translate(15.490029, 125.243717) scale(-1, -1) rotate(-276.000000) translate(-15.490029, -125.243717) " cx="15.4900287" cy="125.243717" rx="1" ry="1"></ellipse>
            </g>
            <g id="particles-copy-2" opacity="0.399999976" transform="translate(0.000000, 149.000000)" fill="#FFFFFF">
                <ellipse id="Oval-7" cx="128.418919" cy="28" rx="1" ry="1"></ellipse>
                <ellipse id="Oval-7-Copy" opacity="0.279891304" cx="100.817568" cy="0.875" rx="1" ry="1"></ellipse>
                <ellipse id="Oval-7-Copy-7" opacity="0.279891304" cx="116.506757" cy="94.2083333" rx="1" ry="1"></ellipse>
                <ellipse id="Oval-7-Copy-2" opacity="0.497339221" cx="99.0743243" cy="15.4583333" rx="1" ry="1"></ellipse>
                <ellipse id="Oval-7-Copy-5" opacity="0.441576087" transform="translate(88.701199, 65.711669) scale(-1, -1) rotate(-276.000000) translate(-88.701199, -65.711669) " cx="88.7011993" cy="65.7116691" rx="1" ry="1"></ellipse>
                <ellipse id="Oval-7-Copy-6" transform="translate(24.201199, 17.295002) scale(-1, -1) rotate(-276.000000) translate(-24.201199, -17.295002) " cx="24.2011993" cy="17.2950024" rx="1" ry="1"></ellipse>
                <ellipse id="Oval-7-Copy-4" opacity="0.279891304" transform="translate(0.860364, 95.861011) scale(-1, -1) rotate(-276.000000) translate(-0.860364, -95.861011) " cx="0.860363688" cy="95.8610109" rx="1" ry="1"></ellipse>
                <ellipse id="Oval-7-Copy-3" opacity="0.497339221" transform="translate(15.490029, 125.243717) scale(-1, -1) rotate(-276.000000) translate(-15.490029, -125.243717) " cx="15.4900287" cy="125.243717" rx="1" ry="1"></ellipse>
            </g>
            <g id="icon--moon" transform="translate(245.000000, 29.000000)" fill-rule="nonzero" fill="#77AEFC">
                <path d="M18.4345785,0 C15.2434961,0.597699539 12.803647,3.28934285 12.655802,6.57310971 C11.9361513,6.2679939 11.1448421,6.10097779 10.3182941,6.10097779 C7.45431485,6.10097779 5.02993363,8.16693303 4.52531473,10.8652719 C2.02618142,10.8843251 0,12.8923095 0,15.358497 C0,17.3257341 1.33440102,19.093727 3.22083706,19.6515716 C3.62606772,19.7832611 4.04544446,19.8499623 4.46738045,19.8499623 L16.8584565,19.8499623 C17.3322803,19.8499623 17.7991013,19.7650283 18.1990728,19.6142829 C20.3624123,18.9446721 21.816366,16.9904964 21.816366,14.7521342 C21.816366,14.3692928 21.7729153,13.9962814 21.691273,13.6373429 C23.1625508,13.2330318 24.4399737,12.3797351 25.3623944,11.2282122 C24.9281404,11.3105161 24.48334,11.3555507 24.0253779,11.3555507 C20.0915835,11.3555507 16.9032853,8.2136859 16.9032853,4.33810364 C16.9032853,2.69828903 17.4781847,1.19457044 18.4345785,7.87668319e-16 L18.4345785,0 Z M10.9213451,0.813408463 L10.0009492,1.71686678 L8.72375072,1.4820992 L9.30919638,2.62292463 L8.68769647,3.74820272 L9.9720102,3.5515663 L10.86687,4.48190405 L11.0725648,3.21810223 L12.245256,2.66971075 L11.0901138,2.08417472 L10.9213451,0.813408463 L10.9213451,0.813408463 Z M19.8393725,3.6632882 L19.4789425,4.4576297 L18.6113343,4.61444719 L19.2653731,5.19653288 L19.1493076,6.059327 L19.9131684,5.62624356 L20.7078244,6.00128915 L20.5276375,5.15150934 L21.1350757,4.52179226 L20.2577931,4.42991331 L19.8393725,3.6632882 Z M4.76273282,4.48366109 L4.21156963,5.02417359 L3.44765261,4.88382076 L3.80012369,5.56644313 L3.4274881,6.23949876 L4.19486431,6.12173252 L4.72845035,6.6787069 L4.85416213,5.92157925 L5.55474516,5.59331979 L4.86293664,5.24423078 L4.76273282,4.48366109 L4.76273282,4.48366109 Z M10.3182941,7.83338858 C12.2442998,7.83338858 13.8978175,9.12500102 14.3391025,10.9744553 L14.565918,11.9194868 L15.4932885,11.591158 C15.8695239,11.4577752 16.2581336,11.3902343 16.6440153,11.3902343 C18.5278359,11.3902343 20.059101,12.8983372 20.059101,14.7529795 C20.059101,16.2307747 19.1009072,17.5215031 17.6258327,17.9788858 C17.3770809,18.0715657 17.1195546,18.1183241 16.8584565,18.1183241 L4.46738045,18.1183241 C4.23266221,18.1183241 3.99878768,18.0810826 3.75000772,17.9996433 C2.57737273,17.6522643 1.75810878,16.567764 1.75810878,15.358497 C1.75810878,13.8365013 3.01517033,12.5977498 4.56052528,12.5977498 C4.75483014,12.5977498 4.93940428,12.615905 5.1301937,12.6548814 L6.16744244,12.8679742 L6.18760695,11.8250803 C6.23240759,9.62392646 8.08633293,7.83338858 10.3182941,7.83338858 L10.3182941,7.83338858 Z" id="Shape"></path>
            </g>
            <g id="icon--bottle" transform="translate(203.000000, 456.000000)" fill-rule="nonzero" fill="#77AEFC">
                <path d="M15.8734692,3.36598704 C16.092773,3.08651143 16.2121221,2.74388027 16.2121221,2.38284947 C16.2121221,1.9571713 16.0465253,1.55635749 15.745169,1.25549851 C15.169308,0.679639468 14.259769,0.637867336 13.6351758,1.12719832 C12.4907306,0.664099271 11.2864866,0.837994524 10.3508711,1.59057709 C9.88861116,1.42898969 9.34025838,1.52350541 8.98404503,1.88009171 C8.70214511,2.16199163 8.58292045,2.54182608 8.61468467,2.91099996 C8.04103235,2.92218895 7.47064349,3.14236301 7.03418039,3.57882611 L1.462073,9.15143085 C0.56596078,10.0475431 0.56596078,11.5055903 1.462073,12.4017025 L4.59896306,15.5385926 C5.03309514,15.9727227 5.60994874,16.2124153 6.22409887,16.2124153 C6.83824899,16.2124153 7.41510264,15.9727227 7.84923467,15.5385926 L13.4218394,9.96648519 C13.85852,9.52980455 14.0785698,8.95944675 14.0896655,8.3858566 C14.1270553,8.38905788 14.1641033,8.39654829 14.2015863,8.39654829 C14.5342717,8.39654829 14.8669571,8.27023723 15.1205738,8.01711785 C15.4913949,7.64629674 15.5878998,7.10577617 15.4159937,6.64351632 C16.1642892,5.70867778 16.3358845,4.50810123 15.8734692,3.36598704 Z M13.5113512,2.19139378 C13.734136,2.30875368 14.0146062,2.23714426 14.1642898,2.03524549 C14.1792085,2.01485668 14.1926352,1.99397061 14.2110349,1.97557098 C14.4353116,1.75129427 14.7998234,1.75029971 15.0250946,1.97557098 C15.2493714,2.20034494 15.2493714,2.56535404 15.0275811,2.78764163 C15.006695,2.80803044 14.9828252,2.82394364 14.9604473,2.8403541 C14.9604473,2.8408514 14.9559717,2.84383509 14.9559717,2.8443324 C14.7545702,2.99401596 14.6924093,3.2680214 14.8092718,3.48981167 C15.2324014,4.29429867 15.2085938,5.13455926 14.7632106,5.82128235 L11.1795698,2.23764152 C11.8663239,1.79256915 12.7072372,1.76919665 13.5113512,2.19139378 Z M12.701767,9.24641276 L7.12916235,14.8185202 C6.64579879,15.3028783 5.80239904,15.3028783 5.31903554,14.8185202 L2.18214547,11.6816301 C1.68336602,11.1823533 1.68336602,10.37078 2.18214547,9.87150328 L7.75425281,4.29889858 C8.00389119,4.0492602 8.33160372,3.92444101 8.6598135,3.92444101 C8.98737061,3.92444101 9.31492772,4.04919802 9.56450393,4.29858775 L12.7036629,7.43811966 C13.2002978,7.93761402 13.1998316,8.7478509 12.701767,9.24641276 Z M14.4009987,7.29654812 C14.2906008,7.40694598 14.1125719,7.40694598 14.0021741,7.29654812 L14.0026714,7.29654812 L13.4218395,6.71571622 L10.2849494,3.57882616 L9.70411751,2.99799426 C9.59471421,2.88809371 9.59471421,2.71006474 9.70461481,2.59966688 C9.81003976,2.49424194 9.99552807,2.49374463 10.1019476,2.60016419 L14.4014649,6.90017886 C14.5100601,7.01020371 14.5099669,7.18758001 14.4009987,7.29654812 Z" id="Shape" transform="translate(8.501055, 8.500886) scale(-1, 1) translate(-8.501055, -8.500886) "></path>
            </g>
            <g id="icon--tear" transform="translate(29.000000, 453.000000)" fill-rule="nonzero" fill="#77AEFC">
                <g id="Group">
                    <path d="M6.07142857,16.7638889 C9.20054945,16.7638889 11.7225275,14.2138889 11.7225275,11.05 C11.7225275,5.76111111 6.72527473,0.613888889 6.49175824,0.425 C6.25824176,0.188888889 5.88461538,0.188888889 5.6510989,0.425 C5.41758242,0.661111111 0.42032967,5.76111111 0.42032967,11.05 C0.42032967,14.2138889 2.94230769,16.7638889 6.07142857,16.7638889 Z M6.07142857,1.7 C7.23901099,3.02222222 10.5549451,7.08333333 10.5549451,11.05 C10.5549451,13.5527778 8.5467033,15.5833333 6.07142857,15.5833333 C3.59615385,15.5833333 1.58791209,13.5527778 1.58791209,11.05 C1.58791209,7.08333333 4.90384615,3.02222222 6.07142857,1.7 Z" id="Shape"></path>
                    <path d="M6.07142857,14.4027778 C6.39835165,14.4027778 6.63186813,14.1194444 6.63186813,13.8361111 C6.63186813,13.5527778 6.39835165,13.2222222 6.07142857,13.2222222 C4.90384615,13.2222222 3.92307692,12.2305556 3.92307692,11.05 C3.92307692,10.7194444 3.64285714,10.4833333 3.36263736,10.4833333 C3.08241758,10.4833333 2.8021978,10.7666667 2.8021978,11.05 C2.75549451,12.8916667 4.25,14.4027778 6.07142857,14.4027778 Z" id="Shape"></path>
                </g>
            </g>
            <g id="icon--stopwatch" transform="translate(33.000000, 596.000000)" fill-rule="nonzero" fill="#77AEFC">
                <path d="M6.35227273,3.9 C6.10763636,3.9 5.90909091,4.10145 5.90909091,4.35 L5.90909091,8.55 C5.90909091,8.79855 6.10763636,9 6.35227273,9 C6.59690909,9 6.79545455,8.79855 6.79545455,8.55 L6.79545455,4.35 C6.79545455,4.10145 6.59690909,3.9 6.35227273,3.9 Z" id="Shape"></path>
                <path d="M12.9270227,3.57105 C12.9270227,3.57105 12.7181364,2.93475 12.3002159,2.51055 C11.8824432,2.0862 11.2557841,1.8741 11.2557841,1.8741 L9.92801136,3.2223 C9.21936364,2.7303 8.40804545,2.3814 7.53409091,2.2137 L7.53409091,0.3 C7.53409091,0.3 6.94318182,0 6.35227273,0 C5.76136364,0 5.17045455,0.3 5.17045455,0.3 L5.17045455,2.2137 C2.23097727,2.778 0,5.4036 0,8.55 C0,12.1065 2.84965909,15 6.35227273,15 C9.85488636,15 12.7045455,12.1065 12.7045455,8.55 C12.7045455,7.20435 12.2960795,5.95425 11.59925,4.91925 L12.9270227,3.57105 Z M6.35227273,14.1 C3.33834091,14.1 0.886363636,11.6103 0.886363636,8.55 C0.886363636,5.4897 3.33834091,3 6.35227273,3 C9.36620455,3 11.8181818,5.4897 11.8181818,8.55 C11.8181818,11.6103 9.36620455,14.1 6.35227273,14.1 Z" id="Shape"></path>
            </g>
            <g id="icon--arrow" transform="translate(20.000000, 29.000000)" font-size="24" font-family="simple-line-icons" fill="#77AEFC" font-weight="normal">
                <text id="arrow-left-circle---simple-line-icons">
                    <tspan x="0" y="23"></tspan>
                </text>
            </g>
            <text id="back" font-family="Avenir-Light, Avenir" font-size="14.9899998" font-weight="300" letter-spacing="0.600000024" fill="#FFFFFF">
                <tspan x="56.1204602" y="44">back</tspan>
            </text>
        </g>
    </g>
</svg>