<?xml version="1.0" encoding="UTF-8"?>
<svg width="435px" height="436px" viewBox="0 0 435 436" version="1.1" xmlns="http://www.w3.org/2000/svg" xmlns:xlink="http://www.w3.org/1999/xlink">
    <!-- Generator: Sketch 43.2 (39069) - http://www.bohemiancoding.com/sketch -->
    <title>lumi-happy--group</title>
    <desc>Created with Sketch.</desc>
    <defs>
        <filter x="-58.9%" y="-65.1%" width="217.7%" height="230.2%" filterUnits="objectBoundingBox" id="filter-1">
            <feGaussianBlur stdDeviation="45.8203125" in="SourceGraphic"></feGaussianBlur>
        </filter>
        <radialGradient cx="54.2629063%" cy="18.147206%" fx="54.2629063%" fy="18.147206%" r="91.6577303%" gradientTransform="translate(0.542629,0.181472),scale(0.904179,1.000000),rotate(67.812036),translate(-0.542629,-0.181472)" id="radialGradient-2">
            <stop stop-color="#FFFFFF" offset="0%"></stop>
            <stop stop-color="#FDFDFD" stop-opacity="0" offset="100%"></stop>
        </radialGradient>
    </defs>
    <g id="Symbols" stroke="none" stroke-width="1" fill="none" fill-rule="evenodd">
        <g id="lumi-happy--group" transform="translate(108.000000, 108.000000)">
            <g id="lumi--happy" transform="translate(-7.000000, 2.000000)">
                <path d="M22.2242836,110.290833 C21.3560529,105.21514 20.9042753,100.002402 20.9042753,94.6869927 C20.9042753,42.5839861 64.3129748,0.346153846 117.860319,0.346153846 C171.407664,0.346153846 214.816363,42.5839861 214.816363,94.6869927 C214.816363,101.908766 213.982415,108.941014 212.403112,115.697534 C212.436449,116.229686 212.389308,116.767098 212.258325,117.309414 C211.643309,119.855793 211.100068,122.366604 210.620366,124.839758 C218.352036,125.022883 236.446589,121.988327 233.630422,130.655596 C231.033934,138.646766 217.906372,145.747979 207.517375,150.128848 C205.121076,190.964472 214.628972,215.830564 181.379082,210.86725 C139.952068,204.683312 29.3747385,218.121396 23.6984294,201.910079 C19.3497216,189.490339 28.4673826,172.205444 27.7582326,145.436369 C27.5891257,145.456093 27.4448662,145.422422 27.3294405,145.330957 C17.1321298,137.250451 0.538461538,121.91224 0.538461538,110.456733 C0.538461538,101.896928 12.9914785,106.800122 22.2242836,110.290833 Z" id="lumi--glow" fill="#BD9AFB" filter="url(#filter-1)"></path>
                <path d="M22.2242836,110.290833 C21.3560529,105.21514 20.9042753,100.002402 20.9042753,94.6869927 C20.9042753,42.5839861 64.3129748,0.346153846 117.860319,0.346153846 C171.407664,0.346153846 214.816363,42.5839861 214.816363,94.6869927 C214.816363,101.908766 213.982415,108.941014 212.403112,115.697534 C212.436449,116.229686 212.389308,116.767098 212.258325,117.309414 C211.643309,119.855793 211.100068,122.366604 210.620366,124.839758 C218.352036,125.022883 236.446589,121.988327 233.630422,130.655596 C231.033934,138.646766 217.906372,145.747979 207.517375,150.128848 C205.121076,190.964472 214.628972,215.830564 181.379082,210.86725 C139.952068,204.683312 29.3747385,218.121396 23.6984294,201.910079 C19.3497216,189.490339 28.4673826,172.205444 27.7582326,145.436369 C27.5891257,145.456093 27.4448662,145.422422 27.3294405,145.330957 C17.1321298,137.250451 0.538461538,121.91224 0.538461538,110.456733 C0.538461538,101.896928 12.9914785,106.800122 22.2242836,110.290833 Z" id="lumi--body-color" fill="#BD9AFB"></path>
                <path d="M22.2242836,110.290833 C21.3560529,105.21514 20.9042753,100.002402 20.9042753,94.6869927 C20.9042753,42.5839861 64.3129748,0.346153846 117.860319,0.346153846 C171.407664,0.346153846 214.816363,42.5839861 214.816363,94.6869927 C214.816363,101.908766 213.982415,108.941014 212.403112,115.697534 C212.436449,116.229686 212.389308,116.767098 212.258325,117.309414 C211.643309,119.855793 211.100068,122.366604 210.620366,124.839758 C218.352036,125.022883 236.446589,121.988327 233.630422,130.655596 C231.033934,138.646766 217.906372,145.747979 207.517375,150.128848 C205.121076,190.964472 214.628972,215.830564 181.379082,210.86725 C139.952068,204.683312 29.3747385,218.121396 23.6984294,201.910079 C19.3497216,189.490339 28.4673826,172.205444 27.7582326,145.436369 C27.5891257,145.456093 27.4448662,145.422422 27.3294405,145.330957 C17.1321298,137.250451 0.538461538,121.91224 0.538461538,110.456733 C0.538461538,101.896928 12.9914785,106.800122 22.2242836,110.290833 Z" id="lumi-gradient" fill="url(#radialGradient-2)"></path>
                <g id="lumi-eyes" transform="translate(72.461538, 85.384615)" fill="#BD9AFB">
                    <ellipse id="lumi-eye--left" transform="translate(6.744071, 9.635282) rotate(1.000000) translate(-6.744071, -9.635282) " cx="6.74407107" cy="9.63528221" rx="5.84037016" ry="8.77207377"></ellipse>
                    <ellipse id="lumi-eye--right" transform="translate(89.907804, 9.819029) scale(-1, 1) rotate(-8.000000) translate(-89.907804, -9.819029) " cx="89.9078039" cy="9.81902929" rx="5.84037016" ry="8.77207377"></ellipse>
                </g>
                <path d="M165.59214,127.753135 C143.173351,117.696052 119.476004,146.070016 81.0964587,127.753135 C44.8262748,127.753135 55.2119152,174.402458 81.0964587,183.971681 C106.981002,193.540903 173.739809,194.673207 165.59214,177.63733 C157.444471,160.601453 185.421192,136.64846 165.59214,127.753135 Z" id="lumi-mouth" fill="#BD9AFB"></path>
            </g>
            <g id="particles" opacity="0.404268569" fill="#FFFFFF">
                <circle id="particles8" cx="221" cy="48" r="1"></circle>
                <circle id="particles7" opacity="0.279891304" cx="173.5" cy="1.5" r="1.5"></circle>
                <circle id="particles6" opacity="0.279891304" cx="200.5" cy="161.5" r="1.5"></circle>
                <circle id="particles5" opacity="0.497339221" cx="170.5" cy="26.5" r="1.5"></circle>
                <circle id="particles4" opacity="0.441576087" transform="translate(152.648576, 112.648576) scale(-1, -1) rotate(-276.000000) translate(-152.648576, -112.648576) " cx="152.648576" cy="112.648576" r="1.5"></circle>
                <circle id="particles3" transform="translate(41.648576, 29.648576) scale(-1, -1) rotate(-276.000000) translate(-41.648576, -29.648576) " cx="41.6485755" cy="29.6485755" r="1.5"></circle>
                <circle id="particles2" opacity="0.279891304" transform="translate(1.480626, 164.333162) scale(-1, -1) rotate(-276.000000) translate(-1.480626, -164.333162) " cx="1.48062588" cy="164.333162" r="1"></circle>
                <circle id="particles1" opacity="0.497339221" transform="translate(26.657259, 214.703516) scale(-1, -1) rotate(-276.000000) translate(-26.657259, -214.703516) " cx="26.6572587" cy="214.703516" r="1"></circle>
            </g>
        </g>
    </g>
</svg>