<?xml version="1.0" encoding="UTF-8"?>
<svg width="299px" height="312px" viewBox="0 0 299 312" version="1.1" xmlns="http://www.w3.org/2000/svg" xmlns:xlink="http://www.w3.org/1999/xlink">
    <!-- Generator: Sketch 43.2 (39069) - http://www.bohemiancoding.com/sketch -->
    <title>lumi-happy--group</title>
    <desc>Created with Sketch.</desc>
    <defs>
        <filter x="-77.0%" y="-82.6%" width="254.0%" height="265.3%" filterUnits="objectBoundingBox" id="filter-1">
            <feGaussianBlur stdDeviation="45.8203125" in="SourceGraphic"></feGaussianBlur>
        </filter>
        <radialGradient cx="54.2629063%" cy="18.147206%" fx="54.2629063%" fy="18.147206%" r="91.6577303%" gradientTransform="translate(0.542629,0.181472),scale(0.931578,1.000000),rotate(68.403770),translate(-0.542629,-0.181472)" id="radialGradient-2">
            <stop stop-color="#FFFFFF" offset="0%"></stop>
            <stop stop-color="#FDFDFD" stop-opacity="0" offset="100%"></stop>
        </radialGradient>
    </defs>
    <g id="Symbols" stroke="none" stroke-width="1" fill="none" fill-rule="evenodd">
        <g id="lumi-happy--group" transform="translate(58.000000, 63.000000)">
            <g id="lumi--happy" transform="translate(12.000000, 20.000000)">
                <path d="M16.5832757,86.6230807 C15.9193345,82.6240494 15.5738576,78.5170442 15.5738576,74.3291457 C15.5738576,33.2782921 48.7687454,0 89.7167147,0 C130.664684,0 163.859572,33.2782921 163.859572,74.3291457 C163.859572,80.0190276 163.221847,85.5595865 162.014145,90.8829053 C162.039638,91.3021772 162.003588,91.7255922 161.903425,92.1528714 C161.429141,94.1760772 161.010677,96.1707833 160.641571,98.135302 C166.516733,98.2544931 180.570999,95.6852613 178.340661,102.549537 C176.303296,108.819903 166.261286,114.467893 158.279526,117.983712 C156.441474,150.17321 163.723358,169.776686 138.289886,165.865106 C106.610405,160.992913 22.0512706,171.580494 17.7105637,158.807941 C14.3850812,149.022691 21.3574102,135.404289 20.815119,114.313503 C20.685802,114.329043 20.5754859,114.302515 20.4872192,114.230451 C12.6892757,107.863991 0,95.7793403 0,86.7537897 C5.3419389e-16,80.0097006 9.52289531,83.8728232 16.5832757,86.6230807 Z" id="lumi--glow" fill="#BD9AFB" filter="url(#filter-1)"></path>
                <path d="M16.5832757,86.6230807 C15.9193345,82.6240494 15.5738576,78.5170442 15.5738576,74.3291457 C15.5738576,33.2782921 48.7687454,0 89.7167147,0 C130.664684,0 163.859572,33.2782921 163.859572,74.3291457 C163.859572,80.0190276 163.221847,85.5595865 162.014145,90.8829053 C162.039638,91.3021772 162.003588,91.7255922 161.903425,92.1528714 C161.429141,94.1760772 161.010677,96.1707833 160.641571,98.135302 C166.516733,98.2544931 180.570999,95.6852613 178.340661,102.549537 C176.303296,108.819903 166.261286,114.467893 158.279526,117.983712 C156.441474,150.17321 163.723358,169.776686 138.289886,165.865106 C106.610405,160.992913 22.0512706,171.580494 17.7105637,158.807941 C14.3850812,149.022691 21.3574102,135.404289 20.815119,114.313503 C20.685802,114.329043 20.5754859,114.302515 20.4872192,114.230451 C12.6892757,107.863991 0,95.7793403 0,86.7537897 C5.3419389e-16,80.0097006 9.52289531,83.8728232 16.5832757,86.6230807 Z" id="lumi--body-color" fill="#BD9AFB"></path>
                <path d="M16.5832757,86.6230807 C15.9193345,82.6240494 15.5738576,78.5170442 15.5738576,74.3291457 C15.5738576,33.2782921 48.7687454,0 89.7167147,0 C130.664684,0 163.859572,33.2782921 163.859572,74.3291457 C163.859572,80.0190276 163.221847,85.5595865 162.014145,90.8829053 C162.039638,91.3021772 162.003588,91.7255922 161.903425,92.1528714 C161.429141,94.1760772 161.010677,96.1707833 160.641571,98.135302 C166.516733,98.2544931 180.570999,95.6852613 178.340661,102.549537 C176.303296,108.819903 166.261286,114.467893 158.279526,117.983712 C156.441474,150.17321 163.723358,169.776686 138.289886,165.865106 C106.610405,160.992913 22.0512706,171.580494 17.7105637,158.807941 C14.3850812,149.022691 21.3574102,135.404289 20.815119,114.313503 C20.685802,114.329043 20.5754859,114.302515 20.4872192,114.230451 C12.6892757,107.863991 0,95.7793403 0,86.7537897 C5.3419389e-16,80.0097006 9.52289531,83.8728232 16.5832757,86.6230807 Z" id="lumi-gradient" fill="url(#radialGradient-2)"></path>
                <g id="lumi-eyes" transform="translate(55.000000, 67.000000)" fill="#BD9AFB">
                    <ellipse id="lumi-eye--left" transform="translate(5.157231, 7.591434) rotate(1.000000) translate(-5.157231, -7.591434) " cx="5.15723082" cy="7.59143447" rx="4.46616541" ry="6.91133085"></ellipse>
                    <ellipse id="lumi-eye--right" transform="translate(68.753027, 7.736205) scale(-1, 1) rotate(-8.000000) translate(-68.753027, -7.736205) " cx="68.7530265" cy="7.73620489" rx="4.46616541" ry="6.91133085"></ellipse>
                </g>
                <path d="M126.217519,100.381258 C109.073739,92.4574952 90.9522384,114.81274 61.6031743,100.381258 C33.8671513,100.381258 41.8091116,137.13527 61.6031743,144.674658 C81.397237,152.214045 132.44809,153.106163 126.217519,139.683957 C119.986949,126.261751 141.380911,107.389696 126.217519,100.381258 Z" id="lumi-mouth" fill="#BD9AFB"></path>
            </g>
            <g id="particles" opacity="0.404268569" fill="#FFFFFF">
                <circle id="particles8" cx="221" cy="48" r="1"></circle>
                <circle id="particles7" opacity="0.279891304" cx="173.5" cy="1.5" r="1.5"></circle>
                <circle id="particles6" opacity="0.279891304" cx="200.5" cy="161.5" r="1.5"></circle>
                <circle id="particles5" opacity="0.497339221" cx="170.5" cy="26.5" r="1.5"></circle>
                <circle id="particles4" opacity="0.441576087" transform="translate(152.648576, 112.648576) scale(-1, -1) rotate(-276.000000) translate(-152.648576, -112.648576) " cx="152.648576" cy="112.648576" r="1.5"></circle>
                <circle id="particles3" transform="translate(41.648576, 29.648576) scale(-1, -1) rotate(-276.000000) translate(-41.648576, -29.648576) " cx="41.6485755" cy="29.6485755" r="1.5"></circle>
                <circle id="particles2" opacity="0.279891304" transform="translate(1.480626, 164.333162) scale(-1, -1) rotate(-276.000000) translate(-1.480626, -164.333162) " cx="1.48062588" cy="164.333162" r="1"></circle>
                <circle id="particles1" opacity="0.497339221" transform="translate(26.657259, 214.703516) scale(-1, -1) rotate(-276.000000) translate(-26.657259, -214.703516) " cx="26.6572587" cy="214.703516" r="1"></circle>
            </g>
        </g>
    </g>
</svg>