<?xml version="1.0" encoding="UTF-8"?>
<svg width="375px" height="700px" viewBox="0 0 375 700" version="1.1" xmlns="http://www.w3.org/2000/svg" xmlns:xlink="http://www.w3.org/1999/xlink" style="background: #FFFFFF;">
    <!-- Generator: Sketch 43.2 (39069) - http://www.bohemiancoding.com/sketch -->
    <title>screen--activity</title>
    <desc>Created with Sketch.</desc>
    <defs>
        <linearGradient x1="50%" y1="0%" x2="67.0043894%" y2="100%" id="linearGradient-1">
            <stop stop-color="#101B46" offset="0%"></stop>
            <stop stop-color="#163B72" offset="100%"></stop>
        </linearGradient>
        <linearGradient x1="52.0428419%" y1="110.15067%" x2="52.0428419%" y2="3.4346318%" id="linearGradient-2">
            <stop stop-color="#142C5D" stop-opacity="0" offset="0%"></stop>
            <stop stop-color="#FC79F7" offset="100%"></stop>
        </linearGradient>
    </defs>
    <g id="Page-1" stroke="none" stroke-width="1" fill="none" fill-rule="evenodd">
        <g id="screen--activity">
            <text id="back" font-family="Avenir-Light, Avenir" font-size="14.9899998" font-weight="300" letter-spacing="0.600000024" fill="#FFFFFF">
                <tspan x="55.6204602" y="38">back</tspan>
            </text>
            <rect id="Rectangle-3" fill="url(#linearGradient-1)" x="0" y="0" width="375" height="700"></rect>
            <g id="icon--tear" transform="translate(67.000000, 92.000000)" fill-rule="nonzero" fill="#77AEFC">
                <g id="Group">
                    <path d="M6.07142857,16.7638889 C9.20054945,16.7638889 11.7225275,14.2138889 11.7225275,11.05 C11.7225275,5.76111111 6.72527473,0.613888889 6.49175824,0.425 C6.25824176,0.188888889 5.88461538,0.188888889 5.6510989,0.425 C5.41758242,0.661111111 0.42032967,5.76111111 0.42032967,11.05 C0.42032967,14.2138889 2.94230769,16.7638889 6.07142857,16.7638889 Z M6.07142857,1.7 C7.23901099,3.02222222 10.5549451,7.08333333 10.5549451,11.05 C10.5549451,13.5527778 8.5467033,15.5833333 6.07142857,15.5833333 C3.59615385,15.5833333 1.58791209,13.5527778 1.58791209,11.05 C1.58791209,7.08333333 4.90384615,3.02222222 6.07142857,1.7 Z" id="Shape"></path>
                    <path d="M6.07142857,14.4027778 C6.39835165,14.4027778 6.63186813,14.1194444 6.63186813,13.8361111 C6.63186813,13.5527778 6.39835165,13.2222222 6.07142857,13.2222222 C4.90384615,13.2222222 3.92307692,12.2305556 3.92307692,11.05 C3.92307692,10.7194444 3.64285714,10.4833333 3.36263736,10.4833333 C3.08241758,10.4833333 2.8021978,10.7666667 2.8021978,11.05 C2.75549451,12.8916667 4.25,14.4027778 6.07142857,14.4027778 Z" id="Shape"></path>
                </g>
            </g>
            <g id="icon--tear-copy" transform="translate(228.000000, 203.000000)" fill-rule="nonzero" fill="#77AEFC">
                <g id="Group">
                    <path d="M6.07142857,16.7638889 C9.20054945,16.7638889 11.7225275,14.2138889 11.7225275,11.05 C11.7225275,5.76111111 6.72527473,0.613888889 6.49175824,0.425 C6.25824176,0.188888889 5.88461538,0.188888889 5.6510989,0.425 C5.41758242,0.661111111 0.42032967,5.76111111 0.42032967,11.05 C0.42032967,14.2138889 2.94230769,16.7638889 6.07142857,16.7638889 Z M6.07142857,1.7 C7.23901099,3.02222222 10.5549451,7.08333333 10.5549451,11.05 C10.5549451,13.5527778 8.5467033,15.5833333 6.07142857,15.5833333 C3.59615385,15.5833333 1.58791209,13.5527778 1.58791209,11.05 C1.58791209,7.08333333 4.90384615,3.02222222 6.07142857,1.7 Z" id="Shape"></path>
                    <path d="M6.07142857,14.4027778 C6.39835165,14.4027778 6.63186813,14.1194444 6.63186813,13.8361111 C6.63186813,13.5527778 6.39835165,13.2222222 6.07142857,13.2222222 C4.90384615,13.2222222 3.92307692,12.2305556 3.92307692,11.05 C3.92307692,10.7194444 3.64285714,10.4833333 3.36263736,10.4833333 C3.08241758,10.4833333 2.8021978,10.7666667 2.8021978,11.05 C2.75549451,12.8916667 4.25,14.4027778 6.07142857,14.4027778 Z" id="Shape"></path>
                </g>
            </g>
            <g id="icon--bottle" transform="translate(313.000000, 146.000000)" fill-rule="nonzero" fill="#77AEFC">
                <path d="M15.8734692,3.36598704 C16.092773,3.08651143 16.2121221,2.74388027 16.2121221,2.38284947 C16.2121221,1.9571713 16.0465253,1.55635749 15.745169,1.25549851 C15.169308,0.679639468 14.259769,0.637867336 13.6351758,1.12719832 C12.4907306,0.664099271 11.2864866,0.837994524 10.3508711,1.59057709 C9.88861116,1.42898969 9.34025838,1.52350541 8.98404503,1.88009171 C8.70214511,2.16199163 8.58292045,2.54182608 8.61468467,2.91099996 C8.04103235,2.92218895 7.47064349,3.14236301 7.03418039,3.57882611 L1.462073,9.15143085 C0.56596078,10.0475431 0.56596078,11.5055903 1.462073,12.4017025 L4.59896306,15.5385926 C5.03309514,15.9727227 5.60994874,16.2124153 6.22409887,16.2124153 C6.83824899,16.2124153 7.41510264,15.9727227 7.84923467,15.5385926 L13.4218394,9.96648519 C13.85852,9.52980455 14.0785698,8.95944675 14.0896655,8.3858566 C14.1270553,8.38905788 14.1641033,8.39654829 14.2015863,8.39654829 C14.5342717,8.39654829 14.8669571,8.27023723 15.1205738,8.01711785 C15.4913949,7.64629674 15.5878998,7.10577617 15.4159937,6.64351632 C16.1642892,5.70867778 16.3358845,4.50810123 15.8734692,3.36598704 Z M13.5113512,2.19139378 C13.734136,2.30875368 14.0146062,2.23714426 14.1642898,2.03524549 C14.1792085,2.01485668 14.1926352,1.99397061 14.2110349,1.97557098 C14.4353116,1.75129427 14.7998234,1.75029971 15.0250946,1.97557098 C15.2493714,2.20034494 15.2493714,2.56535404 15.0275811,2.78764163 C15.006695,2.80803044 14.9828252,2.82394364 14.9604473,2.8403541 C14.9604473,2.8408514 14.9559717,2.84383509 14.9559717,2.8443324 C14.7545702,2.99401596 14.6924093,3.2680214 14.8092718,3.48981167 C15.2324014,4.29429867 15.2085938,5.13455926 14.7632106,5.82128235 L11.1795698,2.23764152 C11.8663239,1.79256915 12.7072372,1.76919665 13.5113512,2.19139378 Z M12.701767,9.24641276 L7.12916235,14.8185202 C6.64579879,15.3028783 5.80239904,15.3028783 5.31903554,14.8185202 L2.18214547,11.6816301 C1.68336602,11.1823533 1.68336602,10.37078 2.18214547,9.87150328 L7.75425281,4.29889858 C8.00389119,4.0492602 8.33160372,3.92444101 8.6598135,3.92444101 C8.98737061,3.92444101 9.31492772,4.04919802 9.56450393,4.29858775 L12.7036629,7.43811966 C13.2002978,7.93761402 13.1998316,8.7478509 12.701767,9.24641276 Z M14.4009987,7.29654812 C14.2906008,7.40694598 14.1125719,7.40694598 14.0021741,7.29654812 L14.0026714,7.29654812 L13.4218395,6.71571622 L10.2849494,3.57882616 L9.70411751,2.99799426 C9.59471421,2.88809371 9.59471421,2.71006474 9.70461481,2.59966688 C9.81003976,2.49424194 9.99552807,2.49374463 10.1019476,2.60016419 L14.4014649,6.90017886 C14.5100601,7.01020371 14.5099669,7.18758001 14.4009987,7.29654812 Z" id="Shape" transform="translate(8.501055, 8.500886) scale(-1, 1) translate(-8.501055, -8.500886) "></path>
            </g>
            <path d="M28.5,409.5 L346.501572,409.5" id="Line" stroke-opacity="0.173856431" stroke="#FFFFFF" stroke-linecap="square"></path>
            <text id="2:30a" font-family="Avenir-Light, Avenir" font-size="14.9899998" font-weight="300" letter-spacing="0.600000024" fill="#FFFFFF">
                <tspan x="49" y="496">2:30a</tspan>
            </text>
            <text id="2:30a" font-family="Avenir-Light, Avenir" font-size="12" font-weight="300" letter-spacing="0.480320275" fill="#FBDBFF">
                <tspan x="58" y="127">2:30a</tspan>
            </text>
            <text id="4:00a" font-family="Avenir-Light, Avenir" font-size="12" font-weight="300" letter-spacing="0.480320275" fill="#FBDBFF">
                <tspan x="219" y="238">4:00a</tspan>
            </text>
            <text id="5:00a" font-family="Avenir-Light, Avenir" font-size="12" font-weight="300" letter-spacing="0.480320275" fill="#FBDBFF">
                <tspan x="306" y="181">5:00a</tspan>
            </text>
            <text id="4h-58m" font-family="Avenir-Light, Avenir" font-size="14.9899998" font-weight="300" letter-spacing="0.600000024" fill="#FFFFFF">
                <tspan x="54" y="637">4h 58m</tspan>
            </text>
            <text id="1h" font-family="Avenir-Light, Avenir" font-size="14.9899998" font-weight="300" letter-spacing="0.600000024" fill="#FFFFFF">
                <tspan x="152" y="637">1h </tspan>
            </text>
            <text id="avg" font-family="Avenir-Light, Avenir" font-size="12" font-weight="300" letter-spacing="0.480320275" fill="#50E3C2">
                <tspan x="197" y="637">avg</tspan>
            </text>
            <text id="4:00a" font-family="Avenir-Light, Avenir" font-size="14.9899998" font-weight="300" letter-spacing="0.600000024" fill="#FFFFFF">
                <tspan x="49" y="526">4:00a</tspan>
            </text>
            <text id="5:00a" font-family="Avenir-Light, Avenir" font-size="14.9899998" font-weight="300" letter-spacing="0.600000024" fill="#FFFFFF">
                <tspan x="228" y="499">5:00a</tspan>
            </text>
            <text id="crying" font-family="Avenir-Heavy, Avenir" font-size="18" font-weight="600" fill="#FFFFFF">
                <tspan x="49" y="467">crying</tspan>
            </text>
            <text id="May-8th" font-family="Avenir-Heavy, Avenir" font-size="18" font-weight="600" fill="#FFFFFF">
                <tspan x="280" y="47">May 8th</tspan>
            </text>
            <text id="5:55a" font-family="Avenir-Heavy, Avenir" font-size="18" font-weight="600" fill="#FFFFFF">
                <tspan x="300" y="75">5:55a</tspan>
            </text>
            <text id="avg-sleep-time" font-family="Avenir-Heavy, Avenir" font-size="18" font-weight="600" fill="#FFFFFF">
                <tspan x="54" y="608">avg sleep time</tspan>
            </text>
            <circle id="Oval" fill="#FC79F7" cx="140" cy="461" r="19"></circle>
            <circle id="Oval-Copy" fill="#FC79F7" cx="332" cy="464" r="19"></circle>
            <text id="2x" font-family="Avenir-Heavy, Avenir" font-size="18" font-weight="600" fill="#FFFFFF">
                <tspan x="129.339" y="467">2x</tspan>
            </text>
            <text id="1x" font-family="Avenir-Heavy, Avenir" font-size="18" font-weight="600" fill="#FFFFFF">
                <tspan x="321.339" y="470">1x</tspan>
            </text>
            <text id="feeding" font-family="Avenir-Heavy, Avenir" font-size="18" font-weight="600" fill="#FFFFFF">
                <tspan x="228" y="470">feeding</tspan>
            </text>
            <path d="M0.408765364,266.366505 C46.1965352,266.366505 65.9375334,157.542908 65.9375334,157.542908 C69.7001474,141.410609 75.6541689,141.443116 79.995433,157.437529 C79.995433,157.437529 97.8337929,266.366505 173.33971,266.366505 C201.763503,266.366505 204.201361,256.692147 233.685083,256.692147 C249.300096,256.692147 255.754076,266.810237 270.877411,266.366505 C295.723365,265.637503 309.833782,210.453788 309.833782,210.453788 C315.082062,194.757053 323.72228,194.726473 329.796145,210.143695 C329.796145,210.143695 345.605497,266.366505 375,266.366505 C375,311.798286 375,340 375,340 L2.84217094e-14,340 C2.84217094e-14,340 0.408765364,314.972671 0.408765364,266.366505 Z" id="Path-11-Copy" fill="url(#linearGradient-2)"></path>
            <text id="activity" font-family="Avenir-Heavy, Avenir" font-size="25.9200001" font-weight="600" letter-spacing="1.03749144" fill="#FFFFFF">
                <tspan x="24" y="385">activity</tspan>
            </text>
            <path d="M102,484.75 C102.828129,484.75 103.607418,484.906248 104.337891,485.21875 C105.068363,485.531252 105.705075,485.958982 106.248047,486.501953 C106.791018,487.044925 107.218748,487.681637 107.53125,488.412109 C107.843752,489.142582 108,489.921871 108,490.75 C108,491.578129 107.843752,492.357418 107.53125,493.087891 C107.218748,493.818363 106.791018,494.455075 106.248047,494.998047 C105.705075,495.541018 105.068363,495.968748 104.337891,496.28125 C103.607418,496.593752 102.828129,496.75 102,496.75 C101.171871,496.75 100.392582,496.593752 99.6621094,496.28125 C98.931637,495.968748 98.2949246,495.541018 97.7519531,494.998047 C97.2089817,494.455075 96.7812516,493.818363 96.46875,493.087891 C96.1562484,492.357418 96,491.578129 96,490.75 C96,489.921871 96.1562484,489.142582 96.46875,488.412109 C96.7812516,487.681637 97.2089817,487.044925 97.7519531,486.501953 C98.2949246,485.958982 98.931637,485.531252 99.6621094,485.21875 C100.392582,484.906248 101.171871,484.75 102,484.75 Z M102,496.011719 C102.726566,496.011719 103.4082,495.873048 104.044922,495.595703 C104.681644,495.318358 105.236326,494.941409 105.708984,494.464844 C106.181643,493.988279 106.556639,493.431644 106.833984,492.794922 C107.11133,492.1582 107.25,491.476566 107.25,490.75 C107.25,490.023434 107.11133,489.3418 106.833984,488.705078 C106.556639,488.068356 106.181643,487.513674 105.708984,487.041016 C105.236326,486.568357 104.681644,486.193361 104.044922,485.916016 C103.4082,485.63867 102.726566,485.5 102,485.5 C101.273434,485.5 100.5918,485.63867 99.9550781,485.916016 C99.3183562,486.193361 98.7636742,486.568357 98.2910156,487.041016 C97.818357,487.513674 97.4433608,488.068356 97.1660156,488.705078 C96.8886705,489.3418 96.75,490.023434 96.75,490.75 C96.75,491.476566 96.8886705,492.1582 97.1660156,492.794922 C97.4433608,493.431644 97.818357,493.988279 98.2910156,494.464844 C98.7636742,494.941409 99.3183562,495.318358 99.9550781,495.595703 C100.5918,495.873048 101.273434,496.011719 102,496.011719 Z M104.390625,488.558594 C104.46875,488.480468 104.558593,488.441406 104.660156,488.441406 C104.761719,488.441406 104.851562,488.480468 104.929688,488.558594 C105,488.628907 105.035156,488.716796 105.035156,488.822266 C105.035156,488.927735 105,489.015625 104.929688,489.085938 L101.191406,492.847656 L101.144531,492.894531 C101.074218,492.972657 100.986329,493.011719 100.880859,493.011719 C100.77539,493.011719 100.6875,492.972657 100.617188,492.894531 L98.7539062,491.042969 C98.6835934,490.972656 98.6484375,490.884766 98.6484375,490.779297 C98.6484375,490.673828 98.6835934,490.585938 98.7539062,490.515625 C98.8320316,490.4375 98.9218745,490.398438 99.0234375,490.398438 C99.1250005,490.398438 99.2148434,490.4375 99.2929688,490.515625 L100.875,492.097656 L104.390625,488.558594 Z" id="check---simple-line-icons" fill="#50E3C2"></path>
            <path d="M281,487.75 C281.828129,487.75 282.607418,487.906248 283.337891,488.21875 C284.068363,488.531252 284.705075,488.958982 285.248047,489.501953 C285.791018,490.044925 286.218748,490.681637 286.53125,491.412109 C286.843752,492.142582 287,492.921871 287,493.75 C287,494.578129 286.843752,495.357418 286.53125,496.087891 C286.218748,496.818363 285.791018,497.455075 285.248047,497.998047 C284.705075,498.541018 284.068363,498.968748 283.337891,499.28125 C282.607418,499.593752 281.828129,499.75 281,499.75 C280.171871,499.75 279.392582,499.593752 278.662109,499.28125 C277.931637,498.968748 277.294925,498.541018 276.751953,497.998047 C276.208982,497.455075 275.781252,496.818363 275.46875,496.087891 C275.156248,495.357418 275,494.578129 275,493.75 C275,492.921871 275.156248,492.142582 275.46875,491.412109 C275.781252,490.681637 276.208982,490.044925 276.751953,489.501953 C277.294925,488.958982 277.931637,488.531252 278.662109,488.21875 C279.392582,487.906248 280.171871,487.75 281,487.75 Z M281,499.011719 C281.726566,499.011719 282.4082,498.873048 283.044922,498.595703 C283.681644,498.318358 284.236326,497.941409 284.708984,497.464844 C285.181643,496.988279 285.556639,496.431644 285.833984,495.794922 C286.11133,495.1582 286.25,494.476566 286.25,493.75 C286.25,493.023434 286.11133,492.3418 285.833984,491.705078 C285.556639,491.068356 285.181643,490.513674 284.708984,490.041016 C284.236326,489.568357 283.681644,489.193361 283.044922,488.916016 C282.4082,488.63867 281.726566,488.5 281,488.5 C280.273434,488.5 279.5918,488.63867 278.955078,488.916016 C278.318356,489.193361 277.763674,489.568357 277.291016,490.041016 C276.818357,490.513674 276.443361,491.068356 276.166016,491.705078 C275.88867,492.3418 275.75,493.023434 275.75,493.75 C275.75,494.476566 275.88867,495.1582 276.166016,495.794922 C276.443361,496.431644 276.818357,496.988279 277.291016,497.464844 C277.763674,497.941409 278.318356,498.318358 278.955078,498.595703 C279.5918,498.873048 280.273434,499.011719 281,499.011719 Z M283.390625,491.558594 C283.46875,491.480468 283.558593,491.441406 283.660156,491.441406 C283.761719,491.441406 283.851562,491.480468 283.929688,491.558594 C284,491.628907 284.035156,491.716796 284.035156,491.822266 C284.035156,491.927735 284,492.015625 283.929688,492.085938 L280.191406,495.847656 L280.144531,495.894531 C280.074218,495.972657 279.986329,496.011719 279.880859,496.011719 C279.77539,496.011719 279.6875,495.972657 279.617188,495.894531 L277.753906,494.042969 C277.683593,493.972656 277.648438,493.884766 277.648438,493.779297 C277.648438,493.673828 277.683593,493.585938 277.753906,493.515625 C277.832032,493.4375 277.921874,493.398438 278.023438,493.398438 C278.125001,493.398438 278.214843,493.4375 278.292969,493.515625 L279.875,495.097656 L283.390625,491.558594 Z" id="check---simple-line-icons-copy-2" fill="#50E3C2"></path>
            <path d="M102,514.75 C102.828129,514.75 103.607418,514.906248 104.337891,515.21875 C105.068363,515.531252 105.705075,515.958982 106.248047,516.501953 C106.791018,517.044925 107.218748,517.681637 107.53125,518.412109 C107.843752,519.142582 108,519.921871 108,520.75 C108,521.578129 107.843752,522.357418 107.53125,523.087891 C107.218748,523.818363 106.791018,524.455075 106.248047,524.998047 C105.705075,525.541018 105.068363,525.968748 104.337891,526.28125 C103.607418,526.593752 102.828129,526.75 102,526.75 C101.171871,526.75 100.392582,526.593752 99.6621094,526.28125 C98.931637,525.968748 98.2949246,525.541018 97.7519531,524.998047 C97.2089817,524.455075 96.7812516,523.818363 96.46875,523.087891 C96.1562484,522.357418 96,521.578129 96,520.75 C96,519.921871 96.1562484,519.142582 96.46875,518.412109 C96.7812516,517.681637 97.2089817,517.044925 97.7519531,516.501953 C98.2949246,515.958982 98.931637,515.531252 99.6621094,515.21875 C100.392582,514.906248 101.171871,514.75 102,514.75 Z M102,526.011719 C102.726566,526.011719 103.4082,525.873048 104.044922,525.595703 C104.681644,525.318358 105.236326,524.941409 105.708984,524.464844 C106.181643,523.988279 106.556639,523.431644 106.833984,522.794922 C107.11133,522.1582 107.25,521.476566 107.25,520.75 C107.25,520.023434 107.11133,519.3418 106.833984,518.705078 C106.556639,518.068356 106.181643,517.513674 105.708984,517.041016 C105.236326,516.568357 104.681644,516.193361 104.044922,515.916016 C103.4082,515.63867 102.726566,515.5 102,515.5 C101.273434,515.5 100.5918,515.63867 99.9550781,515.916016 C99.3183562,516.193361 98.7636742,516.568357 98.2910156,517.041016 C97.818357,517.513674 97.4433608,518.068356 97.1660156,518.705078 C96.8886705,519.3418 96.75,520.023434 96.75,520.75 C96.75,521.476566 96.8886705,522.1582 97.1660156,522.794922 C97.4433608,523.431644 97.818357,523.988279 98.2910156,524.464844 C98.7636742,524.941409 99.3183562,525.318358 99.9550781,525.595703 C100.5918,525.873048 101.273434,526.011719 102,526.011719 Z M104.390625,518.558594 C104.46875,518.480468 104.558593,518.441406 104.660156,518.441406 C104.761719,518.441406 104.851562,518.480468 104.929688,518.558594 C105,518.628907 105.035156,518.716796 105.035156,518.822266 C105.035156,518.927735 105,519.015625 104.929688,519.085938 L101.191406,522.847656 L101.144531,522.894531 C101.074218,522.972657 100.986329,523.011719 100.880859,523.011719 C100.77539,523.011719 100.6875,522.972657 100.617188,522.894531 L98.7539062,521.042969 C98.6835934,520.972656 98.6484375,520.884766 98.6484375,520.779297 C98.6484375,520.673828 98.6835934,520.585938 98.7539062,520.515625 C98.8320316,520.4375 98.9218745,520.398438 99.0234375,520.398438 C99.1250005,520.398438 99.2148434,520.4375 99.2929688,520.515625 L100.875,522.097656 L104.390625,518.558594 Z" id="check---simple-line-icons-copy" fill="#50E3C2"></path>
            <path d="M177,632.75 C177,631.921871 177.156248,631.142582 177.46875,630.412109 C177.781252,629.681637 178.208982,629.044925 178.751953,628.501953 C179.294925,627.958982 179.931637,627.531252 180.662109,627.21875 C181.392582,626.906248 182.171871,626.75 183,626.75 C183.828129,626.75 184.607418,626.906248 185.337891,627.21875 C186.068363,627.531252 186.705075,627.958982 187.248047,628.501953 C187.791018,629.044925 188.218748,629.681637 188.53125,630.412109 C188.843752,631.142582 189,631.921871 189,632.75 C189,633.578129 188.843752,634.357418 188.53125,635.087891 C188.218748,635.818363 187.791018,636.455075 187.248047,636.998047 C186.705075,637.541018 186.068363,637.968748 185.337891,638.28125 C184.607418,638.593752 183.828129,638.75 183,638.75 C182.171871,638.75 181.392582,638.593752 180.662109,638.28125 C179.931637,637.968748 179.294925,637.541018 178.751953,636.998047 C178.208982,636.455075 177.781252,635.818363 177.46875,635.087891 C177.156248,634.357418 177,633.578129 177,632.75 Z M188.261719,632.75 C188.261719,632.023434 188.123048,631.3418 187.845703,630.705078 C187.568358,630.068356 187.191409,629.513674 186.714844,629.041016 C186.238279,628.568357 185.681644,628.193361 185.044922,627.916016 C184.4082,627.63867 183.726566,627.5 183,627.5 C182.273434,627.5 181.5918,627.63867 180.955078,627.916016 C180.318356,628.193361 179.763674,628.568357 179.291016,629.041016 C178.818357,629.513674 178.443361,630.068356 178.166016,630.705078 C177.88867,631.3418 177.75,632.023434 177.75,632.75 C177.75,633.476566 177.88867,634.1582 178.166016,634.794922 C178.443361,635.431644 178.818357,635.986326 179.291016,636.458984 C179.763674,636.931643 180.318356,637.306639 180.955078,637.583984 C181.5918,637.86133 182.273434,638 183,638 C183.726566,638 184.4082,637.86133 185.044922,637.583984 C185.681644,637.306639 186.238279,636.931643 186.714844,636.458984 C187.191409,635.986326 187.568358,635.431644 187.845703,634.794922 C188.123048,634.1582 188.261719,633.476566 188.261719,632.75 Z M182.625,630.125 C182.625,630.015624 182.660156,629.925782 182.730469,629.855469 C182.800782,629.785156 182.890624,629.75 183,629.75 C183.101563,629.75 183.189453,629.785156 183.263672,629.855469 C183.337891,629.925782 183.375,630.015624 183.375,630.125 L183.375,634.367188 L184.746094,632.984375 C184.824219,632.914062 184.914062,632.878906 185.015625,632.878906 C185.117188,632.878906 185.207031,632.914062 185.285156,632.984375 C185.316406,633.023438 185.341797,633.066406 185.361328,633.113281 C185.380859,633.160156 185.390625,633.207031 185.390625,633.253906 C185.390625,633.300781 185.380859,633.347656 185.361328,633.394531 C185.341797,633.441406 185.316406,633.484375 185.285156,633.523438 L183.011719,635.738281 L180.738281,633.523438 C180.660156,633.445312 180.621094,633.355469 180.621094,633.253906 C180.621094,633.152343 180.660156,633.0625 180.738281,632.984375 C180.808594,632.914062 180.896484,632.878906 181.001953,632.878906 C181.107422,632.878906 181.195312,632.914062 181.265625,632.984375 L182.625,634.34375 L182.625,630.125 Z" id="arrow-down-circle---simple-line-icons" fill="#50E3C2"></path>
            <path d="M18.5,144.339426 L18.5,306.584869" id="Line" stroke-opacity="0.0801913496" stroke="#FFFFFF" opacity="0.319010417" stroke-linecap="square"></path>
            <path d="M86.5,144.339426 L86.5,306.584869" id="Line-Copy" stroke-opacity="0.0801913496" stroke="#FFFFFF" opacity="0.319010417" stroke-linecap="square"></path>
            <path d="M154.5,144.339426 L154.5,306.584869" id="Line-Copy-2" stroke-opacity="0.0801913496" stroke="#FFFFFF" opacity="0.319010417" stroke-linecap="square"></path>
            <path d="M222.5,144.339426 L222.5,306.584869" id="Line-Copy-3" stroke-opacity="0.0801913496" stroke="#FFFFFF" opacity="0.319010417" stroke-linecap="square"></path>
            <path d="M290.5,144.339426 L290.5,306.584869" id="Line-Copy-4" stroke-opacity="0.0801913496" stroke="#FFFFFF" opacity="0.319010417" stroke-linecap="square"></path>
            <path d="M358.5,144.339426 L358.5,306.584869" id="Line-Copy-5" stroke-opacity="0.0801913496" stroke="#FFFFFF" opacity="0.319010417" stroke-linecap="square"></path>
            <g id="particles" opacity="0.399999976" transform="translate(246.000000, 199.000000)" fill="#FFFFFF">
                <ellipse id="Oval-7" cx="128.418919" cy="28" rx="1" ry="1"></ellipse>
                <ellipse id="Oval-7-Copy" opacity="0.279891304" cx="100.817568" cy="0.875" rx="1" ry="1"></ellipse>
                <ellipse id="Oval-7-Copy-7" opacity="0.279891304" cx="116.506757" cy="94.2083333" rx="1" ry="1"></ellipse>
                <ellipse id="Oval-7-Copy-2" opacity="0.497339221" cx="99.0743243" cy="15.4583333" rx="1" ry="1"></ellipse>
                <ellipse id="Oval-7-Copy-5" opacity="0.441576087" transform="translate(88.701199, 65.711669) scale(-1, -1) rotate(-276.000000) translate(-88.701199, -65.711669) " cx="88.7011993" cy="65.7116691" rx="1" ry="1"></ellipse>
                <ellipse id="Oval-7-Copy-6" transform="translate(24.201199, 17.295002) scale(-1, -1) rotate(-276.000000) translate(-24.201199, -17.295002) " cx="24.2011993" cy="17.2950024" rx="1" ry="1"></ellipse>
                <ellipse id="Oval-7-Copy-4" opacity="0.279891304" transform="translate(0.860364, 95.861011) scale(-1, -1) rotate(-276.000000) translate(-0.860364, -95.861011) " cx="0.860363688" cy="95.8610109" rx="1" ry="1"></ellipse>
                <ellipse id="Oval-7-Copy-3" opacity="0.497339221" transform="translate(15.490029, 125.243717) scale(-1, -1) rotate(-276.000000) translate(-15.490029, -125.243717) " cx="15.4900287" cy="125.243717" rx="1" ry="1"></ellipse>
            </g>
            <g id="particles-copy-2" opacity="0.399999976" transform="translate(0.000000, 149.000000)" fill="#FFFFFF">
                <ellipse id="Oval-7" cx="128.418919" cy="28" rx="1" ry="1"></ellipse>
                <ellipse id="Oval-7-Copy" opacity="0.279891304" cx="100.817568" cy="0.875" rx="1" ry="1"></ellipse>
                <ellipse id="Oval-7-Copy-7" opacity="0.279891304" cx="116.506757" cy="94.2083333" rx="1" ry="1"></ellipse>
                <ellipse id="Oval-7-Copy-2" opacity="0.497339221" cx="99.0743243" cy="15.4583333" rx="1" ry="1"></ellipse>
                <ellipse id="Oval-7-Copy-5" opacity="0.441576087" transform="translate(88.701199, 65.711669) scale(-1, -1) rotate(-276.000000) translate(-88.701199, -65.711669) " cx="88.7011993" cy="65.7116691" rx="1" ry="1"></ellipse>
                <ellipse id="Oval-7-Copy-6" transform="translate(24.201199, 17.295002) scale(-1, -1) rotate(-276.000000) translate(-24.201199, -17.295002) " cx="24.2011993" cy="17.2950024" rx="1" ry="1"></ellipse>
                <ellipse id="Oval-7-Copy-4" opacity="0.279891304" transform="translate(0.860364, 95.861011) scale(-1, -1) rotate(-276.000000) translate(-0.860364, -95.861011) " cx="0.860363688" cy="95.8610109" rx="1" ry="1"></ellipse>
                <ellipse id="Oval-7-Copy-3" opacity="0.497339221" transform="translate(15.490029, 125.243717) scale(-1, -1) rotate(-276.000000) translate(-15.490029, -125.243717) " cx="15.4900287" cy="125.243717" rx="1" ry="1"></ellipse>
            </g>
            <g id="icon--moon" transform="translate(245.000000, 29.000000)" fill-rule="nonzero" fill="#77AEFC">
                <path d="M18.4345785,0 C15.2434961,0.597699539 12.803647,3.28934285 12.655802,6.57310971 C11.9361513,6.2679939 11.1448421,6.10097779 10.3182941,6.10097779 C7.45431485,6.10097779 5.02993363,8.16693303 4.52531473,10.8652719 C2.02618142,10.8843251 0,12.8923095 0,15.358497 C0,17.3257341 1.33440102,19.093727 3.22083706,19.6515716 C3.62606772,19.7832611 4.04544446,19.8499623 4.46738045,19.8499623 L16.8584565,19.8499623 C17.3322803,19.8499623 17.7991013,19.7650283 18.1990728,19.6142829 C20.3624123,18.9446721 21.816366,16.9904964 21.816366,14.7521342 C21.816366,14.3692928 21.7729153,13.9962814 21.691273,13.6373429 C23.1625508,13.2330318 24.4399737,12.3797351 25.3623944,11.2282122 C24.9281404,11.3105161 24.48334,11.3555507 24.0253779,11.3555507 C20.0915835,11.3555507 16.9032853,8.2136859 16.9032853,4.33810364 C16.9032853,2.69828903 17.4781847,1.19457044 18.4345785,7.87668319e-16 L18.4345785,0 Z M10.9213451,0.813408463 L10.0009492,1.71686678 L8.72375072,1.4820992 L9.30919638,2.62292463 L8.68769647,3.74820272 L9.9720102,3.5515663 L10.86687,4.48190405 L11.0725648,3.21810223 L12.245256,2.66971075 L11.0901138,2.08417472 L10.9213451,0.813408463 L10.9213451,0.813408463 Z M19.8393725,3.6632882 L19.4789425,4.4576297 L18.6113343,4.61444719 L19.2653731,5.19653288 L19.1493076,6.059327 L19.9131684,5.62624356 L20.7078244,6.00128915 L20.5276375,5.15150934 L21.1350757,4.52179226 L20.2577931,4.42991331 L19.8393725,3.6632882 Z M4.76273282,4.48366109 L4.21156963,5.02417359 L3.44765261,4.88382076 L3.80012369,5.56644313 L3.4274881,6.23949876 L4.19486431,6.12173252 L4.72845035,6.6787069 L4.85416213,5.92157925 L5.55474516,5.59331979 L4.86293664,5.24423078 L4.76273282,4.48366109 L4.76273282,4.48366109 Z M10.3182941,7.83338858 C12.2442998,7.83338858 13.8978175,9.12500102 14.3391025,10.9744553 L14.565918,11.9194868 L15.4932885,11.591158 C15.8695239,11.4577752 16.2581336,11.3902343 16.6440153,11.3902343 C18.5278359,11.3902343 20.059101,12.8983372 20.059101,14.7529795 C20.059101,16.2307747 19.1009072,17.5215031 17.6258327,17.9788858 C17.3770809,18.0715657 17.1195546,18.1183241 16.8584565,18.1183241 L4.46738045,18.1183241 C4.23266221,18.1183241 3.99878768,18.0810826 3.75000772,17.9996433 C2.57737273,17.6522643 1.75810878,16.567764 1.75810878,15.358497 C1.75810878,13.8365013 3.01517033,12.5977498 4.56052528,12.5977498 C4.75483014,12.5977498 4.93940428,12.615905 5.1301937,12.6548814 L6.16744244,12.8679742 L6.18760695,11.8250803 C6.23240759,9.62392646 8.08633293,7.83338858 10.3182941,7.83338858 L10.3182941,7.83338858 Z" id="Shape"></path>
            </g>
            <g id="icon--bottle" transform="translate(203.000000, 456.000000)" fill-rule="nonzero" fill="#77AEFC">
                <path d="M15.8734692,3.36598704 C16.092773,3.08651143 16.2121221,2.74388027 16.2121221,2.38284947 C16.2121221,1.9571713 16.0465253,1.55635749 15.745169,1.25549851 C15.169308,0.679639468 14.259769,0.637867336 13.6351758,1.12719832 C12.4907306,0.664099271 11.2864866,0.837994524 10.3508711,1.59057709 C9.88861116,1.42898969 9.34025838,1.52350541 8.98404503,1.88009171 C8.70214511,2.16199163 8.58292045,2.54182608 8.61468467,2.91099996 C8.04103235,2.92218895 7.47064349,3.14236301 7.03418039,3.57882611 L1.462073,9.15143085 C0.56596078,10.0475431 0.56596078,11.5055903 1.462073,12.4017025 L4.59896306,15.5385926 C5.03309514,15.9727227 5.60994874,16.2124153 6.22409887,16.2124153 C6.83824899,16.2124153 7.41510264,15.9727227 7.84923467,15.5385926 L13.4218394,9.96648519 C13.85852,9.52980455 14.0785698,8.95944675 14.0896655,8.3858566 C14.1270553,8.38905788 14.1641033,8.39654829 14.2015863,8.39654829 C14.5342717,8.39654829 14.8669571,8.27023723 15.1205738,8.01711785 C15.4913949,7.64629674 15.5878998,7.10577617 15.4159937,6.64351632 C16.1642892,5.70867778 16.3358845,4.50810123 15.8734692,3.36598704 Z M13.5113512,2.19139378 C13.734136,2.30875368 14.0146062,2.23714426 14.1642898,2.03524549 C14.1792085,2.01485668 14.1926352,1.99397061 14.2110349,1.97557098 C14.4353116,1.75129427 14.7998234,1.75029971 15.0250946,1.97557098 C15.2493714,2.20034494 15.2493714,2.56535404 15.0275811,2.78764163 C15.006695,2.80803044 14.9828252,2.82394364 14.9604473,2.8403541 C14.9604473,2.8408514 14.9559717,2.84383509 14.9559717,2.8443324 C14.7545702,2.99401596 14.6924093,3.2680214 14.8092718,3.48981167 C15.2324014,4.29429867 15.2085938,5.13455926 14.7632106,5.82128235 L11.1795698,2.23764152 C11.8663239,1.79256915 12.7072372,1.76919665 13.5113512,2.19139378 Z M12.701767,9.24641276 L7.12916235,14.8185202 C6.64579879,15.3028783 5.80239904,15.3028783 5.31903554,14.8185202 L2.18214547,11.6816301 C1.68336602,11.1823533 1.68336602,10.37078 2.18214547,9.87150328 L7.75425281,4.29889858 C8.00389119,4.0492602 8.33160372,3.92444101 8.6598135,3.92444101 C8.98737061,3.92444101 9.31492772,4.04919802 9.56450393,4.29858775 L12.7036629,7.43811966 C13.2002978,7.93761402 13.1998316,8.7478509 12.701767,9.24641276 Z M14.4009987,7.29654812 C14.2906008,7.40694598 14.1125719,7.40694598 14.0021741,7.29654812 L14.0026714,7.29654812 L13.4218395,6.71571622 L10.2849494,3.57882616 L9.70411751,2.99799426 C9.59471421,2.88809371 9.59471421,2.71006474 9.70461481,2.59966688 C9.81003976,2.49424194 9.99552807,2.49374463 10.1019476,2.60016419 L14.4014649,6.90017886 C14.5100601,7.01020371 14.5099669,7.18758001 14.4009987,7.29654812 Z" id="Shape" transform="translate(8.501055, 8.500886) scale(-1, 1) translate(-8.501055, -8.500886) "></path>
            </g>
            <g id="icon--tear" transform="translate(29.000000, 453.000000)" fill-rule="nonzero" fill="#77AEFC">
                <g id="Group">
                    <path d="M6.07142857,16.7638889 C9.20054945,16.7638889 11.7225275,14.2138889 11.7225275,11.05 C11.7225275,5.76111111 6.72527473,0.613888889 6.49175824,0.425 C6.25824176,0.188888889 5.88461538,0.188888889 5.6510989,0.425 C5.41758242,0.661111111 0.42032967,5.76111111 0.42032967,11.05 C0.42032967,14.2138889 2.94230769,16.7638889 6.07142857,16.7638889 Z M6.07142857,1.7 C7.23901099,3.02222222 10.5549451,7.08333333 10.5549451,11.05 C10.5549451,13.5527778 8.5467033,15.5833333 6.07142857,15.5833333 C3.59615385,15.5833333 1.58791209,13.5527778 1.58791209,11.05 C1.58791209,7.08333333 4.90384615,3.02222222 6.07142857,1.7 Z" id="Shape"></path>
                    <path d="M6.07142857,14.4027778 C6.39835165,14.4027778 6.63186813,14.1194444 6.63186813,13.8361111 C6.63186813,13.5527778 6.39835165,13.2222222 6.07142857,13.2222222 C4.90384615,13.2222222 3.92307692,12.2305556 3.92307692,11.05 C3.92307692,10.7194444 3.64285714,10.4833333 3.36263736,10.4833333 C3.08241758,10.4833333 2.8021978,10.7666667 2.8021978,11.05 C2.75549451,12.8916667 4.25,14.4027778 6.07142857,14.4027778 Z" id="Shape"></path>
                </g>
            </g>
            <g id="icon--stopwatch" transform="translate(33.000000, 596.000000)" fill-rule="nonzero" fill="#77AEFC">
                <path d="M6.35227273,3.9 C6.10763636,3.9 5.90909091,4.10145 5.90909091,4.35 L5.90909091,8.55 C5.90909091,8.79855 6.10763636,9 6.35227273,9 C6.59690909,9 6.79545455,8.79855 6.79545455,8.55 L6.79545455,4.35 C6.79545455,4.10145 6.59690909,3.9 6.35227273,3.9 Z" id="Shape"></path>
                <path d="M12.9270227,3.57105 C12.9270227,3.57105 12.7181364,2.93475 12.3002159,2.51055 C11.8824432,2.0862 11.2557841,1.8741 11.2557841,1.8741 L9.92801136,3.2223 C9.21936364,2.7303 8.40804545,2.3814 7.53409091,2.2137 L7.53409091,0.3 C7.53409091,0.3 6.94318182,0 6.35227273,0 C5.76136364,0 5.17045455,0.3 5.17045455,0.3 L5.17045455,2.2137 C2.23097727,2.778 0,5.4036 0,8.55 C0,12.1065 2.84965909,15 6.35227273,15 C9.85488636,15 12.7045455,12.1065 12.7045455,8.55 C12.7045455,7.20435 12.2960795,5.95425 11.59925,4.91925 L12.9270227,3.57105 Z M6.35227273,14.1 C3.33834091,14.1 0.886363636,11.6103 0.886363636,8.55 C0.886363636,5.4897 3.33834091,3 6.35227273,3 C9.36620455,3 11.8181818,5.4897 11.8181818,8.55 C11.8181818,11.6103 9.36620455,14.1 6.35227273,14.1 Z" id="Shape"></path>
            </g>
        </g>
    </g>
</svg>