<?xml version="1.0" encoding="utf-8"?>
<!-- Generator: Adobe Illustrator 19.2.1, SVG Export Plug-In . SVG Version: 6.00 Build 0)  -->
<svg version="1.1" id="Layer_1" xmlns="http://www.w3.org/2000/svg" xmlns:xlink="http://www.w3.org/1999/xlink" x="0px" y="0px"
	 viewBox="0 0 110 110" style="enable-background:new 0 0 110 110;" xml:space="preserve">
<style type="text/css">
	.st0{filter:url(#filter-2);}
	.st1{fill:#FFFFFF;stroke:#77AEFC;stroke-width:3;}
	.st2{fill:#FFFFFF;}
	.st3{fill:#77AEFC;}
</style>
<filter  filterUnits="objectBoundingBox" height="182.4%" id="filter-2" width="182.4%" x="-41.2%" y="-31.8%">
	<feMorphology  in="SourceAlpha" operator="dilate" radius="1.5" result="shadowSpreadOuter1"></feMorphology>
	<feOffset  dx="0" dy="7" in="shadowSpreadOuter1" result="shadowOffsetOuter1"></feOffset>
	<feGaussianBlur  in="shadowOffsetOuter1" result="shadowBlurOuter1" stdDeviation="8.5"></feGaussianBlur>
	<feComposite  in="shadowBlurOuter1" in2="SourceAlpha" operator="out" result="shadowBlurOuter1"></feComposite>
	<feColorMatrix  in="shadowBlurOuter1" type="matrix" values="0 0 0 0 0   0 0 0 0 0   0 0 0 0 0  0 0 0 0.461786685 0">
		</feColorMatrix>
</filter>
<title>menu icon</title>
<desc>Created with Sketch.</desc>
<g id="Symbols">
	<g id="menu-icon" transform="translate(18.000000, 11.000000)">
		<g>
			<g>
				<g class="st0">
					<circle id="path-1_2_" cx="37" cy="37" r="37"/>
				</g>
				<g>
					<circle id="path-1_1_" class="st1" cx="37" cy="37" r="37"/>
				</g>
			</g>
			<g>
				<path class="st2" d="M13.6,59.4c0-14.9,0-29.7,0-44.6c15.7,0,31.4,0,47.1,0c0,14.9,0,29.7,0,44.6C45,59.4,29.3,59.4,13.6,59.4z
					 M37.1,22.9c-0.1,0.1-0.2,0.2-0.3,0.3c-5.2,4.6-10.5,9.3-15.7,13.9c-0.2,0.2-0.3,0.4-0.3,0.7c0,6.7,0,13.4,0,20.1
					c0,0.9,0.3,1.2,1.2,1.2c3.2,0,6.4,0,9.5,0c0.1,0,0.3,0,0.4,0c0-0.2,0-0.3,0-0.5c0-2.8,0-5.6,0-8.4c0-0.9,0.3-1.2,1.2-1.2
					c2.6,0,5.3,0,7.9,0c0.9,0,1.2,0.3,1.2,1.2c0,2.8,0,5.6,0,8.4c0,0.1,0,0.3,0,0.4c0.2,0,0.3,0,0.4,0c3.2,0,6.4,0,9.5,0
					c0.9,0,1.2-0.3,1.2-1.2c0-6.7,0-13.4,0-20.1c0-0.3-0.1-0.5-0.3-0.6c-5.3-4.7-10.5-9.3-15.8-14C37.3,23.1,37.2,23,37.1,22.9z
					 M60.4,35.6c-0.1-0.1-0.2-0.2-0.2-0.2c-7.5-6.7-15.1-13.4-22.6-20c-0.4-0.3-0.5-0.3-0.9,0c-7.5,6.7-15,13.3-22.6,20
					c-0.1,0.1-0.2,0.2-0.3,0.3c0.8,0.9,1.6,1.8,2.4,2.7c7-6.2,13.9-12.3,20.9-18.5C44,26,51,32.1,57.9,38.3
					C58.8,37.4,59.6,36.5,60.4,35.6z M20.7,18c0,2.9,0,5.8,0,8.7c0.1,0,0.1-0.1,0.1-0.1c1.8-1.7,3.7-3.3,5.5-5
					c0.1-0.1,0.2-0.3,0.2-0.4c0-0.9,0-1.9,0.1-2.8c0-0.1,0-0.3,0-0.4C24.6,18,22.7,18,20.7,18z"/>
				<path class="st3" d="M37.1,22.9c0.1,0.1,0.2,0.2,0.3,0.3c5.3,4.7,10.5,9.3,15.8,14c0.2,0.2,0.3,0.4,0.3,0.6c0,6.7,0,13.4,0,20.1
					c0,0.9-0.3,1.2-1.2,1.2c-3.2,0-6.4,0-9.5,0c-0.1,0-0.3,0-0.4,0c0-0.2,0-0.3,0-0.4c0-2.8,0-5.6,0-8.4c0-0.9-0.3-1.2-1.2-1.2
					c-2.6,0-5.3,0-7.9,0c-0.9,0-1.2,0.3-1.2,1.2c0,2.8,0,5.6,0,8.4c0,0.1,0,0.3,0,0.5c-0.2,0-0.3,0-0.4,0c-3.2,0-6.4,0-9.5,0
					c-0.9,0-1.2-0.3-1.2-1.2c0-6.7,0-13.4,0-20.1c0-0.3,0.1-0.5,0.3-0.7c5.3-4.6,10.5-9.3,15.7-13.9C36.9,23.1,37,23,37.1,22.9z"/>
				<path class="st3" d="M60.4,35.6c-0.8,0.9-1.6,1.8-2.4,2.8C51,32.1,44,26,37.1,19.8c-7,6.2-13.9,12.3-20.9,18.5
					c-0.8-0.9-1.6-1.8-2.4-2.7c0.1-0.1,0.2-0.2,0.3-0.3c7.5-6.7,15-13.3,22.6-20c0.4-0.3,0.5-0.4,0.9,0c7.5,6.7,15.1,13.4,22.6,20
					C60.2,35.4,60.3,35.5,60.4,35.6z"/>
				<path class="st3" d="M20.7,18c1.9,0,3.9,0,5.8,0c0,0.1,0,0.3,0,0.4c0,0.9,0,1.9-0.1,2.8c0,0.1-0.1,0.3-0.2,0.4
					c-1.8,1.7-3.7,3.3-5.5,5c0,0-0.1,0-0.1,0.1C20.7,23.7,20.7,20.8,20.7,18z"/>
			</g>
		</g>
	</g>
</g>
</svg>
