<?xml version="1.0" encoding="UTF-8"?>
<svg width="69px" height="67px" viewBox="0 0 69 67" version="1.1" xmlns="http://www.w3.org/2000/svg" xmlns:xlink="http://www.w3.org/1999/xlink">
    <!-- Generator: Sketch 43.2 (39069) - http://www.bohemiancoding.com/sketch -->
    <title>menu-icon--lamp--off</title>
    <desc>Created with Sketch.</desc>
    <defs>
        <circle id="path-1" cx="17.5" cy="17.5" r="17.5"></circle>
        <filter x="-85.7%" y="-65.7%" width="271.4%" height="271.4%" filterUnits="objectBoundingBox" id="filter-2">
            <feMorphology radius="1" operator="dilate" in="SourceAlpha" result="shadowSpreadOuter1"></feMorphology>
            <feOffset dx="0" dy="7" in="shadowSpreadOuter1" result="shadowOffsetOuter1"></feOffset>
            <feGaussianBlur stdDeviation="8.5" in="shadowOffsetOuter1" result="shadowBlurOuter1"></feGaussianBlur>
            <feComposite in="shadowBlurOuter1" in2="SourceAlpha" operator="out" result="shadowBlurOuter1"></feComposite>
            <feColorMatrix values="0 0 0 0 0   0 0 0 0 0   0 0 0 0 0  0 0 0 0.461786685 0" type="matrix" in="shadowBlurOuter1"></feColorMatrix>
        </filter>
    </defs>
    <g id="Symbols" stroke="none" stroke-width="1" fill="none" fill-rule="evenodd">
        <g id="menu-icon--lamp--off" transform="translate(17.000000, 10.000000)">
            <g id="Group">
                <g id="icon--graph-copy-3">
                    <g id="menu-icon-copy">
                        <use fill="black" fill-opacity="1" filter="url(#filter-2)" xlink:href="#path-1"></use>
                        <use stroke="#77AEFC" stroke-width="2" fill="#FFFFFF" fill-rule="evenodd" xlink:href="#path-1"></use>
                    </g>
                </g>
                <g id="icon--lamp-off" transform="translate(10.000000, 8.000000)">
                    <g id="Group-4">
                        <g id="icon--light" transform="translate(1.882353, 0.000000)" fill-rule="nonzero" fill="#77AEFC">
                            <g id="Group">
                                <path d="M6.11764706,0.0832528736 C2.62628403,0.0832528736 0,2.99450805 0,6.3851977 C0,7.95507126 0.828613445,9.30417471 1.56356134,10.5697241 C2.29850924,11.8352184 2.94276303,13.0166207 2.94276303,14.033977 C2.91309244,14.2881839 2.84033613,14.3293103 2.84033613,14.7902069 C2.84033613,15.0848736 2.89165882,15.4052414 3.06566218,15.7048966 C2.89178992,16.0082989 2.84033613,16.3356092 2.84033613,16.633977 C2.87476975,17.5287126 3.46848739,18.2172414 4.26734286,18.240092 C4.44156471,18.7463218 4.61779664,19.1306897 4.77941176,19.4716782 C4.88786891,19.7 5.12449076,19.8538161 5.36659664,19.8533793 L6.86869748,19.8533793 C7.11080336,19.8533793 7.34742521,19.7 7.45588235,19.4716782 C7.61749748,19.1306897 7.79372941,18.7463218 7.96797311,18.240092 C8.7394958,18.2472184 9.38739832,17.5356092 9.39495798,16.6555862 C9.39495798,16.3554483 9.34547059,16.0215402 9.16965378,15.712092 C9.34680336,15.4148506 9.39495798,15.0956782 9.39495798,14.8118161 C9.39495798,14.3293103 9.33974622,14.268069 9.27889748,14.033977 C9.27889748,13.0184598 9.91825714,11.8352184 10.6580992,10.5697241 C11.3979193,9.30417471 12.2352941,7.95691034 12.2352941,6.3851977 C12.2352941,2.99451034 9.60901008,0.0832528736 6.11764706,0.0832528736 Z M6.11764706,1.46608046 C8.92879328,1.46608046 10.9243697,3.73901839 10.9243697,6.3851977 C10.9243697,7.40074943 10.2850101,8.57677241 9.54516807,9.84229885 C8.94292941,10.8724598 8.27711092,11.9597011 8.04990588,13.1768966 C6.71846555,13.195977 5.24369748,13.1769425 4.17175462,13.1768966 C3.94393782,11.9647356 3.28045714,10.8777241 2.68330924,9.84949425 C1.9483395,8.58394483 1.31092437,7.4025908 1.31092437,6.3851977 C1.31092437,3.73901839 3.30650084,1.46608046 6.11764706,1.46608046 Z" id="Shape"></path>
                            </g>
                        </g>
                        <g id="Group-3" transform="translate(0.000000, 2.000000)">
                            <rect id="Rectangle-7" fill="#FFFFFF" transform="translate(8.193977, 6.465672) rotate(28.000000) translate(-8.193977, -6.465672) " x="0.664564937" y="4.46567216" width="15.0588235" height="4"></rect>
                            <path d="M1.88235294,3 L13.2849718,9.52361367" id="Line" stroke="#77AEFC" stroke-width="2" stroke-linecap="round"></path>
                        </g>
                    </g>
                </g>
            </g>
        </g>
    </g>
</svg>