<?xml version="1.0" encoding="UTF-8"?>
<svg width="375px" height="1028px" viewBox="0 0 375 1028" version="1.1" xmlns="http://www.w3.org/2000/svg" xmlns:xlink="http://www.w3.org/1999/xlink">
    <!-- Generator: Sketch 43.2 (39069) - http://www.bohemiancoding.com/sketch -->
    <title>screen--color-picker</title>
    <desc>Created with Sketch.</desc>
    <defs>
        <linearGradient x1="50%" y1="0%" x2="67.0043894%" y2="100%" id="linearGradient-1">
            <stop stop-color="#101B46" offset="0%"></stop>
            <stop stop-color="#163B72" offset="100%"></stop>
        </linearGradient>
    </defs>
    <g id="Page-1" stroke="none" stroke-width="1" fill="none" fill-rule="evenodd">
        <g id="screen--color-picker">
            <rect id="Rectangle-3" fill="url(#linearGradient-1)" x="0" y="0" width="375" height="1028"></rect>
            <text id="adjust-brightness-le" font-family="Avenir-Light, Avenir" font-size="14.9899998" font-weight="300" letter-spacing="0.600000024" fill="#FFFFFF">
                <tspan x="112.332046" y="832">adjust brightness level </tspan>
                <tspan x="168.63019" y="852">of lumi</tspan>
            </text>
            <g id="brightness-icons" transform="translate(52.000000, 764.000000)" fill-rule="nonzero" fill="#FFFFFF">
                <g id="less-bright" transform="translate(0.000000, 5.000000)">
                    <path d="M8.5,5.5 C6.85,5.5 5.5,6.85 5.5,8.5 C5.5,10.15 6.85,11.5 8.5,11.5 C10.15,11.5 11.5,10.15 11.5,8.5 C11.5,6.85 10.15,5.5 8.5,5.5 Z" id="Shape"></path>
                    <path d="M8.5,4.275 C8.925,4.275 9.25,3.95 9.25,3.525 L9.25,0.95 C9.25,0.525 8.925,0.2 8.5,0.2 C8.075,0.2 7.75,0.525 7.75,0.95 L7.75,3.5 C7.75,3.925 8.075,4.275 8.5,4.275 Z" id="Shape"></path>
                    <path d="M8.5,12.725 C8.075,12.725 7.75,13.05 7.75,13.475 L7.75,16.025 C7.75,16.45 8.075,16.775 8.5,16.775 C8.925,16.775 9.25,16.45 9.25,16.025 L9.25,13.475 C9.25,13.075 8.925,12.725 8.5,12.725 Z" id="Shape"></path>
                    <path d="M16.05,7.75 L13.475,7.75 C13.05,7.75 12.725,8.075 12.725,8.5 C12.725,8.925 13.05,9.25 13.475,9.25 L16.025,9.25 C16.45,9.25 16.775,8.925 16.775,8.5 C16.775,8.075 16.45,7.75 16.05,7.75 Z" id="Shape"></path>
                    <path d="M4.275,8.5 C4.275,8.075 3.95,7.75 3.525,7.75 L0.95,7.75 C0.525,7.75 0.2,8.075 0.2,8.5 C0.2,8.925 0.525,9.25 0.95,9.25 L3.5,9.25 C3.925,9.25 4.275,8.925 4.275,8.5 Z" id="Shape"></path>
                    <path d="M12.025,5.725 C12.225,5.725 12.4,5.65 12.55,5.5 L14.35,3.7 C14.65,3.4 14.65,2.925 14.35,2.65 C14.05,2.35 13.575,2.35 13.3,2.65 L11.5,4.45 C11.2,4.75 11.2,5.225 11.5,5.5 C11.65,5.65 11.825,5.725 12.025,5.725 Z" id="Shape"></path>
                    <path d="M4.45,11.5 L2.65,13.3 C2.35,13.6 2.35,14.075 2.65,14.35 C2.8,14.5 3,14.575 3.175,14.575 C3.35,14.575 3.55,14.5 3.7,14.35 L5.5,12.55 C5.8,12.25 5.8,11.775 5.5,11.5 C5.225,11.2 4.75,11.2 4.45,11.5 Z" id="Shape"></path>
                    <path d="M12.55,11.5 C12.25,11.2 11.775,11.2 11.5,11.5 C11.2,11.8 11.2,12.275 11.5,12.55 L13.3,14.35 C13.45,14.5 13.65,14.575 13.825,14.575 C14,14.575 14.2,14.5 14.35,14.35 C14.65,14.05 14.65,13.575 14.35,13.3 L12.55,11.5 Z" id="Shape"></path>
                    <path d="M4.45,5.5 C4.6,5.65 4.8,5.725 4.975,5.725 C5.15,5.725 5.35,5.65 5.5,5.5 C5.8,5.2 5.8,4.725 5.5,4.45 L3.7,2.65 C3.4,2.35 2.925,2.35 2.65,2.65 C2.35,2.95 2.35,3.425 2.65,3.7 L4.45,5.5 Z" id="Shape"></path>
                </g>
                <g id="more-bright" transform="translate(248.000000, 0.000000)">
                    <path d="M13,8.41176471 C10.4764706,8.41176471 8.41176471,10.4764706 8.41176471,13 C8.41176471,15.5235294 10.4764706,17.5882353 13,17.5882353 C15.5235294,17.5882353 17.5882353,15.5235294 17.5882353,13 C17.5882353,10.4764706 15.5235294,8.41176471 13,8.41176471 Z" id="Shape"></path>
                    <path d="M13,6.53823529 C13.65,6.53823529 14.1470588,6.04117647 14.1470588,5.39117647 L14.1470588,1.45294118 C14.1470588,0.802941176 13.65,0.305882353 13,0.305882353 C12.35,0.305882353 11.8529412,0.802941176 11.8529412,1.45294118 L11.8529412,5.35294118 C11.8529412,6.00294118 12.35,6.53823529 13,6.53823529 Z" id="Shape"></path>
                    <path d="M13,19.4617647 C12.35,19.4617647 11.8529412,19.9588235 11.8529412,20.6088235 L11.8529412,24.5088235 C11.8529412,25.1588235 12.35,25.6558824 13,25.6558824 C13.65,25.6558824 14.1470588,25.1588235 14.1470588,24.5088235 L14.1470588,20.6088235 C14.1470588,19.9970588 13.65,19.4617647 13,19.4617647 Z" id="Shape"></path>
                    <path d="M24.5470588,11.8529412 L20.6088235,11.8529412 C19.9588235,11.8529412 19.4617647,12.35 19.4617647,13 C19.4617647,13.65 19.9588235,14.1470588 20.6088235,14.1470588 L24.5088235,14.1470588 C25.1588235,14.1470588 25.6558824,13.65 25.6558824,13 C25.6558824,12.35 25.1588235,11.8529412 24.5470588,11.8529412 Z" id="Shape"></path>
                    <path d="M6.53823529,13 C6.53823529,12.35 6.04117647,11.8529412 5.39117647,11.8529412 L1.45294118,11.8529412 C0.802941176,11.8529412 0.305882353,12.35 0.305882353,13 C0.305882353,13.65 0.802941176,14.1470588 1.45294118,14.1470588 L5.35294118,14.1470588 C6.00294118,14.1470588 6.53823529,13.65 6.53823529,13 Z" id="Shape"></path>
                    <path d="M18.3911765,8.75588235 C18.6970588,8.75588235 18.9647059,8.64117647 19.1941176,8.41176471 L21.9470588,5.65882353 C22.4058824,5.2 22.4058824,4.47352941 21.9470588,4.05294118 C21.4882353,3.59411765 20.7617647,3.59411765 20.3411765,4.05294118 L17.5882353,6.80588235 C17.1294118,7.26470588 17.1294118,7.99117647 17.5882353,8.41176471 C17.8176471,8.64117647 18.0852941,8.75588235 18.3911765,8.75588235 Z" id="Shape"></path>
                    <path d="M6.80588235,17.5882353 L4.05294118,20.3411765 C3.59411765,20.8 3.59411765,21.5264706 4.05294118,21.9470588 C4.28235294,22.1764706 4.58823529,22.2911765 4.85588235,22.2911765 C5.12352941,22.2911765 5.42941176,22.1764706 5.65882353,21.9470588 L8.41176471,19.1941176 C8.87058824,18.7352941 8.87058824,18.0088235 8.41176471,17.5882353 C7.99117647,17.1294118 7.26470588,17.1294118 6.80588235,17.5882353 Z" id="Shape"></path>
                    <path d="M19.1941176,17.5882353 C18.7352941,17.1294118 18.0088235,17.1294118 17.5882353,17.5882353 C17.1294118,18.0470588 17.1294118,18.7735294 17.5882353,19.1941176 L20.3411765,21.9470588 C20.5705882,22.1764706 20.8764706,22.2911765 21.1441176,22.2911765 C21.4117647,22.2911765 21.7176471,22.1764706 21.9470588,21.9470588 C22.4058824,21.4882353 22.4058824,20.7617647 21.9470588,20.3411765 L19.1941176,17.5882353 Z" id="Shape"></path>
                    <path d="M6.80588235,8.41176471 C7.03529412,8.64117647 7.34117647,8.75588235 7.60882353,8.75588235 C7.87647059,8.75588235 8.18235294,8.64117647 8.41176471,8.41176471 C8.87058824,7.95294118 8.87058824,7.22647059 8.41176471,6.80588235 L5.65882353,4.05294118 C5.2,3.59411765 4.47352941,3.59411765 4.05294118,4.05294118 C3.59411765,4.51176471 3.59411765,5.23823529 4.05294118,5.65882353 L6.80588235,8.41176471 Z" id="Shape"></path>
                </g>
            </g>
        </g>
    </g>
</svg>