<?xml version="1.0" encoding="UTF-8"?>
<svg width="70px" height="25px" viewBox="0 0 70 25" version="1.1" xmlns="http://www.w3.org/2000/svg" xmlns:xlink="http://www.w3.org/1999/xlink">
    <!-- Generator: Sketch 43.2 (39069) - http://www.bohemiancoding.com/sketch -->
    <title>back-icon-w-text</title>
    <desc>Created with Sketch.</desc>
    <defs></defs>
    <g id="Symbols" stroke="none" stroke-width="1" fill="none" fill-rule="evenodd">
        <g id="back-icon-w-text">
            <path d="M12,0.5 C13.6562583,0.5 15.2148364,0.812496875 16.6757812,1.4375 C18.1367261,2.06250312 19.4101508,2.91796332 20.4960938,4.00390625 C21.5820367,5.08984918 22.4374969,6.36327395 23.0625,7.82421875 C23.6875031,9.28516355 24,10.8437417 24,12.5 C24,14.1562583 23.6875031,15.7148364 23.0625,17.1757812 C22.4374969,18.6367261 21.5820367,19.9101508 20.4960938,20.9960938 C19.4101508,22.0820367 18.1367261,22.9374969 16.6757812,23.5625 C15.2148364,24.1875031 13.6562583,24.5 12,24.5 C10.3437417,24.5 8.78516355,24.1875031 7.32421875,23.5625 C5.86327395,22.9374969 4.58984918,22.0820367 3.50390625,20.9960938 C2.41796332,19.9101508 1.56250313,18.6367261 0.9375,17.1757812 C0.312496875,15.7148364 0,14.1562583 0,12.5 C0,10.8437417 0.312496875,9.28516355 0.9375,7.82421875 C1.56250313,6.36327395 2.41796332,5.08984918 3.50390625,4.00390625 C4.58984918,2.91796332 5.86327395,2.06250312 7.32421875,1.4375 C8.78516355,0.812496875 10.3437417,0.5 12,0.5 Z M12,23.0234375 C13.4531323,23.0234375 14.8163999,22.7460965 16.0898438,22.1914062 C17.3632876,21.636716 18.4726515,20.8828173 19.4179688,19.9296875 C20.363286,18.9765577 21.1132785,17.8632876 21.6679688,16.5898438 C22.222659,15.3163999 22.5,13.9531323 22.5,12.5 C22.5,11.0468677 22.222659,9.68360012 21.6679688,8.41015625 C21.1132785,7.13671238 20.363286,6.02734848 19.4179688,5.08203125 C18.4726515,4.13671402 17.3632876,3.38672152 16.0898438,2.83203125 C14.8163999,2.27734098 13.4531323,2 12,2 C10.5468677,2 9.18360012,2.27734098 7.91015625,2.83203125 C6.63671238,3.38672152 5.52734848,4.13671402 4.58203125,5.08203125 C3.63671402,6.02734848 2.88672152,7.13671238 2.33203125,8.41015625 C1.77734098,9.68360012 1.5,11.0468677 1.5,12.5 C1.5,13.9531323 1.77734098,15.3163999 2.33203125,16.5898438 C2.88672152,17.8632876 3.63671402,18.9765577 4.58203125,19.9296875 C5.52734848,20.8828173 6.63671238,21.636716 7.91015625,22.1914062 C9.18360012,22.7460965 10.5468677,23.0234375 12,23.0234375 Z M17.25,11.75 C17.4687511,11.75 17.6484368,11.8203118 17.7890625,11.9609375 C17.9296882,12.1015632 18,12.2812489 18,12.5 C18,12.703126 17.9296882,12.8789055 17.7890625,13.0273438 C17.6484368,13.175782 17.4687511,13.25 17.25,13.25 L8.765625,13.25 L11.53125,15.9921875 C11.6718757,16.1484383 11.7421875,16.328124 11.7421875,16.53125 C11.7421875,16.734376 11.6718757,16.9140617 11.53125,17.0703125 C11.4531246,17.1328128 11.367188,17.1835936 11.2734375,17.2226562 C11.179687,17.2617189 11.085938,17.28125 10.9921875,17.28125 C10.898437,17.28125 10.804688,17.2617189 10.7109375,17.2226562 C10.617187,17.1835936 10.5312504,17.1328128 10.453125,17.0703125 L6.0234375,12.5234375 L10.453125,7.9765625 C10.6093758,7.82031172 10.7890615,7.7421875 10.9921875,7.7421875 C11.1953135,7.7421875 11.3749992,7.82031172 11.53125,7.9765625 C11.6718757,8.1171882 11.7421875,8.2929677 11.7421875,8.50390625 C11.7421875,8.7148448 11.6718757,8.8906243 11.53125,9.03125 L8.8125,11.75 L17.25,11.75 Z" id="arrow-left-circle---simple-line-icons" fill="#77AEFC"></path>
            <text id="back" font-family="Avenir-Light, Avenir" font-size="14.9899998" font-weight="300" letter-spacing="0.600000024" fill="#FFFFFF">
                <tspan x="35.6204602" y="18">back</tspan>
            </text>
        </g>
    </g>
</svg>