<?xml version="1.0" encoding="UTF-8"?>
<svg width="54px" height="25px" viewBox="0 0 54 25" version="1.1" xmlns="http://www.w3.org/2000/svg" xmlns:xlink="http://www.w3.org/1999/xlink">
    <!-- Generator: Sketch 43.2 (39069) - http://www.bohemiancoding.com/sketch -->
    <title>btn-recent--disabled</title>
    <desc>Created with Sketch.</desc>
    <defs></defs>
    <g id="Symbols" stroke="none" stroke-width="1" fill="none" fill-rule="evenodd">
        <g id="btn-recent--disabled" fill="#FFFFFF">
            <path d="M1.386,9.36 L3.546,9.36 L3.546,10.728 L3.582,10.728 C3.8220012,10.2239975 4.16399778,9.83400138 4.608,9.558 C5.05200222,9.28199862 5.56199712,9.144 6.138,9.144 C6.27000066,9.144 6.39899937,9.15599988 6.525,9.18 C6.65100063,9.20400012 6.77999934,9.23399982 6.912,9.27 L6.912,11.358 C6.7319991,11.3099998 6.55500087,11.2710001 6.381,11.241 C6.20699913,11.2109998 6.03600084,11.196 5.868,11.196 C5.36399748,11.196 4.95900153,11.2889991 4.653,11.475 C4.34699847,11.6610009 4.11300081,11.8739988 3.951,12.114 C3.78899919,12.3540012 3.68100027,12.5939988 3.627,12.834 C3.57299973,13.0740012 3.546,13.2539994 3.546,13.374 L3.546,18 L1.386,18 L1.386,9.36 Z M10.116,14.436 C10.1880004,15.0840032 10.4399978,15.5879982 10.872,15.948 C11.3040022,16.3080018 11.8259969,16.488 12.438,16.488 C12.9780027,16.488 13.4309982,16.3770011 13.797,16.155 C14.1630018,15.9329989 14.4839986,15.6540017 14.76,15.318 L16.308,16.488 C15.8039975,17.1120031 15.2400031,17.5559987 14.616,17.82 C13.9919969,18.0840013 13.3380034,18.216 12.654,18.216 C12.0059968,18.216 11.3940029,18.1080011 10.818,17.892 C10.2419971,17.6759989 9.7440021,17.370002 9.324,16.974 C8.9039979,16.577998 8.57100123,16.1010028 8.325,15.543 C8.07899877,14.9849972 7.956,14.3640034 7.956,13.68 C7.956,12.9959966 8.07899877,12.3750028 8.325,11.817 C8.57100123,11.2589972 8.9039979,10.782002 9.324,10.386 C9.7440021,9.98999802 10.2419971,9.68400108 10.818,9.468 C11.3940029,9.25199892 12.0059968,9.144 12.654,9.144 C13.254003,9.144 13.8029975,9.24899895 14.301,9.459 C14.7990025,9.66900105 15.2249982,9.97199802 15.579,10.368 C15.9330018,10.764002 16.208999,11.2529971 16.407,11.835 C16.605001,12.4170029 16.704,13.0859962 16.704,13.842 L16.704,14.436 L10.116,14.436 Z M14.544,12.816 C14.5319999,12.1799968 14.3340019,11.6790018 13.95,11.313 C13.5659981,10.9469982 13.0320034,10.764 12.348,10.764 C11.6999968,10.764 11.1870019,10.9499981 10.809,11.322 C10.4309981,11.6940019 10.2000004,12.1919969 10.116,12.816 L14.544,12.816 Z M24.624,11.952 C24.3719987,11.6879987 24.1080014,11.4780008 23.832,11.322 C23.5559986,11.1659992 23.2740014,11.088 22.986,11.088 C22.589998,11.088 22.2360016,11.1599993 21.924,11.304 C21.6119984,11.4480007 21.3450011,11.6399988 21.123,11.88 C20.9009989,12.1200012 20.7330006,12.3959984 20.619,12.708 C20.5049994,13.0200016 20.448,13.3439983 20.448,13.68 C20.448,14.0160017 20.5049994,14.3399984 20.619,14.652 C20.7330006,14.9640016 20.9009989,15.2399988 21.123,15.48 C21.3450011,15.7200012 21.6119984,15.9119993 21.924,16.056 C22.2360016,16.2000007 22.589998,16.272 22.986,16.272 C23.3220017,16.272 23.6339986,16.2030007 23.922,16.065 C24.2100014,15.9269993 24.455999,15.7260013 24.66,15.462 L26.1,17.01 C25.8839989,17.2260011 25.6350014,17.4119992 25.353,17.568 C25.0709986,17.7240008 24.7860014,17.8499995 24.498,17.946 C24.2099986,18.0420005 23.9340013,18.1109998 23.67,18.153 C23.4059987,18.1950002 23.178001,18.216 22.986,18.216 C22.3379968,18.216 21.7260029,18.1080011 21.15,17.892 C20.5739971,17.6759989 20.0760021,17.370002 19.656,16.974 C19.2359979,16.577998 18.9030012,16.1010028 18.657,15.543 C18.4109988,14.9849972 18.288,14.3640034 18.288,13.68 C18.288,12.9959966 18.4109988,12.3750028 18.657,11.817 C18.9030012,11.2589972 19.2359979,10.782002 19.656,10.386 C20.0760021,9.98999802 20.5739971,9.68400108 21.15,9.468 C21.7260029,9.25199892 22.3379968,9.144 22.986,9.144 C23.5380028,9.144 24.0929972,9.24899895 24.651,9.459 C25.2090028,9.66900105 25.6979979,10.0019977 26.118,10.458 L24.624,11.952 Z M29.124,14.436 C29.1960004,15.0840032 29.4479978,15.5879982 29.88,15.948 C30.3120022,16.3080018 30.8339969,16.488 31.446,16.488 C31.9860027,16.488 32.4389982,16.3770011 32.805,16.155 C33.1710018,15.9329989 33.4919986,15.6540017 33.768,15.318 L35.316,16.488 C34.8119975,17.1120031 34.2480031,17.5559987 33.624,17.82 C32.9999969,18.0840013 32.3460034,18.216 31.662,18.216 C31.0139968,18.216 30.4020029,18.1080011 29.826,17.892 C29.2499971,17.6759989 28.7520021,17.370002 28.332,16.974 C27.9119979,16.577998 27.5790012,16.1010028 27.333,15.543 C27.0869988,14.9849972 26.964,14.3640034 26.964,13.68 C26.964,12.9959966 27.0869988,12.3750028 27.333,11.817 C27.5790012,11.2589972 27.9119979,10.782002 28.332,10.386 C28.7520021,9.98999802 29.2499971,9.68400108 29.826,9.468 C30.4020029,9.25199892 31.0139968,9.144 31.662,9.144 C32.262003,9.144 32.8109975,9.24899895 33.309,9.459 C33.8070025,9.66900105 34.2329982,9.97199802 34.587,10.368 C34.9410018,10.764002 35.216999,11.2529971 35.415,11.835 C35.613001,12.4170029 35.712,13.0859962 35.712,13.842 L35.712,14.436 L29.124,14.436 Z M33.552,12.816 C33.5399999,12.1799968 33.3420019,11.6790018 32.958,11.313 C32.5739981,10.9469982 32.0400034,10.764 31.356,10.764 C30.7079968,10.764 30.1950019,10.9499981 29.817,11.322 C29.4389981,11.6940019 29.2080004,12.1919969 29.124,12.816 L33.552,12.816 Z M37.728,9.36 L39.78,9.36 L39.78,10.746 L39.816,10.746 C40.020001,10.3139978 40.3319979,9.93900159 40.752,9.621 C41.1720021,9.30299841 41.7419964,9.144 42.462,9.144 C43.0380029,9.144 43.526998,9.23999904 43.929,9.432 C44.331002,9.62400096 44.6579987,9.87599844 44.91,10.188 C45.1620013,10.5000016 45.3419995,10.859998 45.45,11.268 C45.5580005,11.676002 45.612,12.1019978 45.612,12.546 L45.612,18 L43.452,18 L43.452,13.626 C43.452,13.3859988 43.4400001,13.1190015 43.416,12.825 C43.3919999,12.5309985 43.3290005,12.2550013 43.227,11.997 C43.1249995,11.7389987 42.9660011,11.5230009 42.75,11.349 C42.5339989,11.1749991 42.2400019,11.088 41.868,11.088 C41.5079982,11.088 41.2050012,11.1479994 40.959,11.268 C40.7129988,11.3880006 40.5090008,11.549999 40.347,11.754 C40.1849992,11.958001 40.0680004,12.1919987 39.996,12.456 C39.9239996,12.7200013 39.888,12.9959986 39.888,13.284 L39.888,18 L37.728,18 L37.728,9.36 Z M47.052,11.196 L47.052,9.36 L48.834,9.36 L48.834,6.858 L50.994,6.858 L50.994,9.36 L53.37,9.36 L53.37,11.196 L50.994,11.196 L50.994,14.976 C50.994,15.4080022 51.0749992,15.7499987 51.237,16.002 C51.3990008,16.2540013 51.7199976,16.38 52.2,16.38 C52.392001,16.38 52.6019989,16.3590002 52.83,16.317 C53.0580011,16.2749998 53.2379993,16.2060005 53.37,16.11 L53.37,17.928 C53.1419989,18.0360005 52.8630017,18.1109998 52.533,18.153 C52.2029984,18.1950002 51.9120013,18.216 51.66,18.216 C51.0839971,18.216 50.6130018,18.1530006 50.247,18.027 C49.8809982,17.9009994 49.593001,17.7090013 49.383,17.451 C49.172999,17.1929987 49.0290004,16.8720019 48.951,16.488 C48.8729996,16.1039981 48.834,15.6600025 48.834,15.156 L48.834,11.196 L47.052,11.196 Z" id="recent"></path>
        </g>
    </g>
</svg>