<?xml version="1.0" encoding="UTF-8"?>
<svg width="183px" height="52px" viewBox="0 0 183 52" version="1.1" xmlns="http://www.w3.org/2000/svg" xmlns:xlink="http://www.w3.org/1999/xlink">
    <!-- Generator: Sketch 43.2 (39069) - http://www.bohemiancoding.com/sketch -->
    <title>edit-lumi-color-salmon</title>
    <desc>Created with Sketch.</desc>
    <defs>
        <filter x="-27.9%" y="-29.4%" width="155.9%" height="158.8%" filterUnits="objectBoundingBox" id="filter-1">
            <feGaussianBlur stdDeviation="2.95758929" in="SourceGraphic"></feGaussianBlur>
        </filter>
    </defs>
    <g id="Symbols" stroke="none" stroke-width="1" fill="none" fill-rule="evenodd">
        <g id="edit-lumi-color-salmon" transform="translate(5.000000, 11.000000)">
            <g id="lumi--salmon" transform="translate(140.000000, 0.000000)">
                <g id="Group-Copy">
                    <path d="M3.0746902,16.4203857 C2.95665622,15.6954151 2.8952381,14.9508703 2.8952381,14.1916606 C2.8952381,6.74969302 8.79655149,0.716786274 16.0761905,0.716786274 C23.3558295,0.716786274 29.2571429,6.74969302 29.2571429,14.1916606 C29.2571429,15.2231597 29.1437696,16.2275885 28.9290669,17.1926346 C28.933599,17.268643 28.9271902,17.3454024 28.9093834,17.4228624 C28.8246063,17.7916432 28.7498612,18.155201 28.6839808,18.5132246 C29.7236795,18.5322789 32.2484973,18.0451756 31.8427569,19.2939161 C31.4744142,20.4275583 29.6887223,21.457402 28.2653293,22.1021751 C27.9378562,27.9397595 29.2338238,31.4951565 24.711421,30.7858991 C19.0795132,29.9026359 4.04677819,31.822022 3.27509696,29.5065299 C2.68390007,27.7325958 3.92342523,25.2637627 3.82701791,21.4402868 C3.80402822,21.4431041 3.78441647,21.4382948 3.76872461,21.4252307 C2.38242354,20.2710771 0.126552304,18.0802924 0.126552304,16.4440815 C0.126552304,15.2214688 1.81951147,15.921801 3.0746902,16.4203857 Z" id="Combined-Shape" fill="#FFB0B0" filter="url(#filter-1)"></path>
                    <path d="M3.0746902,15.7972701 C2.95665622,15.0722995 2.8952381,14.3277547 2.8952381,13.5685451 C2.8952381,6.12657745 8.79655149,0.0936706962 16.0761905,0.0936706962 C23.3558295,0.0936706962 29.2571429,6.12657745 29.2571429,13.5685451 C29.2571429,14.6000441 29.1437696,15.6044729 28.9290669,16.569519 C28.933599,16.6455274 28.9271902,16.7222868 28.9093834,16.7997468 C28.8246063,17.1685277 28.7498612,17.5320854 28.6839808,17.890109 C29.7236795,17.9091633 32.2484973,17.42206 31.8427569,18.6708005 C31.4744142,19.8044427 29.6887223,20.8342864 28.2653293,21.4790595 C27.9378562,27.316644 29.2338238,30.8720409 24.711421,30.1627836 C19.0795132,29.2795204 4.04677819,31.1989064 3.27509696,28.8834144 C2.68390007,27.1094802 3.92342523,24.6406471 3.82701791,20.8171712 C3.80402822,20.8199885 3.78441647,20.8151792 3.76872461,20.8021151 C2.38242354,19.6479615 0.126552304,17.4571768 0.126552304,15.8209659 C0.126552304,14.5983533 1.81951147,15.2986854 3.0746902,15.7972701 Z" id="Combined-Shape-Copy" fill="#FFB0B0"></path>
                    <ellipse id="Oval-4" fill="#D49797" transform="translate(10.872397, 13.884997) rotate(1.000000) translate(-10.872397, -13.884997) " cx="10.8723966" cy="13.8849969" rx="1" ry="1.25293132"></ellipse>
                    <ellipse id="Oval-4-Copy" fill="#D49797" transform="translate(22.178316, 13.911242) scale(-1, 1) rotate(-8.000000) translate(-22.178316, -13.911242) " cx="22.1783158" cy="13.9112418" rx="1" ry="1.25293132"></ellipse>
                    <path d="M22.6164478,18.560345 C19.5686647,17.1238734 16.3470646,21.1765785 11.1294532,18.560345 C6.19860467,18.560345 7.61050874,25.2233531 11.1294532,26.5901426 C14.6483977,27.9569321 23.7241048,28.1186611 22.6164478,25.6853957 C21.5087908,23.2521302 25.312162,19.8308805 22.6164478,18.560345 Z" id="Path-9" fill="#D49797"></path>
                </g>
            </g>
            <text id="edit-lumi’s-color-fo" font-family="Avenir-LightOblique, Avenir" font-size="13.8800001" font-style="italic" font-weight="300" letter-spacing="0.555570424" fill="#84BDFF">
                <tspan x="0" y="26">edit lumi's color</tspan>
            </text>
        </g>
    </g>
</svg>