<?xml version="1.0" encoding="UTF-8"?>
<svg width="69px" height="69px" viewBox="0 0 69 69" version="1.1" xmlns="http://www.w3.org/2000/svg" xmlns:xlink="http://www.w3.org/1999/xlink">
    <!-- Generator: Sketch 43.2 (39069) - http://www.bohemiancoding.com/sketch -->
    <title>menu-icon--settings</title>
    <desc>Created with Sketch.</desc>
    <defs>
        <circle id="path-1" cx="17.5" cy="17.5" r="17.5"></circle>
        <filter x="-85.7%" y="-65.7%" width="271.4%" height="271.4%" filterUnits="objectBoundingBox" id="filter-2">
            <feMorphology radius="1" operator="dilate" in="SourceAlpha" result="shadowSpreadOuter1"></feMorphology>
            <feOffset dx="0" dy="7" in="shadowSpreadOuter1" result="shadowOffsetOuter1"></feOffset>
            <feGaussianBlur stdDeviation="8.5" in="shadowOffsetOuter1" result="shadowBlurOuter1"></feGaussianBlur>
            <feComposite in="shadowBlurOuter1" in2="SourceAlpha" operator="out" result="shadowBlurOuter1"></feComposite>
            <feColorMatrix values="0 0 0 0 0   0 0 0 0 0   0 0 0 0 0  0 0 0 0.461786685 0" type="matrix" in="shadowBlurOuter1"></feColorMatrix>
        </filter>
    </defs>
    <g id="Symbols" stroke="none" stroke-width="1" fill="none" fill-rule="evenodd">
        <g id="menu-icon--settings" transform="translate(17.000000, 10.000000)">
            <g id="Group">
                <g id="icon--graph-copy-4">
                    <g id="menu-icon-copy">
                        <use fill="black" fill-opacity="1" filter="url(#filter-2)" xlink:href="#path-1"></use>
                        <use stroke="#77AEFC" stroke-width="2" fill="#FFFFFF" fill-rule="evenodd" xlink:href="#path-1"></use>
                    </g>
                </g>
                <g id="icon--settings" transform="translate(8.000000, 8.000000)" stroke="#77AEFC" fill="#77AEFC">
                    <g id="Group">
                        <path d="M9.15005949,6.10304551 C7.4164934,6.10304551 6.02000961,7.4995293 6.02000961,9.23309539 C6.02000961,10.9666615 7.4164934,12.3631453 9.15005949,12.3631453 C10.8836256,12.3631453 12.2801094,10.9666615 12.2801094,9.23309539 C12.2801094,7.4995293 10.8836256,6.10304551 9.15005949,6.10304551 Z M9.15005949,11.400053 C7.94619415,11.400053 6.98310188,10.4369607 6.98310188,9.23309539 C6.98310188,8.02923005 7.94619415,7.06613778 9.15005949,7.06613778 C10.3539248,7.06613778 11.3170171,8.02923005 11.3170171,9.23309539 C11.3170171,10.4369607 10.3539248,11.400053 9.15005949,11.400053 Z" id="Shape" fill-rule="nonzero"></path>
                        <path d="M17.0955707,7.30691084 L15.8435508,6.99390586 C15.7472415,6.70497818 15.626855,6.41605049 15.5064685,6.15120012 L16.1565558,5.04364401 C16.1806331,5.0195667 16.2047104,4.97141209 16.2047104,4.94733478 C16.4695607,4.53802057 16.4214061,3.9601652 16.0602465,3.5990056 L14.7841493,2.32290834 C14.5915308,2.13028989 14.3507577,2.03398066 14.0859074,2.03398066 C13.8692116,2.03398066 13.6284385,2.10621258 13.3635882,2.25067642 L12.2560321,2.90076371 C11.9911817,2.75629986 11.702254,2.65999064 11.4133263,2.5396041 L11.1003213,1.26350684 C11.1003213,1.23942954 11.076244,1.21535223 11.076244,1.19127492 C10.9799348,0.685651482 10.5465433,0.32449188 10.0168425,0.32449188 L8.21104452,0.32449188 C7.70542108,0.32449188 7.32018417,0.661574175 7.15164302,1.26350684 L6.83863804,2.5155268 C6.54971036,2.61183602 6.26078267,2.73222256 5.9959323,2.85260909 L4.86429888,2.1784445 C4.84022157,2.1543672 4.81614427,2.1543672 4.79206696,2.13028989 C4.62352581,2.00990335 4.40683005,1.96174874 4.2142116,1.96174874 C3.92528392,1.96174874 3.66043354,2.05805797 3.44373778,2.27475373 L2.16764052,3.55085099 C1.80648092,3.91201059 1.78240361,4.41763403 2.0954086,4.97141209 L2.74549589,6.0789682 C2.60103204,6.34381857 2.50472282,6.63274625 2.38433628,6.92167394 L1.18047094,7.28283354 L1.13231633,7.30691084 C1.10823902,7.30691084 1.10823902,7.30691084 1.08416172,7.33098815 C0.578538275,7.42729738 0.241455981,7.8606889 0.241455981,8.39038965 L0.241455981,10.1961877 C0.241455981,10.7018111 0.602615582,11.087048 1.18047094,11.2555892 L2.4324909,11.5685941 C2.52880012,11.8575218 2.64918666,12.1223722 2.76957319,12.4112999 L2.0954086,13.5429333 L2.0713313,13.6151652 C1.78240361,14.0485567 1.85463553,14.6023348 2.21579514,14.9634944 L3.4918924,16.2395917 C3.68451085,16.4322101 3.92528392,16.5285193 4.19013429,16.5285193 C4.40683005,16.5285193 4.64760312,16.4562874 4.91245349,16.3118236 L6.02000961,15.6617363 C6.28485998,15.8062001 6.57378766,15.9025094 6.86271534,16.0228959 L7.17572033,17.2749158 L7.19979764,17.3712251 C7.29610687,17.8768485 7.72949839,18.2380081 8.25919914,18.2380081 L10.0649971,18.2380081 C10.5706206,18.2380081 10.9558575,17.9009258 11.1243986,17.2989932 L11.4374036,16.0469732 C11.7263313,15.950664 12.015259,15.8302774 12.2801094,15.7098909 L13.4117428,16.3840555 C13.4358201,16.4081328 13.4598974,16.4081328 13.4839747,16.4322101 C13.6525159,16.5525966 13.8692116,16.6007513 14.0618301,16.6007513 C14.3507577,16.6007513 14.6156081,16.4803647 14.8323039,16.2877463 L16.1084011,15.011649 C16.2769423,14.8431079 16.6140246,14.3615617 16.1806331,13.5910879 L15.4823912,12.3872226 C15.626855,12.1223722 15.7231642,11.8334445 15.8435508,11.5445168 L17.119648,11.2315118 C17.1437253,11.2315118 17.1678026,11.2074345 17.1918799,11.2074345 C17.6975034,11.1111253 18.0345857,10.6777338 18.0345857,10.148033 L18.0345857,8.34223504 C18.0345857,7.8606889 17.6975034,7.47545199 17.0955707,7.30691084 Z M17.0714934,10.148033 C17.0714934,10.1961877 17.0474161,10.2443423 16.9751842,10.2443423 L16.9270296,10.2443423 L16.878875,10.2684196 L16.8547977,10.2684196 L15.6027777,10.5814246 L15.0971543,10.7018111 L14.9286131,11.1833572 C14.8323039,11.4241303 14.7359947,11.6649034 14.6156081,11.9056764 L14.3748351,12.3872226 L14.6396854,12.8446914 L15.2897727,13.9522475 C15.3620046,14.0967114 15.3860819,14.1930206 15.3620046,14.2170979 L14.1099847,15.5172725 C14.0859074,15.5413498 14.0618301,15.5413498 14.0377528,15.5413498 C14.0136755,15.5413498 13.9895981,15.5413498 13.9655208,15.5172725 L13.9173662,15.4931951 L13.8692116,15.4691178 L13.8451343,15.4691178 L13.8451343,15.4691178 L12.7375782,14.7949533 L12.2801094,14.5301029 L11.8226405,14.7708759 C11.5818675,14.8912625 11.3410944,14.9875717 11.1003213,15.0598036 L10.5946979,15.2283448 L10.4743114,15.7339682 L10.1372291,16.9619109 C10.0890745,17.130452 10.0168425,17.1786066 10.0168425,17.2026839 L8.21104452,17.2026839 C8.16288991,17.2026839 8.1147353,17.1786066 8.09065799,17.1063747 L8.09065799,17.0582201 L8.06658068,17.0100655 L8.06658068,16.9619109 L7.75357569,15.7339682 L7.63318916,15.2283448 L7.15164302,15.0598036 C6.91086996,14.9634944 6.67009689,14.8671852 6.42932382,14.7467986 L5.97185499,14.5060256 L5.51438616,14.7708759 L4.40683005,15.4209632 C4.26236621,15.4931951 4.19013429,15.4931951 4.16605698,15.4931951 L4.16605698,15.4931951 L4.16605698,15.4931951 L4.16605698,15.4931951 L2.86588242,14.2411752 C2.81772781,14.1930206 2.81772781,14.144866 2.84180511,14.0967114 L2.86588242,14.0485567 L2.88995973,14.0004021 L2.91403703,13.9522475 L3.58820162,12.8687687 L3.853052,12.4112999 L3.63635624,11.9538311 C3.5159697,11.713058 3.41966047,11.4722849 3.34742855,11.2315118 L3.17888741,10.7258884 L2.67326396,10.6055019 L1.42124401,10.2684196 C1.25270287,10.220265 1.20454825,10.1721104 1.18047094,10.148033 L1.18047094,8.34223504 C1.18047094,8.29408042 1.20454825,8.24592581 1.27678017,8.24592581 L1.32493479,8.24592581 L1.3730894,8.2218485 L1.39716671,8.2218485 L1.42124401,8.2218485 L2.64918666,7.90884351 L3.1548101,7.78845698 L3.32335125,7.30691084 C3.41966047,7.06613778 3.5159697,6.82536471 3.63635624,6.58459164 L3.8771293,6.12712281 L3.61227893,5.66965398 L2.96219165,4.56209787 C2.88995973,4.41763403 2.88995973,4.3213248 2.88995973,4.2972475 L4.16605698,3.02115024 C4.19013429,2.99707293 4.2142116,2.99707293 4.2382889,2.99707293 C4.26236621,2.99707293 4.28644352,2.99707293 4.28644352,3.02115024 L4.33459813,3.04522755 L4.38275275,3.06930485 C4.38275275,3.06930485 4.40683005,3.06930485 4.40683005,3.09338216 L5.51438616,3.71939214 L5.97185499,3.98424251 L6.42932382,3.74346944 C6.67009689,3.62308291 6.91086996,3.52677368 7.15164302,3.45454176 L7.65726647,3.28600061 L7.777653,2.78037717 L8.09065799,1.55243453 C8.1388126,1.38389338 8.21104452,1.33573876 8.21104452,1.31166146 L10.0168425,1.31166146 C10.0649971,1.31166146 10.1131518,1.33573876 10.1372291,1.40797069 L10.1372291,1.4561253 L10.1613064,1.50427991 L10.1613064,1.52835722 L10.4743114,2.78037717 L10.5946979,3.28600061 L11.076244,3.45454176 C11.3170171,3.55085099 11.5577902,3.64716022 11.7985632,3.76754675 L12.2801094,4.00831982 L12.7375782,3.74346944 L13.8451343,3.09338216 C13.9895981,3.02115024 14.0618301,3.02115024 14.0859074,3.02115024 L14.0859074,3.02115024 L14.0859074,3.02115024 L14.0859074,3.02115024 L15.3620046,4.2972475 C15.3860819,4.3213248 15.4101592,4.39355673 15.3860819,4.44171134 L15.3620046,4.48986595 L15.3379273,4.53802057 L15.3379273,4.53802057 L15.3379273,4.56209787 L15.3379273,4.58617518 L14.6637627,5.64557668 L14.3989124,6.10304551 L14.6396854,6.56051433 C14.760072,6.8012874 14.8563812,7.04206047 14.9286131,7.28283354 L15.0971543,7.78845698 L15.6027777,7.90884351 L16.8547977,8.2218485 C17.0233388,8.27000312 17.0714934,8.31815773 17.0955707,8.34223504 L17.0955707,10.148033 L17.0714934,10.148033 Z" id="Shape" fill-rule="nonzero"></path>
                    </g>
                </g>
            </g>
        </g>
    </g>
</svg>