<?xml version="1.0" encoding="UTF-8"?>
<svg width="69px" height="69px" viewBox="0 0 69 69" version="1.1" xmlns="http://www.w3.org/2000/svg" xmlns:xlink="http://www.w3.org/1999/xlink">
    <!-- Generator: Sketch 43.2 (39069) - http://www.bohemiancoding.com/sketch -->
    <title>menu-icon--graph</title>
    <desc>Created with Sketch.</desc>
    <defs>
        <circle id="path-1" cx="17.5" cy="17.5" r="17.5"></circle>
        <filter x="-85.7%" y="-65.7%" width="271.4%" height="271.4%" filterUnits="objectBoundingBox" id="filter-2">
            <feMorphology radius="1" operator="dilate" in="SourceAlpha" result="shadowSpreadOuter1"></feMorphology>
            <feOffset dx="0" dy="7" in="shadowSpreadOuter1" result="shadowOffsetOuter1"></feOffset>
            <feGaussianBlur stdDeviation="8.5" in="shadowOffsetOuter1" result="shadowBlurOuter1"></feGaussianBlur>
            <feComposite in="shadowBlurOuter1" in2="SourceAlpha" operator="out" result="shadowBlurOuter1"></feComposite>
            <feColorMatrix values="0 0 0 0 0   0 0 0 0 0   0 0 0 0 0  0 0 0 0.461786685 0" type="matrix" in="shadowBlurOuter1"></feColorMatrix>
        </filter>
    </defs>
    <g id="Symbols" stroke="none" stroke-width="1" fill="none" fill-rule="evenodd">
        <g id="menu-icon--graph" transform="translate(17.000000, 10.000000)">
            <g id="Group-2">
                <g id="menu-icon">
                    <g>
                        <use fill="black" fill-opacity="1" filter="url(#filter-2)" xlink:href="#path-1"></use>
                        <use stroke="#77AEFC" stroke-width="2" fill="#FFFFFF" fill-rule="evenodd" xlink:href="#path-1"></use>
                    </g>
                </g>
            </g>
            <g id="icon--graph" transform="translate(10.000000, 10.000000)" stroke="#77AEFC" fill="#77AEFC">
                <g id="Group">
                    <path d="M12.2351852,3.24537037 C11.9537037,3.24537037 11.725,3.47407407 11.725,3.75555556 L11.725,13.0092593 C11.725,13.2907407 11.9537037,13.5194444 12.2351852,13.5194444 C12.5166667,13.5194444 12.7453704,13.2907407 12.7453704,13.0092593 L12.7453704,3.77314815 C12.7453704,3.47407407 12.5166667,3.24537037 12.2351852,3.24537037 Z" id="Shape" fill-rule="nonzero"></path>
                    <path d="M9.35,10.3175926 C9.06851852,10.3175926 8.83981481,10.5462963 8.83981481,10.8277778 L8.83981481,13.0268519 C8.83981481,13.3083333 9.06851852,13.537037 9.35,13.537037 C9.63148148,13.537037 9.86018519,13.3083333 9.86018519,13.0268519 L9.86018519,10.8277778 C9.86018519,10.5462963 9.63148148,10.3175926 9.35,10.3175926 Z" id="Shape" fill-rule="nonzero"></path>
                    <path d="M6.46481481,5.91944444 C6.18333333,5.91944444 5.95462963,6.14814815 5.95462963,6.42962963 L5.95462963,13.0092593 C5.95462963,13.2907407 6.18333333,13.5194444 6.46481481,13.5194444 C6.7462963,13.5194444 6.975,13.2907407 6.975,13.0092593 L6.975,6.42962963 C6.99259259,6.14814815 6.76388889,5.91944444 6.46481481,5.91944444 Z" id="Shape" fill-rule="nonzero"></path>
                    <path d="M3.59722222,8.73425926 C3.31574074,8.73425926 3.08703704,8.96296296 3.08703704,9.24444444 L3.08703704,13.0092593 C3.08703704,13.2907407 3.31574074,13.5194444 3.59722222,13.5194444 C3.8787037,13.5194444 4.10740741,13.2907407 4.10740741,13.0092593 L4.10740741,9.24444444 C4.10740741,8.96296296 3.8787037,8.73425926 3.59722222,8.73425926 Z" id="Shape" fill-rule="nonzero"></path>
                    <path d="M14.2583333,0.166666667 L1.90833333,0.166666667 C0.958333333,0.166666667 0.166666667,0.958333333 0.166666667,1.90833333 L0.166666667,14.2407407 C0.166666667,15.2083333 0.958333333,15.9824074 1.90833333,15.9824074 L14.2407407,15.9824074 C15.2083333,15.9824074 15.9824074,15.1907407 15.9824074,14.2407407 L15.9824074,1.90833333 C16,0.958333333 15.2083333,0.166666667 14.2583333,0.166666667 Z M14.9796296,14.2583333 C14.9796296,14.662963 14.662963,14.9796296 14.2583333,14.9796296 L1.90833333,14.9796296 C1.5037037,14.9796296 1.18703704,14.662963 1.18703704,14.2583333 L1.18703704,1.90833333 C1.18703704,1.5037037 1.5037037,1.18703704 1.90833333,1.18703704 L14.2407407,1.18703704 C14.6453704,1.18703704 14.962037,1.5037037 14.962037,1.90833333 L14.962037,14.2583333 L14.9796296,14.2583333 Z" id="Shape" fill-rule="nonzero"></path>
                </g>
            </g>
        </g>
    </g>
</svg>