<?xml version="1.0" encoding="UTF-8"?>
<svg width="69px" height="69px" viewBox="0 0 69 69" version="1.1" xmlns="http://www.w3.org/2000/svg" xmlns:xlink="http://www.w3.org/1999/xlink">
    <!-- Generator: Sketch 43.2 (39069) - http://www.bohemiancoding.com/sketch -->
    <title>menu-icon--lamp--off</title>
    <desc>Created with Sketch.</desc>
    <defs>
        <circle id="path-1" cx="17.5" cy="17.5" r="17.5"></circle>
        <filter x="-85.7%" y="-65.7%" width="271.4%" height="271.4%" filterUnits="objectBoundingBox" id="filter-2">
            <feMorphology radius="1" operator="dilate" in="SourceAlpha" result="shadowSpreadOuter1"></feMorphology>
            <feOffset dx="0" dy="7" in="shadowSpreadOuter1" result="shadowOffsetOuter1"></feOffset>
            <feGaussianBlur stdDeviation="8.5" in="shadowOffsetOuter1" result="shadowBlurOuter1"></feGaussianBlur>
            <feComposite in="shadowBlurOuter1" in2="SourceAlpha" operator="out" result="shadowBlurOuter1"></feComposite>
            <feColorMatrix values="0 0 0 0 0   0 0 0 0 0   0 0 0 0 0  0 0 0 0.461786685 0" type="matrix" in="shadowBlurOuter1"></feColorMatrix>
        </filter>
    </defs>
    <g id="Symbols" stroke="none" stroke-width="1" fill="none" fill-rule="evenodd">
        <g id="menu-icon--lamp--off" transform="translate(17.000000, 10.000000)">
            <g id="Group">
                <g id="icon--graph-copy-3">
                    <g id="menu-icon-copy">
                        <use fill="black" fill-opacity="1" filter="url(#filter-2)" xlink:href="#path-1"></use>
                        <use stroke="#77AEFC" stroke-width="2" fill="#FFFFFF" fill-rule="evenodd" xlink:href="#path-1"></use>
                    </g>
                </g>
                <g id="icon--lamp-on" transform="translate(9.000000, 8.000000)">
                    <g id="Group-3">
                        <g id="icon--light-copy" transform="translate(2.666667, 2.608696)" fill-rule="nonzero" fill="#77AEFC">
                            <g id="Group">
                                <path d="M5.77777778,0.0723938031 C2.48037937,0.0723938031 0,2.60392004 0,5.55234583 C0,6.91745327 0.782579365,8.09058671 1.47669683,9.19106447 C2.17081429,10.2914943 2.77927619,11.3188006 2.77927619,12.2034583 C2.75125397,12.4245077 2.68253968,12.4602699 2.68253968,12.8610495 C2.68253968,13.1172814 2.73101111,13.3958621 2.89534762,13.6564318 C2.73113492,13.9202599 2.68253968,14.2048776 2.68253968,14.4643278 C2.71506032,15.2423588 3.27579365,15.8410795 4.03026825,15.8609495 C4.19481111,16.3011494 4.36125238,16.6353823 4.51388889,16.9318941 C4.61632063,17.1304348 4.83979683,17.2641879 5.06845238,17.2638081 L6.48710317,17.2638081 C6.71575873,17.2638081 6.93923492,17.1304348 7.04166667,16.9318941 C7.19430317,16.6353823 7.36074444,16.3011494 7.52530794,15.8609495 C8.25396825,15.8671464 8.86587619,15.2483558 8.87301587,14.4831184 C8.87301587,14.2221289 8.82627778,13.9317741 8.66022857,13.6626887 C8.82753651,13.4042179 8.87301587,13.1266767 8.87301587,12.8798401 C8.87301587,12.4602699 8.82087143,12.4070165 8.76340317,12.2034583 C8.76340317,11.3203998 9.36724286,10.2914943 10.0659825,9.19106447 C10.7647016,8.09058671 11.5555556,6.91905247 11.5555556,5.55234583 C11.5555556,2.60392204 9.07517619,0.0723938031 5.77777778,0.0723938031 Z M5.77777778,1.27485257 C8.43274921,1.27485257 10.3174603,3.25132034 10.3174603,5.55234583 C10.3174603,6.43543428 9.71362063,7.45806297 9.01488095,8.55852074 C8.4461,9.45431284 7.81727143,10.3997401 7.60268889,11.4581709 C6.34521746,11.4747626 4.95238095,11.4582109 3.93999048,11.4581709 C3.72483016,10.4041179 3.09820952,9.45889055 2.53423651,8.56477761 C1.84009841,7.46429985 1.23809524,6.43703548 1.23809524,5.55234583 C1.23809524,3.25132034 3.12280635,1.27485257 5.77777778,1.27485257 Z" id="Shape"></path>
                            </g>
                        </g>
                        <path d="M8.44444444,1.30434783 L8.44444444,0.434782609" id="Line" stroke="#77AEFC" stroke-linecap="square"></path>
                        <path d="M12.4444444,2.45143656 L12.9542902,1.73913043" id="Line-Copy" stroke="#77AEFC" stroke-linecap="square"></path>
                        <path d="M15.0328592,4.85038335 L15.8026596,4.41560074" id="Line-Copy-3" stroke="#77AEFC" stroke-linecap="square"></path>
                        <path d="M0.810636999,4.85038335 L1.58043736,4.41560074" id="Line-Copy-4" stroke="#77AEFC" stroke-linecap="square" transform="translate(1.255081, 4.850383) scale(-1, 1) translate(-1.255081, -4.850383) "></path>
                        <path d="M3.75620657,2.0523105 L4.26605229,1.34000438" id="Line-Copy-2" stroke="#77AEFC" stroke-linecap="square" transform="translate(4.200651, 1.774787) scale(-1, 1) translate(-4.200651, -1.774787) "></path>
                    </g>
                </g>
            </g>
        </g>
    </g>
</svg>