<?xml version="1.0" encoding="UTF-8"?>
<svg width="100px" height="100px" viewBox="0 0 100 100" version="1.1" xmlns="http://www.w3.org/2000/svg" xmlns:xlink="http://www.w3.org/1999/xlink">
    <!-- Generator: Sketch 43.2 (39069) - http://www.bohemiancoding.com/sketch -->
    <title>menu-icon--color-pick</title>
    <desc>Created with Sketch.</desc>
    <defs>
        <circle id="path-1" cx="17.5" cy="17.5" r="17.5"></circle>
        <filter x="-85.7%" y="-65.7%" width="271.4%" height="271.4%" filterUnits="objectBoundingBox" id="filter-2">
            <feMorphology radius="1" operator="dilate" in="SourceAlpha" result="shadowSpreadOuter1"></feMorphology>
            <feOffset dx="0" dy="7" in="shadowSpreadOuter1" result="shadowOffsetOuter1"></feOffset>
            <feGaussianBlur stdDeviation="8.5" in="shadowOffsetOuter1" result="shadowBlurOuter1"></feGaussianBlur>
            <feComposite in="shadowBlurOuter1" in2="SourceAlpha" operator="out" result="shadowBlurOuter1"></feComposite>
            <feColorMatrix values="0 0 0 0 0   0 0 0 0 0   0 0 0 0 0  0 0 0 0.461786685 0" type="matrix" in="shadowBlurOuter1"></feColorMatrix>
        </filter>
    </defs>
    <g id="Symbols" stroke="none" stroke-width="1" fill="none" fill-rule="evenodd">
        <g id="menu-icon--color-pick" transform="translate(33.000000, 33.000000)">
            <g id="Group">
                <g id="icon--graph-copy-2">
                    <g id="menu-icon-copy">
                        <use fill="black" fill-opacity="1" filter="url(#filter-2)" xlink:href="#path-1"></use>
                        <use stroke="#77AEFC" stroke-width="2" fill="#FFFFFF" fill-rule="evenodd" xlink:href="#path-1"></use>
                    </g>
                </g>
                <g id="icon--color" transform="translate(6.000000, 7.000000)" fill="#77AEFC">
                    <g id="Shape">
                        <path d="M15.2757357,20 C14.5048618,20 13.8325009,19.7236513 13.2773818,19.1790387 C12.5420924,18.4572983 12.5862922,17.6723504 12.6185056,17.0990739 C12.6495953,16.5460091 12.6705714,16.1803616 12.2016044,15.7202705 C11.9270414,15.450904 11.6614683,15.3311039 11.3404581,15.3311039 C10.7890847,15.3311039 10.0860087,15.6824195 9.3417296,16.0550492 C8.30228589,16.5746729 7.12424971,17.1641188 5.75255861,17.1641188 C4.34490837,17.1641188 3.02977799,16.5456416 1.73262717,15.2726738 C-1.35686168,12.2412906 0.0077125,6.37255623 3.29235458,3.15008085 C5.36262676,1.11862414 8.11537332,0 11.0430461,0 C13.9707188,0 16.7234654,1.11862414 18.7937376,3.15008085 C23.0683795,7.34345142 23.0687541,14.1661767 18.7948613,18.3584448 C18.7259396,18.426062 17.0980397,20 15.2757357,20 Z M4.69299333,4.57774015 C1.88035904,7.33714118 1.14039984,11.8896293 3.13347197,13.8452167 C4.07913374,14.7732483 4.90996351,15.1641188 5.75255861,15.1641188 C6.41142768,15.1641188 7.05540857,14.9536749 8.12265086,14.4277285 C8.2122152,14.3835904 8.28321746,14.3482218 8.44636032,14.2666662 C9.875641,13.5510846 10.4283857,13.3311039 11.3404581,13.3311039 C12.213739,13.3311039 12.9707391,13.6730593 13.6022431,14.2926112 C13.922469,14.6067762 14.1719209,14.948783 14.347165,15.3347983 C14.5155872,15.7057868 14.6000563,16.080528 14.6246473,16.4747141 C14.6393714,16.7107365 14.6349729,16.8623011 14.6153555,17.2112804 C14.5948901,17.5773644 14.6034937,17.6519915 14.6227634,17.6858804 C14.6308277,17.7000627 14.6468484,17.7207815 14.6780205,17.7513794 C14.8602884,17.9301975 15.0301789,18 15.2757357,18 C15.9685331,18 16.8931752,17.4223498 17.3943477,16.9306628 C20.8689367,13.522433 20.8685602,7.98712455 17.3931614,4.57780151 C15.6977315,2.91415921 13.4483808,2 11.0430461,2 C8.63771139,2 6.38836067,2.91415921 4.69299333,4.57774015 Z M6,12 C7.1045695,12 8,11.1045695 8,10 C8,8.8954305 7.1045695,8 6,8 C4.8954305,8 4,8.8954305 4,10 C4,11.1045695 4.8954305,12 6,12 L6,12 Z M10.25,8 C11.2164983,8 12,7.21649831 12,6.25 C12,5.28350169 11.2164983,4.5 10.25,4.5 C9.2835017,4.5 8.5,5.28350169 8.5,6.25 C8.5,7.21649831 9.2835017,8 10.25,8 L10.25,8 Z M15.5,9 C16.3284271,9 17,8.3284271 17,7.5 C17,6.67157288 16.3284271,6 15.5,6 C14.6715729,6 14,6.67157288 14,7.5 C14,8.3284271 14.6715729,9 15.5,9 L15.5,9 Z M17.5,13 C18.3284271,13 19,12.3284271 19,11.5 C19,10.6715729 18.3284271,10 17.5,10 C16.6715729,10 16,10.6715729 16,11.5 C16,12.3284271 16.6715729,13 17.5,13 L17.5,13 Z" fill-rule="nonzero"></path>
                    </g>
                </g>
            </g>
        </g>
    </g>
</svg>